<svg width="612" height="178" viewBox="0 0 612 178" fill="none" xmlns="http://www.w3.org/2000/svg">
<path d="M68.0251 119.334C110.8 112.77 152.218 101.005 194.875 93.8695C255.638 83.6982 318.915 83.0837 379.582 93.6322C438.538 103.858 499.669 128.8 557.924 141.472C609.586 152.714 665.99 157.343 716 143.297V85H-169V101.638C-93.4316 125.274 -11.4603 131.394 68.0251 119.334Z" fill="#F8842D"/>
<rect x="-30" y="-41" width="672" height="127" fill="#F8842D"/>
<path d="M66.7999 164.12C72.3582 161.332 77.7402 156.336 83.2832 153.305C91.1789 148.986 99.4014 148.725 107.285 153.204C114.946 157.547 122.889 168.139 130.459 173.521C137.172 178.295 144.502 180.261 151 174.296V149.538H36V156.604C45.8196 166.642 56.4713 169.241 66.7999 164.12Z" fill="#00B0F0"/>
<rect x="36" y="-7" width="115" height="156.92" fill="#00B0F0"/>
<g clip-path="url(#clip0_2001_41)">
<path d="M81.7478 119.312C80.4777 118.042 79.5519 116.617 79.2196 114.849C78.6854 112.071 79.362 109.638 81.2374 107.549C82.5193 106.125 84.1454 105.234 86.0326 104.997C88.003 104.748 89.9021 105.044 91.6469 106.125C93.8546 107.478 95.1365 109.484 95.4688 111.976C95.908 115.252 94.6261 118.374 91.6231 120.19C90.543 120.843 89.4036 121.27 88.1454 121.353C87.9792 121.365 87.7181 121.65 87.7062 121.816C87.6469 122.445 87.6825 123.074 87.6825 123.608C88.2166 123.953 88.7507 124.202 89.1424 124.57C89.6884 125.08 89.7952 125.816 89.7952 126.528C89.8071 129.223 89.8309 131.905 89.7834 134.599C89.7715 135.228 89.5222 135.846 89.3798 136.51C89.5816 136.51 89.819 136.51 90.0564 136.51C93.7596 136.51 97.451 136.51 101.154 136.51C101.309 136.51 101.499 136.463 101.617 136.522C101.819 136.629 101.961 136.807 102.139 136.961C101.973 137.092 101.807 137.246 101.617 137.329C101.487 137.389 101.309 137.341 101.142 137.341C82.7448 137.341 64.3472 137.341 45.9495 137.329C45.5816 137.329 44.9644 137.555 44.9881 136.914C45 136.356 45.5816 136.522 45.9495 136.522C48.4777 136.51 51.0178 136.522 53.546 136.522C53.7596 136.522 53.9733 136.522 54.1869 136.522C53.6172 135.917 53 135.407 52.5727 134.754C51.2552 132.76 51.3027 130.659 52.276 128.534C54.1988 124.32 56.0979 120.095 58.0208 115.869C59.1128 113.472 60.2166 111.086 61.3086 108.688C61.5341 108.202 61.7834 107.739 61.9495 107.24C62.1157 106.742 62.2582 106.22 62.27 105.709C62.3056 102.777 62.2819 99.8576 62.2819 96.9258C62.2819 96.7003 62.2819 96.4629 62.2819 96.2018C61.1662 96.2136 60.5015 95.6676 60.1573 94.73C59.6944 93.4837 60.6795 92.0356 62.0445 92.0237C65.2849 91.9881 68.5371 92 71.7774 92.0237C72.8932 92.0356 73.7952 93.0326 73.7952 94.1602C73.7952 95.2403 72.9525 96.0949 71.8249 96.178C71.7656 96.178 71.7062 96.2018 71.5757 96.2255C71.5638 96.4154 71.5401 96.6291 71.5401 96.8427C71.5401 99.905 71.5163 102.979 71.5638 106.042C71.5757 106.599 71.8487 107.169 72.086 107.691C73.3323 110.469 74.6142 113.234 75.8724 116C77.3442 119.24 78.7923 122.481 80.2522 125.721C80.8101 126.955 81.4273 128.166 81.9139 129.424C82.8398 131.834 81.9495 134.754 79.9317 136.142C79.8249 136.226 79.7181 136.309 79.4807 136.487C81.5341 136.487 83.4214 136.487 85.4036 136.487C84.7507 135.68 84.8338 134.777 84.8338 133.899C84.8457 131.501 84.8813 129.116 84.8219 126.718C84.7745 125.223 85.4036 124.214 86.8516 123.739C86.8516 123.086 86.8754 122.409 86.8279 121.745C86.816 121.602 86.5549 121.353 86.4006 121.341C84.632 121.199 83.1246 120.451 81.7478 119.312ZM86.5786 136.427C87.9317 136.89 88.9881 136.166 88.9881 134.766C88.9881 131.941 89 129.116 88.9881 126.303C88.9881 124.902 87.7537 124.154 86.4125 124.783C85.8902 125.116 85.6291 125.602 85.6291 126.22C85.6291 129.104 85.6291 131.988 85.6291 134.872C85.6291 135.537 85.9021 136.047 86.5786 136.427ZM63.457 95.4303C66.1039 95.4303 68.7507 95.4421 71.3857 95.4303C72.4184 95.4303 72.9881 94.9317 72.9881 94.089C72.9763 93.27 72.4303 92.7952 71.4214 92.7834C70.4955 92.7715 69.5697 92.7715 68.6439 92.7834C66.8516 92.7952 65.0593 92.8071 63.1484 92.8071C62.7685 92.8071 62.4006 92.7834 62.0208 92.819C61.3917 92.8783 60.9169 93.365 60.8576 93.9703C60.7982 94.6231 61.178 95.2166 61.819 95.3353C62.3175 95.4303 62.8398 95.3946 63.457 95.4303ZM61.7478 114.03C63.8843 114.599 65.7122 115.68 67.1602 117.365C68.7863 119.252 70.8041 120.285 73.3086 120.309C74.4481 120.32 75.5757 120.214 76.7033 119.739C76.5727 119.442 76.4659 119.181 76.3472 118.932C74.6024 115.086 72.8457 111.24 71.1246 107.383C70.9228 106.932 70.8041 106.398 70.8041 105.911C70.7804 102.932 70.7923 99.9406 70.7923 96.9614C70.7923 96.7122 70.7685 96.4629 70.7567 96.178C68.8101 96.178 66.911 96.178 64.9169 96.1662C64.5846 96.1662 64.2403 96.1662 63.908 96.1662C63.1128 96.1662 63.1128 96.1662 63.1128 96.997C63.1128 100 63.1246 103.003 63.1009 106.018C63.1009 106.421 63.0059 106.849 62.8398 107.217C61.9852 109.175 61.0831 111.11 60.2047 113.056C60.1217 113.246 60.0504 113.448 59.9436 113.709C60.549 113.792 61.1068 113.887 61.7478 114.03ZM57.8665 136.57C63.9911 136.57 70.1276 136.582 76.2522 136.57C76.6676 136.57 77.0831 136.534 77.4866 136.439C80.7626 135.656 82.4006 132.32 81.0237 129.211C79.8249 126.528 78.5786 123.858 77.3917 121.163C77.1424 120.593 76.9169 120.439 76.276 120.605C72.4421 121.59 69.1424 120.771 66.4955 117.674C65.1187 116.071 63.3501 115.062 61.1662 114.623C60.8813 114.564 60.5846 114.516 60.2997 114.457C59.7893 114.338 59.5044 114.481 59.2671 115.015C58.1751 117.531 57.0119 120.024 55.8843 122.516C54.8398 124.819 53.7596 127.098 52.7626 129.424C51.2552 132.938 53.9852 136.807 57.8665 136.57ZM81.546 108.368C78.911 111.656 79.3383 116.356 82.5193 118.932C85.724 121.531 90.4125 121.092 93.0475 117.947C95.6706 114.801 95.2908 110.136 92.181 107.454C89.0831 104.771 84.359 105.151 81.546 108.368Z" fill="#413879"/>
<path d="M60.1454 139.964C57.5697 139.964 55.0653 139.964 52.5489 139.964C52.3709 139.964 52.1691 140 52.0267 139.941C51.8961 139.881 51.7418 139.691 51.7537 139.585C51.7656 139.43 51.908 139.228 52.0386 139.169C52.2047 139.098 52.4303 139.145 52.6202 139.145C66.5786 139.145 80.549 139.145 94.5074 139.157C94.816 139.157 95.362 138.908 95.3857 139.537C95.4095 140.226 94.8398 139.964 94.5074 139.964C83.0771 139.964 71.635 139.964 60.1454 139.964Z" fill="#3F3679"/>
<path d="M97.0712 139.596C97.2136 139.407 97.3679 139.157 97.5222 139.157C98.911 139.122 100.288 139.122 101.677 139.157C101.843 139.157 101.997 139.418 102.151 139.549C101.985 139.691 101.819 139.941 101.653 139.941C100.264 139.976 98.8872 139.964 97.4985 139.941C97.3561 139.941 97.2136 139.751 97.0712 139.596Z" fill="#3F3679"/>
<path d="M46.8516 139.134C47.7775 139.134 48.6558 139.11 49.5223 139.157C49.7003 139.169 49.9852 139.371 50.0327 139.537C50.1276 139.917 49.819 139.976 49.5104 139.976C48.2048 139.976 46.8991 139.988 45.6054 139.953C45.3917 139.953 45.0356 139.727 45.0119 139.561C44.9525 139.169 45.2968 139.122 45.6172 139.134C46.0089 139.134 46.4006 139.134 46.8516 139.134Z" fill="#3F3679"/>
<path d="M61.2493 114.682C63.3502 115.074 65.1187 116.083 66.4956 117.685C69.1424 120.783 72.4421 121.602 76.276 120.617C76.9169 120.451 77.1424 120.605 77.3917 121.175C78.5786 123.869 79.8249 126.528 81.0237 129.223C82.4006 132.32 80.7626 135.668 77.4867 136.451C77.0831 136.546 76.6677 136.582 76.2522 136.582C70.1276 136.582 63.9911 136.582 57.7715 136.546C57.0119 136.047 56.2166 135.691 55.6825 135.098C53.997 133.223 53.8309 131.098 54.8754 128.819C56.3234 125.662 57.7596 122.493 59.184 119.323C59.8843 117.792 60.5608 116.237 61.2493 114.682Z" fill="#F8AF23"/>
<path d="M65.0119 96.178C66.911 96.178 68.7982 96.178 70.7448 96.178C70.7567 96.4629 70.7804 96.7122 70.7804 96.9614C70.7804 99.9407 70.7685 102.932 70.7923 105.911C70.7923 106.409 70.911 106.932 71.1128 107.383C72.8338 111.24 74.5905 115.086 76.3353 118.932C76.454 119.181 76.5608 119.43 76.6914 119.739C75.5757 120.214 74.4481 120.32 73.2967 120.309C70.7923 120.285 68.7626 119.24 67.1484 117.365C65.7003 115.68 63.8724 114.611 61.7003 113.97C62.6855 111.632 63.7181 109.365 64.7151 107.086C64.8813 106.706 64.9763 106.255 64.9763 105.84C65.0119 102.611 65.0119 99.3947 65.0119 96.178ZM70.543 117.745C70.7211 117.721 70.8991 117.721 71.0653 117.674C71.9792 117.46 72.5371 116.866 72.7626 115.964C72.9763 115.062 72.6439 114.315 71.9555 113.757C71.2552 113.187 70.4481 113.104 69.6172 113.484C68.7151 113.899 68.1929 114.884 68.3472 115.869C68.5015 116.843 69.273 117.543 70.543 117.745ZM65.7122 104.997C66.543 106.125 67.8843 106.374 68.9169 105.591C69.9139 104.843 70.0682 103.442 69.2611 102.433C68.5846 101.579 67.3145 101.401 66.3768 102.006C65.4036 102.623 65.1187 103.786 65.7122 104.997ZM67.3857 111.383C67.5994 110.457 67.2552 109.638 66.4955 109.282C65.7359 108.926 64.8576 109.139 64.3709 109.792C63.8605 110.469 63.8843 111.312 64.4303 111.976C65.1424 112.843 66.8041 112.807 67.3857 111.383Z" fill="#63BBE6"/>
<path d="M81.5816 108.332C84.3591 105.151 89.0831 104.772 92.1929 107.454C95.3027 110.137 95.6825 114.801 93.0594 117.947C90.4243 121.104 85.7359 121.543 82.5312 118.932C79.3502 116.356 78.911 111.656 81.5816 108.332ZM91.6944 117.567C91.9555 117.246 92.2404 116.938 92.4778 116.605C94.2226 114.065 93.7359 110.493 91.362 108.439C89.0594 106.433 85.3798 106.469 83.1484 108.522C80.5371 110.908 80.3828 114.825 82.7923 117.448C85.0831 119.929 89.095 120.012 91.6944 117.567Z" fill="#F06175"/>
<path d="M61.2018 114.659C60.5608 116.237 59.8843 117.792 59.184 119.335C57.7478 122.504 56.3234 125.674 54.8754 128.831C53.8308 131.098 53.997 133.234 55.6825 135.11C56.2166 135.703 57.0119 136.059 57.724 136.546C53.997 136.819 51.2552 132.95 52.7626 129.436C53.7596 127.11 54.8398 124.831 55.8843 122.528C57.0237 120.036 58.1751 117.543 59.2671 115.027C59.5044 114.493 59.7893 114.35 60.2997 114.469C60.5727 114.528 60.8694 114.576 61.2018 114.659Z" fill="#F27026"/>
<path d="M64.9525 96.1662C65 99.3947 65.0119 102.611 64.9881 105.828C64.9881 106.243 64.8932 106.694 64.727 107.074C63.73 109.353 62.7092 111.62 61.6766 113.935C61.1068 113.887 60.549 113.792 59.9199 113.685C60.0267 113.424 60.0979 113.234 60.181 113.033C61.0594 111.086 61.9614 109.151 62.816 107.193C62.9822 106.825 63.0772 106.398 63.0772 105.994C63.1009 102.991 63.089 99.9881 63.089 96.9733C63.089 96.1543 63.089 96.1424 63.8843 96.1424C64.2285 96.1543 64.5608 96.1543 64.9525 96.1662Z" fill="#6378E7"/>
<path d="M63.2552 92.8309C65.0475 92.819 66.8398 92.7953 68.6439 92.7834C69.5697 92.7834 70.4956 92.7715 71.4214 92.7834C72.4303 92.7953 72.9763 93.27 72.9881 94.089C73 94.9317 72.4184 95.4303 71.3858 95.4303C68.7389 95.4421 66.092 95.4303 63.3739 95.3947C62.5668 94.4807 62.5549 93.9585 63.2552 92.8309Z" fill="#63BBE6"/>
<path d="M86.4955 124.76C87.7537 124.142 88.9881 124.902 88.9881 126.303C89 129.128 89 131.953 88.9881 134.766C88.9881 136.166 87.9317 136.878 86.5549 136.368C86.9347 135.81 87.1009 135.252 87.089 134.611C87.0653 131.929 87.0653 129.246 87.089 126.564C87.1009 125.875 86.9585 125.27 86.4955 124.76Z" fill="#F38875"/>
<path d="M86.4481 124.772C86.9466 125.27 87.1009 125.875 87.089 126.564C87.0772 129.246 87.0653 131.929 87.089 134.611C87.089 135.252 86.9229 135.81 86.5074 136.344C85.8783 136.059 85.6053 135.537 85.6053 134.872C85.6053 131.988 85.6053 129.104 85.6053 126.22C85.6291 125.591 85.8902 125.116 86.4481 124.772Z" fill="#F36275"/>
<path d="M63.2077 92.819C62.5668 93.9585 62.5786 94.4688 63.3264 95.3828C62.8398 95.3947 62.3175 95.4303 61.819 95.3353C61.178 95.2166 60.7982 94.6231 60.8576 93.9703C60.9169 93.365 61.3798 92.8783 62.0208 92.819C62.3887 92.7953 62.7685 92.819 63.2077 92.819Z" fill="#6377E5"/>
<path d="M70.4956 117.745C69.2849 117.543 68.5015 116.855 68.3472 115.869C68.1929 114.884 68.7151 113.899 69.6172 113.484C70.4481 113.104 71.2552 113.187 71.9555 113.757C72.6439 114.315 72.9763 115.062 72.7626 115.964C72.549 116.855 71.9911 117.46 71.0653 117.674C70.8991 117.709 70.7211 117.721 70.4956 117.745ZM69.0475 115.466C69.0475 116.154 69.3798 116.653 69.997 116.902C70.5668 117.128 71.1246 117.045 71.5994 116.605C72.0979 116.154 72.2285 115.466 71.9436 114.872C71.6588 114.279 71.0772 113.935 70.46 113.994C69.6884 114.065 69.2374 114.504 69.0475 115.466Z" fill="#423B7C"/>
<path d="M65.6884 104.961C65.1187 103.798 65.4036 102.623 66.3769 102.006C67.3264 101.401 68.5846 101.591 69.2611 102.433C70.0683 103.442 69.914 104.831 68.9169 105.591C67.8962 106.374 66.543 106.125 65.6884 104.961ZM68.3116 105.139C68.9881 104.629 69.2137 104.059 69 103.418C68.8101 102.813 68.276 102.41 67.635 102.374C66.9941 102.338 66.4125 102.73 66.1751 103.371C65.9614 103.953 66.1157 104.463 66.5312 104.89C67.0178 105.377 67.5994 105.424 68.3116 105.139Z" fill="#413A7C"/>
<path d="M67.3739 111.43C66.8042 112.807 65.1424 112.843 64.4303 111.976C63.8843 111.312 63.8487 110.481 64.3709 109.792C64.8576 109.139 65.7478 108.938 66.4955 109.282C67.2552 109.638 67.5994 110.457 67.3739 111.43ZM66.7329 110.647C66.6736 110.516 66.638 110.386 66.5668 110.279C66.27 109.852 65.724 109.721 65.2611 109.958C64.8101 110.196 64.6083 110.754 64.7982 111.217C65 111.691 65.5104 111.964 66.0089 111.81C66.5193 111.656 66.7567 111.276 66.7329 110.647Z" fill="#413B7D"/>
<path d="M91.6706 117.591C89.095 120.012 85.095 119.929 82.7923 117.436C80.3828 114.813 80.5371 110.896 83.1484 108.51C85.3917 106.469 89.0593 106.433 91.362 108.427C93.7359 110.481 94.2226 114.053 92.4777 116.593C92.2404 116.938 91.9555 117.246 91.6706 117.591ZM87.2196 107.668C84.1335 107.751 81.7359 110.22 81.7953 113.234C81.8546 116.273 84.3234 118.671 87.4214 118.647C87.8724 118.588 88.3353 118.576 88.7626 118.469C91.4095 117.757 93.1543 115.11 92.7626 112.404C92.3709 109.662 90.0208 107.62 87.2196 107.668Z" fill="#473A77"/>
<path d="M69.0594 115.418C69.2493 114.516 69.7003 114.077 70.4718 114.006C71.089 113.947 71.6825 114.291 71.9555 114.884C72.2404 115.478 72.1098 116.166 71.6113 116.617C71.1484 117.045 70.5786 117.139 70.0089 116.914C69.3798 116.653 69.0594 116.154 69.0594 115.418Z" fill="#9C9C9D"/>
<path d="M68.2641 105.151C67.5994 105.424 67.0178 105.365 66.5311 104.878C66.1157 104.451 65.9614 103.941 66.1751 103.359C66.4124 102.718 66.9822 102.326 67.635 102.362C68.276 102.398 68.8101 102.801 69 103.407C69.2136 104.059 68.9762 104.629 68.2641 105.151Z" fill="#9C9C9D"/>
<path d="M66.7448 110.694C66.7567 111.276 66.5193 111.656 66.0089 111.81C65.5104 111.964 65 111.691 64.7982 111.217C64.6083 110.742 64.8101 110.184 65.2611 109.958C65.724 109.721 66.27 109.852 66.5668 110.279C66.638 110.386 66.6736 110.528 66.7448 110.694Z" fill="#9B9B9D"/>
<path d="M87.3146 118.623C84.3116 118.671 81.8546 116.273 81.7953 113.234C81.7359 110.22 84.1454 107.763 87.3027 107.703C88.3235 108.285 89.2611 108.831 89.7834 109.84C89.4273 110.053 89.0712 110.196 88.8101 110.433C87.8843 111.323 86.9941 112.237 86.0683 113.175C85.9021 113.033 85.7715 112.926 85.641 112.807C84.9881 112.237 84.1573 112.226 83.6232 112.783C83.0653 113.377 83.1009 114.148 83.73 114.789C84.1217 115.181 84.5371 115.549 84.9407 115.917C85.7597 116.677 86.46 116.665 87.2552 115.869C88.4659 114.671 89.6647 113.484 90.8754 112.344C90.9822 113.947 90.6736 115.383 89.724 116.653C89.095 117.519 88.2285 118.101 87.3146 118.623Z" fill="#F6AE24"/>
<path d="M87.3739 118.623C88.2404 118.101 89.095 117.519 89.7359 116.653C90.6855 115.383 90.9941 113.958 90.911 112.309C91.8487 111.347 91.2789 109.804 89.8309 109.804C89.273 108.819 88.3234 108.273 87.362 107.703C90.0208 107.608 92.3709 109.65 92.7745 112.392C93.1662 115.086 91.4214 117.745 88.7745 118.457C88.3353 118.576 87.8724 118.576 87.3739 118.623Z" fill="#F5D024"/>
<path d="M89.7953 109.84C91.2789 109.804 91.8487 111.347 90.911 112.261C89.6884 113.496 88.4778 114.683 87.2671 115.881C86.46 116.677 85.7715 116.688 84.9525 115.929C84.549 115.549 84.1335 115.193 83.7418 114.801C83.1128 114.16 83.0772 113.389 83.635 112.795C84.1573 112.237 85 112.249 85.6528 112.819C85.7834 112.938 85.914 113.045 86.0801 113.187C87.0059 112.261 87.8962 111.335 88.822 110.445C89.0831 110.196 89.4392 110.053 89.7953 109.84ZM89.5816 110.683C88.7389 111.513 87.8961 112.344 87.0534 113.187C86.1513 114.089 86.1513 114.089 85.1306 113.306C84.7864 113.045 84.4303 112.985 84.1217 113.318C83.8368 113.638 83.9199 113.982 84.2166 114.267C84.6439 114.683 85.0712 115.086 85.5104 115.49C85.8902 115.834 86.2819 115.846 86.6617 115.466C87.8843 114.231 89.1187 113.009 90.3531 111.774C90.6024 111.525 90.7686 111.229 90.5312 110.872C90.3175 110.54 90.0208 110.481 89.5816 110.683Z" fill="#433B79"/>
<path d="M89.6291 110.671C90.0208 110.493 90.3294 110.552 90.543 110.884C90.7804 111.24 90.6142 111.525 90.365 111.786C89.1424 113.021 87.908 114.243 86.6736 115.478C86.2938 115.858 85.9139 115.846 85.5223 115.501C85.0831 115.098 84.6558 114.694 84.2285 114.279C83.9318 113.994 83.8487 113.65 84.1335 113.329C84.4303 112.997 84.7982 113.056 85.1424 113.317C86.1632 114.101 86.1632 114.101 87.0653 113.199C87.908 112.356 88.7507 111.525 89.6291 110.671Z" fill="#62B8E4"/>
</g>
<mask id="mask0_2001_41" style="mask-type:luminance" maskUnits="userSpaceOnUse" x="10" y="-59" width="164" height="213">
<path fill-rule="evenodd" clip-rule="evenodd" d="M10.007 153.556H173.993V-58.5563H10.007V153.556Z" fill="white"/>
</mask>
<g mask="url(#mask0_2001_41)">
<path fill-rule="evenodd" clip-rule="evenodd" d="M91.5178 28.7755L117.589 18.2896C119.422 17.5524 121.521 18.4579 122.254 20.3018L131.305 43.0797C132.038 44.9236 131.138 47.0353 129.305 47.7725L103.234 58.2584C101.401 58.9956 99.3018 58.0901 98.5691 56.2461L89.5176 33.4684C88.7849 31.6244 89.6849 29.5126 91.5178 28.7755Z" fill="#231F20"/>
</g>
<mask id="mask1_2001_41" style="mask-type:luminance" maskUnits="userSpaceOnUse" x="10" y="-59" width="164" height="213">
<path fill-rule="evenodd" clip-rule="evenodd" d="M10.007 153.556H173.993V-58.5563H10.007V153.556Z" fill="white"/>
</mask>
<g mask="url(#mask1_2001_41)">
<path fill-rule="evenodd" clip-rule="evenodd" d="M92.1056 30.2546C91.0842 30.6654 90.5795 31.8496 90.9878 32.8771L100.039 55.6549C100.448 56.6824 101.625 57.1902 102.646 56.7794L128.717 46.2935C129.739 45.8827 130.244 44.6985 129.835 43.671L120.784 20.8932C120.375 19.8656 119.198 19.3579 118.177 19.7687L92.1056 30.2546Z" fill="#FF9966"/>
</g>
<mask id="mask2_2001_41" style="mask-type:luminance" maskUnits="userSpaceOnUse" x="10" y="-59" width="164" height="213">
<path fill-rule="evenodd" clip-rule="evenodd" d="M10.007 153.556H173.993V-58.5563H10.007V153.556Z" fill="white"/>
</mask>
<g mask="url(#mask2_2001_41)">
<path fill-rule="evenodd" clip-rule="evenodd" d="M95.7043 34.4109C95.6733 34.3342 95.6373 34.2546 95.6135 34.1941C95.3833 33.6072 95.3068 33.0727 95.4154 32.4436C95.5748 31.5196 96.0907 30.6009 96.9001 30.106C97.7312 29.5978 98.9141 29.514 99.8472 29.735C100.764 29.9521 101.373 30.4621 101.787 31.3046C102.117 31.9747 102.257 32.6723 102.507 33.3648C102.532 33.4363 102.564 33.5256 102.606 33.5899C102.722 33.7712 103.28 33.9802 103.465 34.0505C104.747 34.538 106.122 34.9075 107.436 35.3108C108.038 35.4957 108.764 35.6415 109.068 36.2611C109.187 36.5031 109.294 36.7559 109.406 37.0017C109.541 37.3001 109.68 37.5972 109.819 37.8941C109.925 38.1187 109.983 38.3245 109.939 38.579C109.862 39.0244 109.559 39.2203 109.214 39.433C108.761 39.7129 108.278 39.9983 107.845 40.3063C107.651 40.4438 107.514 40.5608 107.272 40.6245C106.928 40.7149 106.647 40.6186 106.323 40.5209C105.451 40.2573 104.575 40.0008 103.701 39.743C103.248 39.6095 102.793 39.4731 102.335 39.3593C102.079 39.2956 101.739 39.2116 101.475 39.208C101.435 39.2075 101.379 39.2067 101.343 39.2273C101.222 39.296 101.033 39.4887 100.923 39.5839C100.321 40.1031 99.6201 40.5288 98.8625 40.771C97.8766 41.086 96.7434 41.1081 95.8209 40.5875C94.8109 40.0174 94.1428 38.8589 94.1756 37.6913C94.2037 36.6891 94.7376 35.7185 95.3097 34.9264C95.4256 34.7659 95.5458 34.6101 95.6687 34.455C95.6797 34.441 95.6918 34.4262 95.7043 34.4109Z" fill="black"/>
</g>
<mask id="mask3_2001_41" style="mask-type:luminance" maskUnits="userSpaceOnUse" x="10" y="-59" width="164" height="213">
<path fill-rule="evenodd" clip-rule="evenodd" d="M10.007 153.556H173.993V-58.5563H10.007V153.556Z" fill="white"/>
</mask>
<g mask="url(#mask3_2001_41)">
<path fill-rule="evenodd" clip-rule="evenodd" d="M108.614 37.3661C108.469 37.0471 108.361 36.7978 108.288 36.6497C108.215 36.5015 108.177 36.4544 107.182 36.1488C106.186 35.8432 104.232 35.279 103.157 34.87C102.081 34.4609 101.883 34.2069 101.688 33.6632C101.492 33.1194 101.298 32.2858 101.007 31.6931C100.715 31.1004 100.326 30.7485 99.6476 30.5879C98.9691 30.4272 98.0014 30.4578 97.3525 30.8547C96.7034 31.2515 96.3733 32.0146 96.2734 32.5934C96.1736 33.1724 96.3038 33.5671 96.4236 33.8726C96.5434 34.178 96.6528 34.3942 96.6146 34.5798C96.5765 34.7653 96.3907 34.9201 96.0142 35.4414C95.6377 35.9627 95.0705 36.8505 95.0461 37.7161C95.0219 38.5816 95.5407 39.4247 96.2469 39.8234C96.9533 40.222 97.8475 40.1761 98.5988 39.936C99.35 39.6959 99.9587 39.2617 100.356 38.9188C100.754 38.576 100.94 38.3245 101.486 38.332C102.033 38.3394 102.94 38.6056 103.946 38.9023C104.952 39.1989 106.058 39.5259 106.574 39.6818C107.09 39.8377 107.016 39.8223 107.342 39.5905C107.669 39.3586 108.396 38.9103 108.759 38.6861C109.123 38.4619 109.123 38.4619 109.032 38.2677C108.941 38.0735 108.759 37.6849 108.614 37.3661Z" fill="#B9E8FA"/>
</g>
<mask id="mask4_2001_41" style="mask-type:luminance" maskUnits="userSpaceOnUse" x="10" y="-59" width="164" height="213">
<path fill-rule="evenodd" clip-rule="evenodd" d="M10.007 153.556H173.993V-58.5563H10.007V153.556Z" fill="white"/>
</mask>
<g mask="url(#mask4_2001_41)">
<path fill-rule="evenodd" clip-rule="evenodd" d="M113.515 39.6606C113.353 39.4234 113.19 39.1864 113.028 38.9492C112.979 38.8776 112.929 38.8054 112.885 38.7306C112.717 38.4436 112.698 38.1021 112.894 37.8158C113.089 37.5318 113.375 37.4472 113.693 37.4701C114.177 37.505 114.687 37.6339 115.156 37.7542C116.299 38.0476 117.438 38.3878 118.572 38.7137C118.972 38.8284 119.748 39.0871 120.161 39.0878C120.416 39.0884 120.64 38.9481 120.849 38.8139C121.372 38.4778 121.857 38.092 122.394 37.7697C122.917 37.4554 123.531 37.1701 124.138 37.0805C124.745 36.9911 125.274 37.1119 125.789 37.443C126.274 37.7541 126.711 38.2202 127.038 38.6934C127.391 39.2047 127.679 39.819 127.719 40.4477C127.765 41.1654 127.48 41.7923 126.971 42.2899C126.54 42.7123 126.034 42.9832 125.537 43.3108C125.564 43.3768 125.593 43.4422 125.614 43.4949C125.721 43.7671 125.812 44.0382 125.873 44.3251C126.008 44.9638 126.027 45.8142 125.79 46.4244C125.505 47.1572 124.918 47.4468 124.187 47.584C123.574 47.6992 122.778 47.7482 122.165 47.6384C121.543 47.5268 121.083 47.247 120.694 46.7543C120.405 46.3892 120.186 45.9632 120.013 45.5319C119.867 45.1666 119.753 44.7904 119.546 44.4528C119.279 44.0194 118.903 43.7361 118.457 43.5045C117.72 43.1218 116.73 42.8246 115.92 42.6378C115.257 42.4851 114.599 42.4209 113.942 42.2841C113.554 42.2032 113.141 42.0742 112.789 41.8855C112.537 41.7499 112.352 41.5547 112.298 41.2575C112.244 40.9563 112.356 40.6847 112.565 40.4756C112.636 40.4046 112.715 40.3396 112.792 40.2748C113.033 40.0708 113.274 39.8658 113.515 39.6606Z" fill="black"/>
</g>
<mask id="mask5_2001_41" style="mask-type:luminance" maskUnits="userSpaceOnUse" x="10" y="-59" width="164" height="213">
<path fill-rule="evenodd" clip-rule="evenodd" d="M10.007 153.556H173.993V-58.5563H10.007V153.556Z" fill="white"/>
</mask>
<g mask="url(#mask5_2001_41)">
<path fill-rule="evenodd" clip-rule="evenodd" d="M120.738 45.2374C120.585 44.8574 120.466 44.4554 120.21 44.0393C119.955 43.6233 119.563 43.1934 118.815 42.8056C118.068 42.4178 116.966 42.0723 116.094 41.8713C115.222 41.6704 114.58 41.6139 114.101 41.5141C113.621 41.4142 113.305 41.2709 113.158 41.1918C113.01 41.1128 113.033 41.0981 113.294 40.877C113.556 40.6559 114.058 40.2282 114.308 40.0145C114.559 39.8007 114.559 39.8007 114.382 39.5413C114.204 39.2819 113.85 38.763 113.672 38.5035C113.495 38.2442 113.495 38.2442 113.637 38.2544C113.779 38.2646 114.063 38.2852 114.963 38.5161C115.862 38.7469 117.377 39.1882 118.358 39.4698C119.338 39.7514 119.784 39.8734 120.159 39.8741C120.534 39.8749 120.838 39.7542 121.27 39.4766C121.702 39.1991 122.262 38.7645 122.794 38.4448C123.327 38.1253 123.83 37.9206 124.252 37.8585C124.673 37.7963 125.012 37.8767 125.369 38.1058C125.726 38.3347 126.1 38.7126 126.396 39.1419C126.692 39.571 126.911 40.0519 126.939 40.4979C126.967 40.9439 126.806 41.3552 126.427 41.7261C126.048 42.0969 125.451 42.4272 125.1 42.6589C124.749 42.8905 124.645 43.0237 124.706 43.2878C124.767 43.552 124.994 43.9474 125.108 44.4887C125.223 45.0302 125.225 45.7175 125.062 46.1381C124.899 46.5586 124.569 46.7124 124.044 46.811C123.519 46.9096 122.798 46.9531 122.302 46.8642C121.806 46.7754 121.534 46.5543 121.305 46.2648C121.076 45.9753 120.89 45.6174 120.738 45.2374Z" fill="#B9E8FA"/>
</g>
<mask id="mask6_2001_41" style="mask-type:luminance" maskUnits="userSpaceOnUse" x="10" y="-59" width="164" height="213">
<path fill-rule="evenodd" clip-rule="evenodd" d="M10.007 153.556H173.993V-58.5563H10.007V153.556Z" fill="white"/>
</mask>
<g mask="url(#mask6_2001_41)">
<path fill-rule="evenodd" clip-rule="evenodd" d="M110.75 43.4885C111.202 43.3506 111.684 43.6098 111.821 44.0646L113.014 48.0257C113.152 48.4806 112.894 48.9654 112.442 49.1033C111.99 49.2412 111.508 48.9819 111.371 48.5272L110.177 44.5659C110.04 44.1111 110.298 43.6263 110.75 43.4885Z" fill="#231F20"/>
</g>
<mask id="mask7_2001_41" style="mask-type:luminance" maskUnits="userSpaceOnUse" x="10" y="-59" width="164" height="213">
<path fill-rule="evenodd" clip-rule="evenodd" d="M10.007 153.556H173.993V-58.5563H10.007V153.556Z" fill="white"/>
</mask>
<g mask="url(#mask7_2001_41)">
<path fill-rule="evenodd" clip-rule="evenodd" d="M108.036 42.7054C107.657 42.422 107.116 42.502 106.834 42.8834L104.38 46.2054C104.098 46.5868 104.178 47.1308 104.557 47.4142C104.936 47.6977 105.476 47.6177 105.758 47.2363L108.213 43.9143C108.495 43.5329 108.415 42.989 108.036 42.7054Z" fill="#231F20"/>
</g>
<mask id="mask8_2001_41" style="mask-type:luminance" maskUnits="userSpaceOnUse" x="10" y="-59" width="164" height="213">
<path fill-rule="evenodd" clip-rule="evenodd" d="M10.007 153.556H173.993V-58.5563H10.007V153.556Z" fill="white"/>
</mask>
<g mask="url(#mask8_2001_41)">
<path fill-rule="evenodd" clip-rule="evenodd" d="M57.7892 24.1958H71.3301V48.838C71.3301 52.3039 68.5151 55.136 65.0699 55.136H64.0494C60.6042 55.136 57.7892 52.3039 57.7892 48.838V24.1958Z" fill="black"/>
</g>
<mask id="mask9_2001_41" style="mask-type:luminance" maskUnits="userSpaceOnUse" x="10" y="-59" width="164" height="213">
<path fill-rule="evenodd" clip-rule="evenodd" d="M10.007 153.556H173.993V-58.5563H10.007V153.556Z" fill="white"/>
</mask>
<g mask="url(#mask9_2001_41)">
<path fill-rule="evenodd" clip-rule="evenodd" d="M70.2657 26.8535V48.838C70.2657 51.713 67.9276 54.0652 65.0699 54.0652H64.0494C61.1917 54.0652 58.8536 51.713 58.8536 48.838V26.8535H70.2657Z" fill="#B9E8FA"/>
</g>
<mask id="mask10_2001_41" style="mask-type:luminance" maskUnits="userSpaceOnUse" x="10" y="-59" width="164" height="213">
<path fill-rule="evenodd" clip-rule="evenodd" d="M10.007 153.556H173.993V-58.5563H10.007V153.556Z" fill="white"/>
</mask>
<g mask="url(#mask10_2001_41)">
<path fill-rule="evenodd" clip-rule="evenodd" d="M70.2657 42.0975V48.838C70.2657 51.713 67.9276 54.0652 65.0699 54.0652H64.0494C61.1917 54.0652 58.8536 51.713 58.8536 48.838V40.5354C59.2742 40.3176 59.7081 40.1488 60.137 40.0421C61.6525 39.665 63.1061 40.0622 64.2813 40.5911C65.4565 41.12 66.3533 41.7808 67.9306 42.0178C68.6213 42.1216 69.4425 42.1442 70.2657 42.0975Z" fill="#BE262C"/>
</g>
<mask id="mask11_2001_41" style="mask-type:luminance" maskUnits="userSpaceOnUse" x="10" y="-59" width="164" height="213">
<path fill-rule="evenodd" clip-rule="evenodd" d="M10.007 153.556H173.993V-58.5563H10.007V153.556Z" fill="white"/>
</mask>
<g mask="url(#mask11_2001_41)">
<path fill-rule="evenodd" clip-rule="evenodd" d="M70.2657 42.0975V48.838C70.2657 51.0207 68.9178 52.9017 67.0182 53.6812V41.8175C67.2983 41.8996 67.5994 41.968 67.9306 42.0178C68.6213 42.1216 69.4425 42.1442 70.2657 42.0975Z" fill="#981A1D"/>
</g>
<mask id="mask12_2001_41" style="mask-type:luminance" maskUnits="userSpaceOnUse" x="10" y="-59" width="164" height="213">
<path fill-rule="evenodd" clip-rule="evenodd" d="M10.007 153.556H173.993V-58.5563H10.007V153.556Z" fill="white"/>
</mask>
<g mask="url(#mask12_2001_41)">
<path fill-rule="evenodd" clip-rule="evenodd" d="M70.2657 45.3777V48.838C70.2657 51.713 67.9276 54.0652 65.0699 54.0652H64.0494C61.1917 54.0652 58.8536 51.713 58.8536 48.838V43.5274C59.2406 45.2034 59.4874 46.4697 59.8819 47.5442C60.3844 48.9132 61.1267 49.9711 62.2709 50.5467C63.4153 51.1223 64.9616 51.2156 66.1368 50.8267C67.3121 50.4378 68.1161 49.5666 68.7424 48.5931C69.2573 47.7929 69.6519 46.9233 70.2657 45.3777Z" fill="#ED1C24"/>
</g>
<mask id="mask13_2001_41" style="mask-type:luminance" maskUnits="userSpaceOnUse" x="10" y="-59" width="164" height="213">
<path fill-rule="evenodd" clip-rule="evenodd" d="M10.007 153.556H173.993V-58.5563H10.007V153.556Z" fill="white"/>
</mask>
<g mask="url(#mask13_2001_41)">
<path fill-rule="evenodd" clip-rule="evenodd" d="M60.3068 16.7072H69.2417C71.6453 16.7072 73.6081 18.6819 73.6081 21.1V26.2513C73.6081 27.5114 72.5871 28.5385 71.3347 28.5385H58.2138C56.9613 28.5385 55.9403 27.5114 55.9403 26.2513V21.1C55.9403 18.6819 57.9032 16.7072 60.3068 16.7072Z" fill="black"/>
</g>
<mask id="mask14_2001_41" style="mask-type:luminance" maskUnits="userSpaceOnUse" x="10" y="-59" width="164" height="213">
<path fill-rule="evenodd" clip-rule="evenodd" d="M10.007 153.556H173.993V-58.5563H10.007V153.556Z" fill="white"/>
</mask>
<g mask="url(#mask14_2001_41)">
<path fill-rule="evenodd" clip-rule="evenodd" d="M60.3068 17.7644H69.2417C71.0653 17.7644 72.5573 19.2654 72.5573 21.1V26.2513C72.5573 26.9279 72.0071 27.4813 71.3347 27.4813H58.2138C57.5413 27.4813 56.9912 26.9279 56.9912 26.2513V21.1C56.9912 19.2654 58.4832 17.7644 60.3068 17.7644Z" fill="#937BAB"/>
</g>
<mask id="mask15_2001_41" style="mask-type:luminance" maskUnits="userSpaceOnUse" x="10" y="-59" width="164" height="213">
<path fill-rule="evenodd" clip-rule="evenodd" d="M10.007 153.556H173.993V-58.5563H10.007V153.556Z" fill="white"/>
</mask>
<g mask="url(#mask15_2001_41)">
<path fill-rule="evenodd" clip-rule="evenodd" d="M68.8217 39.9883C68.5905 39.8816 68.2626 39.744 67.8843 39.6838C67.506 39.6236 67.0773 39.6406 66.6486 39.7128C66.2199 39.7848 65.7911 39.9119 65.459 40.0447C65.127 40.1775 64.8917 40.3159 64.7739 40.3851C64.6562 40.4543 64.6562 40.4543 65.2858 40.6974C65.9152 40.9405 67.1743 41.4267 68.0743 41.6157C68.9744 41.8048 69.5157 41.6965 69.7983 41.5238C70.0809 41.3511 70.1049 41.1139 69.9824 40.8902C69.8599 40.6665 69.5909 40.4563 69.3891 40.3134C69.1873 40.1704 69.0528 40.0948 68.8217 39.9883Z" fill="#BE262C" stroke="#BE262C" stroke-width="0.288" stroke-miterlimit="22.9256"/>
</g>
<mask id="mask16_2001_41" style="mask-type:luminance" maskUnits="userSpaceOnUse" x="10" y="-59" width="164" height="213">
<path fill-rule="evenodd" clip-rule="evenodd" d="M10.007 153.556H173.993V-58.5563H10.007V153.556Z" fill="white"/>
</mask>
<g mask="url(#mask16_2001_41)">
<path fill-rule="evenodd" clip-rule="evenodd" d="M93.8983 18.7806H78.264C77.0188 18.7806 76 19.8055 76 21.0582V22.1134C76 23.3662 77.0188 24.3911 78.264 24.3911H79.1103C79.2044 26.3842 79.2782 28.3788 79.3792 30.3714C79.3919 30.6215 79.4171 30.9116 79.3906 31.1605C79.3574 31.4728 79.194 31.8075 79.0553 32.0834C78.6248 32.9399 78.1038 33.7931 77.6197 34.6209C74.9523 39.1831 72.2724 43.7436 69.5601 48.2786C68.9906 49.2308 68.4186 50.1823 67.8342 51.1253C67.679 51.3758 67.492 51.6496 67.362 51.9135C67.3457 51.9467 67.3301 51.9802 67.3149 52.014C67.0733 52.5543 66.8626 53.2763 66.8806 53.8708C66.9072 54.7562 67.4025 55.3936 68.1618 55.7993C68.7196 56.0975 69.3513 56.1683 69.972 56.2208C71.6794 56.3652 73.488 56.3526 75.201 56.3588C78.7983 56.3719 82.3993 56.3351 85.9965 56.2967C89.4934 56.2594 92.9902 56.2132 96.4869 56.1594C98.3074 56.1314 100.178 56.1331 101.995 56.02C102.693 55.9765 103.549 55.924 104.141 55.5095C105.094 54.8425 105.101 53.7059 104.773 52.6945C104.598 52.1545 104.323 51.6417 104.053 51.1453C103.399 49.9464 102.705 48.7609 102.026 47.5761C99.4945 43.1599 96.9611 38.7437 94.4492 34.3163C94.0073 33.5376 93.5375 32.7399 93.1435 31.9363C92.9899 31.623 92.834 31.283 92.7799 30.935C92.7315 30.6243 92.7414 30.2726 92.7414 29.9584C92.7414 28.1079 92.7287 26.2429 92.7698 24.3911H93.8983C95.1435 24.3911 96.1622 23.3662 96.1622 22.1134V21.0582C96.1622 19.8055 95.1435 18.7806 93.8983 18.7806Z" fill="black"/>
</g>
<mask id="mask17_2001_41" style="mask-type:luminance" maskUnits="userSpaceOnUse" x="10" y="-59" width="164" height="213">
<path fill-rule="evenodd" clip-rule="evenodd" d="M10.007 153.556H173.993V-58.5563H10.007V153.556Z" fill="white"/>
</mask>
<g mask="url(#mask17_2001_41)">
<path d="M80.1468 24.2803C80.2325 26.0886 80.3469 28.9083 80.4185 30.318C80.4899 31.7279 80.5186 31.7279 78.5166 35.1518C76.5147 38.5756 72.4822 45.4233 70.4517 48.8183C68.4211 52.2135 68.3926 52.1559 68.2639 52.4436C68.1352 52.7314 67.9064 53.3644 67.9206 53.8391C67.935 54.3138 68.1924 54.6303 68.6499 54.8749C69.1075 55.1195 69.7653 55.2921 75.2048 55.3119C80.6443 55.3318 90.8655 55.199 96.4709 55.1127C102.076 55.0264 103.066 54.9866 103.546 54.6502C104.027 54.3138 103.998 53.6808 103.784 53.019C103.569 52.3573 103.169 51.6668 101.124 48.0991C99.0794 44.5313 95.3901 38.0865 93.5454 34.8352C91.7008 31.584 91.7008 31.5265 91.7008 29.9584C91.7008 28.3903 91.7008 25.3117 91.7437 23.8013C91.7866 22.2907 91.8724 22.3483 89.9133 22.1224C87.9543 21.8965 83.9504 21.3871 81.9771 21.531C80.0038 21.6748 80.061 22.4719 80.1468 24.2803Z" stroke="#231F20" stroke-width="0.755867" stroke-miterlimit="22.9256"/>
</g>
<mask id="mask18_2001_41" style="mask-type:luminance" maskUnits="userSpaceOnUse" x="10" y="-59" width="164" height="213">
<path fill-rule="evenodd" clip-rule="evenodd" d="M10.007 153.556H173.993V-58.5563H10.007V153.556Z" fill="white"/>
</mask>
<g mask="url(#mask18_2001_41)">
<path fill-rule="evenodd" clip-rule="evenodd" d="M80.1515 24.3809C80.2368 26.1917 80.3482 28.9341 80.4185 30.318C80.49 31.7279 80.5185 31.7279 78.5166 35.1518C77.846 36.2988 76.9473 37.8301 75.9724 39.4872C76.2053 39.3936 76.4726 39.281 76.7265 39.1615C77.1891 38.9439 77.6069 38.7037 78.1962 38.5385C78.7856 38.3734 79.5467 38.2834 80.4643 38.2759C81.3819 38.2684 82.4563 38.3434 83.3889 38.6511C84.3215 38.9589 85.1123 39.4993 85.5226 39.8445C85.9329 40.1898 85.9628 40.3399 86.0374 40.3474C86.112 40.3549 86.2314 40.2198 86.4328 40.0397C86.6342 39.8596 86.9177 39.6344 87.3877 39.3416C87.8578 39.0489 88.5143 38.6887 89.3723 38.456C90.2303 38.2233 91.2897 38.1182 92.2222 38.1708C93.1548 38.2233 93.9606 38.4335 95.3184 39.0639C95.5917 39.1908 95.8874 39.3348 96.196 39.487C95.1767 37.7024 94.2329 36.047 93.5455 34.8352C91.7008 31.584 91.7008 31.5265 91.7008 29.9584C91.7008 28.571 91.7008 26.0009 91.7305 24.3809H80.1515Z" fill="#B9E8FA" stroke="#231F20" stroke-width="0.755867" stroke-miterlimit="22.9256"/>
</g>
<mask id="mask19_2001_41" style="mask-type:luminance" maskUnits="userSpaceOnUse" x="10" y="-59" width="164" height="213">
<path fill-rule="evenodd" clip-rule="evenodd" d="M10.007 153.556H173.993V-58.5563H10.007V153.556Z" fill="white"/>
</mask>
<g mask="url(#mask19_2001_41)">
<path fill-rule="evenodd" clip-rule="evenodd" d="M97.2188 41.2768C96.0648 40.6974 95.0595 40.2828 94.1764 39.9949C92.8862 39.5743 91.8567 39.4242 90.9688 39.4617C90.081 39.4993 89.3349 39.7245 88.4173 40.2799C87.4996 40.8353 86.4104 41.721 85.336 42.419C84.2618 43.117 83.2024 43.6275 81.9191 43.8226C80.6358 44.0177 79.1289 43.8976 77.9501 43.5899C76.7713 43.2821 75.9207 42.7868 74.9434 41.9461C74.8524 41.8678 74.7602 41.7865 74.6676 41.703C73.0988 44.3639 71.5056 47.0562 70.4517 48.8183C68.4211 52.2135 68.3926 52.1559 68.2639 52.4436C68.1351 52.7313 67.9064 53.3644 67.9206 53.8391C67.935 54.3138 68.1924 54.6304 68.6499 54.8749C69.1075 55.1195 69.7653 55.2921 75.2048 55.3119C80.6443 55.3318 90.8655 55.199 96.4709 55.1126C102.076 55.0264 103.066 54.9866 103.546 54.6502C104.027 54.3138 103.998 53.6808 103.784 53.019C103.569 52.3573 103.169 51.6668 101.124 48.0991C100.092 46.2979 98.6404 43.7635 97.2188 41.2768Z" fill="#F4BC65" stroke="#231F20" stroke-width="0.755867" stroke-miterlimit="22.9256"/>
</g>
<mask id="mask20_2001_41" style="mask-type:luminance" maskUnits="userSpaceOnUse" x="10" y="-59" width="164" height="213">
<path fill-rule="evenodd" clip-rule="evenodd" d="M10.007 153.556H173.993V-58.5563H10.007V153.556Z" fill="white"/>
</mask>
<g mask="url(#mask20_2001_41)">
<path fill-rule="evenodd" clip-rule="evenodd" d="M83.0009 39.9046C82.5906 39.7395 82.0087 39.5293 81.3372 39.4617C80.6658 39.3942 79.9048 39.4692 79.1438 39.6419C78.3828 39.8145 77.6218 40.0847 77.0324 40.3549C76.443 40.6251 76.0252 40.8953 75.8163 41.0304C75.6074 41.1655 75.6074 41.1655 75.7939 41.2931C75.9804 41.4207 76.3535 41.6759 77.2338 41.9837C78.1142 42.2914 79.5019 42.6517 80.6285 42.7267C81.755 42.8018 82.6204 42.5916 83.3068 42.3289C83.9932 42.0662 84.5005 41.751 84.8064 41.5783C85.1123 41.4057 85.2167 41.3757 85.0302 41.1881C84.8437 41.0004 84.3663 40.6551 84.0081 40.4225C83.65 40.1898 83.4113 40.0697 83.0009 39.9046Z" fill="#ED9EA1" stroke="#231F20" stroke-width="0.755867" stroke-miterlimit="22.9256"/>
</g>
<mask id="mask21_2001_41" style="mask-type:luminance" maskUnits="userSpaceOnUse" x="10" y="-59" width="164" height="213">
<path fill-rule="evenodd" clip-rule="evenodd" d="M10.007 153.556H173.993V-58.5563H10.007V153.556Z" fill="white"/>
</mask>
<g mask="url(#mask21_2001_41)">
<path fill-rule="evenodd" clip-rule="evenodd" d="M89.1485 27.1149C88.3977 27.1149 87.7831 27.733 87.7831 28.4884V31.731C87.7831 32.4863 88.3976 33.1044 89.1484 33.1044C89.8993 33.1044 90.5137 32.4863 90.5137 31.731V28.4884C90.5137 27.733 89.8994 27.1149 89.1485 27.1149Z" fill="white" stroke="white" stroke-width="0.755867" stroke-miterlimit="22.9256"/>
</g>
<mask id="mask22_2001_41" style="mask-type:luminance" maskUnits="userSpaceOnUse" x="10" y="-59" width="164" height="213">
<path fill-rule="evenodd" clip-rule="evenodd" d="M10.007 153.556H173.993V-58.5563H10.007V153.556Z" fill="white"/>
</mask>
<g mask="url(#mask22_2001_41)">
<path fill-rule="evenodd" clip-rule="evenodd" d="M93.8982 19.9027H78.264C77.6322 19.9027 77.1153 20.4226 77.1153 21.0583V22.1133C77.1153 22.7489 77.6322 23.2689 78.264 23.2689H93.8982C94.53 23.2689 95.0469 22.7489 95.0469 22.1133V21.0583C95.0469 20.4226 94.53 19.9027 93.8982 19.9027Z" fill="white"/>
</g>
<mask id="mask23_2001_41" style="mask-type:luminance" maskUnits="userSpaceOnUse" x="10" y="-59" width="164" height="213">
<path fill-rule="evenodd" clip-rule="evenodd" d="M10.007 153.556H173.993V-58.5563H10.007V153.556Z" fill="white"/>
</mask>
<g mask="url(#mask23_2001_41)">
<path fill-rule="evenodd" clip-rule="evenodd" d="M85.5672 20.8778H78.573C78.2904 20.8778 78.0591 21.1104 78.0591 21.3947V21.8667C78.0591 22.1511 78.2904 22.3837 78.573 22.3837H85.5672C85.8499 22.3837 86.0811 22.1511 86.0811 21.8667V21.3947C86.0811 21.1104 85.8499 20.8778 85.5672 20.8778Z" fill="#B9E8FA" stroke="#B9E8FA" stroke-width="0.755867" stroke-miterlimit="22.9256"/>
</g>
<mask id="mask24_2001_41" style="mask-type:luminance" maskUnits="userSpaceOnUse" x="10" y="-59" width="164" height="213">
<path fill-rule="evenodd" clip-rule="evenodd" d="M10.007 153.556H173.993V-58.5563H10.007V153.556Z" fill="white"/>
</mask>
<g mask="url(#mask24_2001_41)">
<path fill-rule="evenodd" clip-rule="evenodd" d="M88.2827 49.9901C87.2801 49.9901 86.4673 50.564 86.4673 51.2718C86.4673 51.9797 87.2801 52.5536 88.2827 52.5536C89.2854 52.5536 90.0982 51.9797 90.0982 51.2718C90.0982 50.564 89.2854 49.9901 88.2827 49.9901Z" fill="#8456B3" stroke="#8456B3" stroke-width="0.288" stroke-miterlimit="22.9256"/>
</g>
<mask id="mask25_2001_41" style="mask-type:luminance" maskUnits="userSpaceOnUse" x="10" y="-59" width="164" height="213">
<path fill-rule="evenodd" clip-rule="evenodd" d="M10.007 153.556H173.993V-58.5563H10.007V153.556Z" fill="white"/>
</mask>
<g mask="url(#mask25_2001_41)">
<path fill-rule="evenodd" clip-rule="evenodd" d="M124.785 55.8487V55.7053C124.785 54.4903 125.77 53.4994 126.977 53.4994H127.065V49.2893C127.065 48.0743 128.05 47.0834 129.257 47.0834H135.371C136.578 47.0834 137.563 48.0743 137.563 49.2893V53.4994H138.807C140.015 53.4994 141 54.4903 141 55.7053V61.0576C141 62.2726 140.015 63.2636 138.807 63.2636H137.563V72.4603C137.563 73.6753 136.578 74.6663 135.371 74.6663H129.257C128.05 74.6663 127.065 73.6753 127.065 72.4603V67.7015C126.749 67.8803 126.385 67.9821 125.998 67.9841V71.4962C125.998 72.315 125.589 73.0176 124.88 73.419C122.688 74.6593 120.109 75.032 117.626 75.032C114.549 75.032 111.688 74.19 109.364 72.1161C109.352 72.1059 109.343 72.0971 109.331 72.0866C107.08 69.996 106.055 67.274 106.049 64.2118L100.533 74.7513C100.143 75.4954 99.4259 75.9304 98.59 75.9295C97.7541 75.9287 97.0378 75.4921 96.65 74.7472L87.3395 56.8651C87.3164 56.9022 87.292 56.939 87.2666 56.9754L82.5784 63.6733L87.9175 71.1762C88.4081 71.8656 88.4701 72.7147 88.0848 73.4687C87.6997 74.2227 86.9773 74.6663 86.1347 74.6663H79.4597C78.735 74.6663 78.1117 74.3467 77.6857 73.757L76.3865 71.958L75.0873 73.757C74.6614 74.3467 74.038 74.6663 73.3134 74.6663H66.6385C65.7958 74.6663 65.0735 74.2227 64.6882 73.4687C64.3521 72.8105 64.3565 72.0798 64.6893 71.4464C61.895 73.869 58.2247 74.6663 54.5773 74.6663H45.1926C43.985 74.6663 43 73.6753 43 72.4603V49.2893C43 48.0743 43.985 47.0834 45.1926 47.0834H54.5442C58.5122 47.0834 62.3868 48.0533 65.254 50.9601C66.0341 51.7511 66.6846 52.6007 67.2151 53.5009C67.243 53.4998 67.2712 53.4993 67.2993 53.4993H73.9412C74.6769 53.4993 75.3097 53.8295 75.7336 54.4345L76.3865 55.3666L77.0394 54.4345C77.4632 53.8295 78.0961 53.4993 78.8318 53.4993H85.4737C85.5122 53.4993 85.5504 53.5003 85.5884 53.5021L83.9278 50.3128C83.5617 49.6093 83.5856 48.8267 83.9942 48.1472C84.4028 47.4678 85.0809 47.0833 85.8702 47.0833H92.6443C93.4913 47.0833 94.217 47.5317 94.6 48.2916L98.603 56.2343L102.655 48.2828C103.04 47.5277 103.763 47.0833 104.606 47.0833H111.38C112.171 47.0833 112.849 47.4687 113.258 48.1492C113.666 48.8298 113.689 49.6136 113.321 50.317L110.981 54.7874C112.865 53.6189 115.027 53.1004 117.328 53.1004C120.169 53.1004 122.712 53.9503 124.785 55.8487ZM69.0618 62.0547C68.9637 63.6673 68.6489 65.2101 68.078 66.6478L70.1947 63.6733L69.0618 62.0547ZM53.6639 57.4792V64.5364H54.1808C54.9466 64.5364 57.1682 64.4241 57.6836 63.6982C57.7001 63.6751 57.7145 63.6556 57.7317 63.633C58.362 62.811 58.3987 61.9376 58.3987 60.9246C58.3987 59.9996 58.374 59.1072 57.7708 58.3655C57.1361 57.5851 55.0354 57.4792 54.1478 57.4792H53.6639Z" fill="black"/>
</g>
<mask id="mask26_2001_41" style="mask-type:luminance" maskUnits="userSpaceOnUse" x="10" y="-59" width="164" height="213">
<path fill-rule="evenodd" clip-rule="evenodd" d="M10.007 153.556H173.993V-58.5563H10.007V153.556Z" fill="white"/>
</mask>
<g mask="url(#mask26_2001_41)">
<path d="M54.5773 72.4603C58.5757 72.4603 61.6488 71.4297 63.7306 69.3354C65.8454 67.241 66.9028 64.4486 66.9028 60.9246C66.9028 57.4673 65.8454 54.6748 63.6975 52.514C61.5827 50.3531 58.5426 49.2893 54.5443 49.2893H45.1927V72.4603H54.5773ZM51.4712 55.2732H54.1478C56.8243 55.2732 58.5757 55.8716 59.4678 56.9687C60.3601 58.0657 60.5914 59.2293 60.5914 60.9246C60.5914 62.6534 60.3601 63.8169 59.4678 64.9804C58.6417 66.144 56.8243 66.7424 54.1808 66.7424H51.4712V55.2732ZM73.3134 72.4603L76.3865 68.2051L79.4596 72.4603H86.1347L79.8892 63.6839L85.4738 55.7054H78.8318L76.3865 59.196L73.9412 55.7054H67.2994L72.8838 63.6839L66.6385 72.4603H73.3134Z" fill="#937BAB"/>
</g>
<mask id="mask27_2001_41" style="mask-type:luminance" maskUnits="userSpaceOnUse" x="10" y="-59" width="164" height="213">
<path fill-rule="evenodd" clip-rule="evenodd" d="M10.007 153.556H173.993V-58.5563H10.007V153.556Z" fill="white"/>
</mask>
<g mask="url(#mask27_2001_41)">
<path d="M111.38 49.2893H104.606L98.5923 61.0909L92.6443 49.2893H85.8703L98.5923 73.7236L111.38 49.2893ZM108.241 64.1826C108.241 66.7756 109.1 68.87 110.819 70.4657C112.57 72.0281 114.817 72.826 117.626 72.826C120.17 72.826 122.219 72.3939 123.805 71.4963V66.6427C122.12 67.3741 120.203 67.7396 117.989 67.7396C115.841 67.7396 114.388 66.9751 114.354 65.7783H125.986C126.052 65.1799 126.085 64.5483 126.085 63.9166C126.085 61.4898 125.259 59.4287 123.64 57.7998C122.021 56.1375 119.939 55.3065 117.328 55.3065C114.685 55.3065 112.504 56.1043 110.786 57.7C109.1 59.2957 108.241 61.3901 108.241 64.0164V64.1826ZM114.354 62.055C114.454 60.9579 115.742 59.9939 117.328 59.9939C118.815 59.9939 120.038 60.9911 120.038 62.055H114.354ZM135.371 72.4603V61.0577H138.807V55.7054H135.371V49.2893H129.257V55.7054H126.977V61.0577H129.257V72.4603H135.371Z" fill="#ED9EA1"/>
</g>
<mask id="mask28_2001_41" style="mask-type:luminance" maskUnits="userSpaceOnUse" x="10" y="-59" width="164" height="213">
<path fill-rule="evenodd" clip-rule="evenodd" d="M10.007 153.556H173.993V-58.5563H10.007V153.556Z" fill="white"/>
</mask>
<g mask="url(#mask28_2001_41)">
<path fill-rule="evenodd" clip-rule="evenodd" d="M113.969 22.7013L118.972 20.7828L119.097 21.1139L114.095 23.0323L113.969 22.7013Z" fill="#B9E8FA" stroke="#B9E8FA" stroke-width="0.288" stroke-miterlimit="22.9256"/>
</g>
<mask id="mask29_2001_41" style="mask-type:luminance" maskUnits="userSpaceOnUse" x="10" y="-59" width="164" height="213">
<path fill-rule="evenodd" clip-rule="evenodd" d="M10.007 153.556H173.993V-58.5563H10.007V153.556Z" fill="white"/>
</mask>
<g mask="url(#mask29_2001_41)">
<path fill-rule="evenodd" clip-rule="evenodd" d="M114.279 23.518L119.281 21.5996L119.407 21.9306L114.404 23.8491L114.279 23.518Z" fill="#B9E8FA" stroke="#B9E8FA" stroke-width="0.288" stroke-miterlimit="22.9256"/>
</g>
<mask id="mask30_2001_41" style="mask-type:luminance" maskUnits="userSpaceOnUse" x="10" y="-59" width="164" height="213">
<path fill-rule="evenodd" clip-rule="evenodd" d="M10.007 153.556H173.993V-58.5563H10.007V153.556Z" fill="white"/>
</mask>
<g mask="url(#mask30_2001_41)">
<path fill-rule="evenodd" clip-rule="evenodd" d="M114.609 24.3899L119.612 22.4715L119.737 22.8025L114.734 24.721L114.609 24.3899Z" fill="#B9E8FA" stroke="#B9E8FA" stroke-width="0.288" stroke-miterlimit="22.9256"/>
</g>
<mask id="mask31_2001_41" style="mask-type:luminance" maskUnits="userSpaceOnUse" x="10" y="-59" width="164" height="213">
<path fill-rule="evenodd" clip-rule="evenodd" d="M10.007 153.556H173.993V-58.5563H10.007V153.556Z" fill="white"/>
</mask>
<g mask="url(#mask31_2001_41)">
<path fill-rule="evenodd" clip-rule="evenodd" d="M110.343 15.7271C112.414 15.1631 116.029 13.5979 118.431 12.8153C120.834 12.0327 122.023 12.0327 123.316 13.0225C124.609 14.0122 126.004 15.9917 127.011 17.7181C128.018 19.4444 128.635 20.9175 129.082 21.6541C129.528 22.3906 129.802 22.3906 130.065 22.2755C130.328 22.1605 130.58 21.9303 129.848 20.2385C129.116 18.5467 127.4 15.3933 126.004 13.4368C124.609 11.4803 123.533 10.7207 122.698 10.3294C121.863 9.93811 121.268 9.91517 120.353 10.1568C119.438 10.3985 118.202 10.9049 116.441 11.5609C114.679 12.2169 112.391 13.0225 110.767 13.69C109.142 14.3575 108.181 14.8869 107.964 15.3703C107.747 15.8536 108.273 16.2909 110.343 15.7271Z" fill="#8456B3"/>
</g>
<mask id="mask32_2001_41" style="mask-type:luminance" maskUnits="userSpaceOnUse" x="10" y="-59" width="164" height="213">
<path fill-rule="evenodd" clip-rule="evenodd" d="M10.007 153.556H173.993V-58.5563H10.007V153.556Z" fill="white"/>
</mask>
<g mask="url(#mask32_2001_41)">
<path fill-rule="evenodd" clip-rule="evenodd" d="M112.029 18.841C113.598 18.4138 116.336 17.2283 118.155 16.6356C119.975 16.0429 120.876 16.0429 121.855 16.7925C122.834 17.5421 123.891 19.0414 124.654 20.349C125.416 21.6566 125.884 22.7723 126.222 23.3302C126.56 23.8881 126.768 23.8881 126.967 23.8009C127.167 23.7137 127.357 23.5394 126.803 22.258C126.248 20.9766 124.948 18.5881 123.891 17.1063C122.834 15.6244 122.02 15.049 121.387 14.7527C120.755 14.4563 120.304 14.4389 119.611 14.6219C118.918 14.805 117.982 15.1885 116.648 15.6854C115.313 16.1822 113.58 16.7925 112.35 17.2981C111.12 17.8037 110.392 18.2046 110.227 18.5708C110.063 18.9369 110.461 19.2681 112.029 18.841Z" fill="#8456B3"/>
</g>
<mask id="mask33_2001_41" style="mask-type:luminance" maskUnits="userSpaceOnUse" x="10" y="-59" width="164" height="213">
<path fill-rule="evenodd" clip-rule="evenodd" d="M10.007 153.556H173.993V-58.5563H10.007V153.556Z" fill="white"/>
</mask>
<g mask="url(#mask33_2001_41)">
<path fill-rule="evenodd" clip-rule="evenodd" d="M105.145 25.0102C105.454 25.6016 105.827 26.2427 106.274 26.8856C107.418 28.5313 109.043 30.1886 110.746 31.2455C112.449 32.3024 114.232 32.7589 116.119 32.9201C118.007 33.0812 120 32.9469 121.751 32.5851C122.936 32.3404 124.01 31.9914 125.034 31.5882L120.784 20.8932C120.375 19.8656 119.198 19.3579 118.177 19.7687L105.145 25.0102Z" fill="#937BAB"/>
</g>
<mask id="mask34_2001_41" style="mask-type:luminance" maskUnits="userSpaceOnUse" x="10" y="-59" width="164" height="213">
<path fill-rule="evenodd" clip-rule="evenodd" d="M10.007 153.556H173.993V-58.5563H10.007V153.556Z" fill="white"/>
</mask>
<g mask="url(#mask34_2001_41)">
<path fill-rule="evenodd" clip-rule="evenodd" d="M113.653 34.4358C113.993 34.7654 114.54 34.7553 114.867 34.413L117.722 31.4323C118.05 31.0901 118.04 30.5403 117.7 30.2107C117.359 29.8808 116.813 29.8911 116.485 30.2333L113.63 33.214C113.303 33.5563 113.313 34.106 113.653 34.4358Z" fill="#231F20"/>
</g>
<mask id="mask35_2001_41" style="mask-type:luminance" maskUnits="userSpaceOnUse" x="10" y="-59" width="164" height="213">
<path fill-rule="evenodd" clip-rule="evenodd" d="M10.007 153.556H173.993V-58.5563H10.007V153.556Z" fill="white"/>
</mask>
<g mask="url(#mask35_2001_41)">
<path fill-rule="evenodd" clip-rule="evenodd" d="M110.882 33.8905C110.417 33.9695 109.971 33.6506 109.893 33.182L109.21 29.1002C109.131 28.6315 109.448 28.1836 109.914 28.1047C110.38 28.0258 110.825 28.3446 110.904 28.8133L111.587 32.895C111.665 33.3637 111.348 33.8116 110.882 33.8905Z" fill="#231F20"/>
</g>
<mask id="mask36_2001_41" style="mask-type:luminance" maskUnits="userSpaceOnUse" x="10" y="-59" width="164" height="213">
<path fill-rule="evenodd" clip-rule="evenodd" d="M10.007 153.556H173.993V-58.5563H10.007V153.556Z" fill="white"/>
</mask>
<g mask="url(#mask36_2001_41)">
<path fill-rule="evenodd" clip-rule="evenodd" d="M60.1829 19.3084C60.5415 19.3084 60.835 19.6035 60.835 19.9643V25.7832C60.835 26.144 60.5415 26.4392 60.1829 26.4392C59.8242 26.4392 59.5308 26.144 59.5308 25.7832V19.9643C59.5308 19.6035 59.8242 19.3084 60.1829 19.3084Z" fill="#231F20" stroke="#231F20" stroke-width="0.288" stroke-miterlimit="22.9256"/>
</g>
<mask id="mask37_2001_41" style="mask-type:luminance" maskUnits="userSpaceOnUse" x="10" y="-59" width="164" height="213">
<path fill-rule="evenodd" clip-rule="evenodd" d="M10.007 153.556H173.993V-58.5563H10.007V153.556Z" fill="white"/>
</mask>
<g mask="url(#mask37_2001_41)">
<path fill-rule="evenodd" clip-rule="evenodd" d="M70.6158 19.3084C70.9745 19.3084 71.2679 19.6035 71.2679 19.9643V25.7832C71.2679 26.144 70.9745 26.4392 70.6158 26.4392C70.2572 26.4392 69.9638 26.144 69.9638 25.7832V19.9643C69.9638 19.6035 70.2572 19.3084 70.6158 19.3084Z" fill="#231F20" stroke="#231F20" stroke-width="0.288" stroke-miterlimit="22.9256"/>
</g>
<mask id="mask38_2001_41" style="mask-type:luminance" maskUnits="userSpaceOnUse" x="10" y="-59" width="164" height="213">
<path fill-rule="evenodd" clip-rule="evenodd" d="M10.007 153.556H173.993V-58.5563H10.007V153.556Z" fill="white"/>
</mask>
<g mask="url(#mask38_2001_41)">
<path fill-rule="evenodd" clip-rule="evenodd" d="M65.0144 19.3084C65.373 19.3084 65.6666 19.6035 65.6666 19.9643V25.7832C65.6666 26.144 65.3731 26.4392 65.0145 26.4392C64.6559 26.4392 64.3624 26.144 64.3624 25.7832V19.9643C64.3624 19.6035 64.6558 19.3084 65.0144 19.3084Z" fill="#231F20" stroke="#231F20" stroke-width="0.288" stroke-miterlimit="22.9256"/>
</g>
<mask id="mask39_2001_41" style="mask-type:luminance" maskUnits="userSpaceOnUse" x="10" y="-59" width="164" height="213">
<path fill-rule="evenodd" clip-rule="evenodd" d="M10.007 153.556H173.993V-58.5563H10.007V153.556Z" fill="white"/>
</mask>
<g mask="url(#mask39_2001_41)">
<path fill-rule="evenodd" clip-rule="evenodd" d="M82.6868 76.8772C83.7949 76.8772 84.9429 77.243 85.4814 78.1227C85.7949 78.6349 85.2148 79.0112 84.6867 79.2324C83.8313 79.5895 84.1534 79.4815 83.5785 79.14C83.317 78.9867 83.0123 78.8979 82.6868 78.8979C81.7154 78.8979 80.9275 79.6905 80.9275 80.6678C80.9275 81.6468 81.7154 82.6293 82.6868 82.6293C83.3846 82.6293 84.2192 82.1938 84.2712 81.443C84.3231 80.6974 84.9325 81.0981 85.7741 81.0423C86.1793 81.0144 86.458 81.0632 86.3957 81.5353C86.1585 83.293 84.6953 84.8015 82.6695 84.6796C76.9208 84.333 78.1312 76.8772 82.6868 76.8772Z" fill="#231F20"/>
</g>
<mask id="mask40_2001_41" style="mask-type:luminance" maskUnits="userSpaceOnUse" x="10" y="-59" width="164" height="213">
<path fill-rule="evenodd" clip-rule="evenodd" d="M10.007 153.556H173.993V-58.5563H10.007V153.556Z" fill="white"/>
</mask>
<g mask="url(#mask40_2001_41)">
<path fill-rule="evenodd" clip-rule="evenodd" d="M97.7701 76.7936H98.6999C98.9874 76.7936 99.2211 77.0305 99.2211 77.3197V84.2876C99.2211 84.5768 98.9874 84.8119 98.6999 84.8119H97.7701C97.5069 84.8329 97.2385 84.7893 96.9424 84.3643C96.1061 83.2111 95.2697 82.0579 94.4335 80.9064C94.2326 80.8402 94.0681 80.8768 94.0006 81.1869V84.2876C94.0006 84.5768 93.7668 84.8119 93.4794 84.8119H92.5495C92.2621 84.8119 92.0283 84.5768 92.0283 84.2876V77.3197C92.0283 77.0305 92.2621 76.7936 92.5495 76.7936H93.4031C93.63 76.7727 93.9243 76.7449 94.307 77.2814C95.1 78.3562 95.8948 79.4327 96.6879 80.5093C97.0515 80.8908 97.2351 80.6992 97.2472 79.9658V79.7794V77.3197C97.2472 77.0305 97.4826 76.7936 97.7701 76.7936Z" fill="#231F20"/>
</g>
<mask id="mask41_2001_41" style="mask-type:luminance" maskUnits="userSpaceOnUse" x="10" y="-59" width="164" height="213">
<path fill-rule="evenodd" clip-rule="evenodd" d="M10.007 153.556H173.993V-58.5563H10.007V153.556Z" fill="white"/>
</mask>
<g mask="url(#mask41_2001_41)">
<path fill-rule="evenodd" clip-rule="evenodd" d="M88.8752 79.2272H89.4726H89.6267C89.7946 79.2272 89.9643 79.3683 90.0163 79.5355L91.4985 84.2232C91.5504 84.3904 91.4414 84.4984 91.2769 84.5315L90.373 84.7109C90.2085 84.7423 90.0301 84.5716 89.9834 84.4026L89.76 83.5839H88.0493L87.7394 84.3538C87.6736 84.5141 87.4796 84.6517 87.322 84.589L86.458 84.2406C86.3004 84.1779 86.2052 84.0507 86.2762 83.8922L88.2692 79.4797C88.3402 79.323 88.5185 79.248 88.6865 79.2445L88.787 79.243C88.8146 79.2325 88.8441 79.2272 88.8752 79.2272ZM89.0553 81.4569C89.36 81.4569 89.6093 81.706 89.6093 82.0144C89.6093 82.3209 89.36 82.5718 89.0553 82.5718C88.7488 82.5718 88.5012 82.3209 88.5012 82.0144C88.5012 81.706 88.7488 81.4569 89.0553 81.4569ZM88.9981 80.9117C89.0709 80.9117 89.1314 80.9726 89.1314 81.0475C89.1314 81.1207 89.0709 81.1817 88.9981 81.1817C88.9237 81.1817 88.8631 81.1207 88.8631 81.0475C88.8631 80.9726 88.9237 80.9117 88.9981 80.9117ZM88.5895 81.0284C88.664 81.0284 88.7245 81.0876 88.7245 81.1625C88.7245 81.2357 88.664 81.2966 88.5895 81.2966C88.5168 81.2966 88.4562 81.2357 88.4562 81.1625C88.4562 81.0876 88.5168 81.0284 88.5895 81.0284ZM89.4553 81.0405C89.5298 81.0405 89.5903 81.0998 89.5903 81.1747C89.5903 81.2496 89.5298 81.3088 89.4553 81.3088C89.3826 81.3088 89.322 81.2496 89.322 81.1747C89.322 81.0998 89.3826 81.0405 89.4553 81.0405Z" fill="#231F20"/>
</g>
<mask id="mask42_2001_41" style="mask-type:luminance" maskUnits="userSpaceOnUse" x="10" y="-59" width="164" height="213">
<path fill-rule="evenodd" clip-rule="evenodd" d="M10.007 153.556H173.993V-58.5563H10.007V153.556Z" fill="white"/>
</mask>
<g mask="url(#mask42_2001_41)">
<path fill-rule="evenodd" clip-rule="evenodd" d="M100.473 79.1923H101.339C101.505 79.1923 101.64 79.3299 101.64 79.4954V84.5089C101.64 84.6761 101.505 84.812 101.339 84.812H100.473C100.307 84.812 100.172 84.6761 100.172 84.5089V79.4954C100.172 79.3299 100.307 79.1923 100.473 79.1923Z" fill="#231F20"/>
</g>
<mask id="mask43_2001_41" style="mask-type:luminance" maskUnits="userSpaceOnUse" x="10" y="-59" width="164" height="213">
<path fill-rule="evenodd" clip-rule="evenodd" d="M10.007 153.556H173.993V-58.5563H10.007V153.556Z" fill="white"/>
</mask>
<g mask="url(#mask43_2001_41)">
<path fill-rule="evenodd" clip-rule="evenodd" d="M107.738 77.8406H108.568C108.824 77.8406 109.034 78.0513 109.034 78.3091V84.528C109.034 84.7858 108.824 84.9966 108.568 84.9966H107.738C107.505 85.014 107.264 84.9757 106.999 84.5959C106.255 83.5682 105.508 82.5387 104.762 81.5092C104.582 81.4517 104.435 81.4847 104.376 81.7618V84.528C104.376 84.7858 104.165 84.9966 103.908 84.9966H103.079C102.823 84.9966 102.613 84.7858 102.613 84.528V78.3091C102.613 78.0513 102.823 77.8406 103.079 77.8406H103.841C104.043 77.8196 104.307 77.797 104.648 78.2743C105.356 79.2341 106.064 80.1957 106.772 81.1555C107.098 81.497 107.261 81.3245 107.273 80.6696V80.504V78.3091C107.273 78.0513 107.482 77.8406 107.738 77.8406Z" fill="#231F20"/>
</g>
<mask id="mask44_2001_41" style="mask-type:luminance" maskUnits="userSpaceOnUse" x="10" y="-59" width="164" height="213">
<path fill-rule="evenodd" clip-rule="evenodd" d="M10.007 153.556H173.993V-58.5563H10.007V153.556Z" fill="white"/>
</mask>
<g mask="url(#mask44_2001_41)">
<path fill-rule="evenodd" clip-rule="evenodd" d="M114.905 77.8406H115.735C115.991 77.8406 116.202 78.0513 116.202 78.3091V84.528C116.202 84.7858 115.991 84.9966 115.735 84.9966H114.905C114.671 85.014 114.433 84.9757 114.168 84.5959C113.421 83.5682 112.675 82.5387 111.929 81.5092C111.749 81.4517 111.602 81.4847 111.543 81.7618V84.528C111.543 84.7858 111.333 84.9966 111.077 84.9966H110.247C109.991 84.9966 109.782 84.7858 109.782 84.528V78.3091C109.782 78.0513 109.991 77.8406 110.247 77.8406H111.008C111.21 77.8196 111.473 77.797 111.814 78.2743C112.523 79.2341 113.233 80.1957 113.941 81.1555C114.265 81.497 114.427 81.3245 114.44 80.6696V80.504V78.3091C114.44 78.0513 114.649 77.8406 114.905 77.8406Z" fill="#231F20"/>
</g>
<mask id="mask45_2001_41" style="mask-type:luminance" maskUnits="userSpaceOnUse" x="10" y="-59" width="164" height="213">
<path fill-rule="evenodd" clip-rule="evenodd" d="M10.007 153.556H173.993V-58.5563H10.007V153.556Z" fill="white"/>
</mask>
<g mask="url(#mask45_2001_41)">
<path fill-rule="evenodd" clip-rule="evenodd" d="M119.199 79.2272H119.795H119.951C120.119 79.2272 120.287 79.3683 120.341 79.5355L121.823 84.2232C121.875 84.3904 121.766 84.4984 121.601 84.5315L120.697 84.7109C120.533 84.7423 120.353 84.5716 120.308 84.4026L120.083 83.5839H118.373L118.064 84.3538C117.998 84.5141 117.804 84.6517 117.646 84.589L116.782 84.2406C116.625 84.1779 116.529 84.0507 116.6 83.8922L118.593 79.4797C118.664 79.323 118.843 79.248 119.011 79.2445L119.111 79.243C119.137 79.2325 119.168 79.2272 119.199 79.2272ZM119.38 81.4569C119.684 81.4569 119.934 81.706 119.934 82.0144C119.934 82.3209 119.684 82.5718 119.38 82.5718C119.073 82.5718 118.825 82.3209 118.825 82.0144C118.825 81.706 119.073 81.4569 119.38 81.4569ZM119.322 80.9117C119.395 80.9117 119.456 80.9726 119.456 81.0475C119.456 81.1207 119.395 81.1817 119.322 81.1817C119.248 81.1817 119.187 81.1207 119.187 81.0475C119.187 80.9726 119.248 80.9117 119.322 80.9117ZM118.914 81.0284C118.988 81.0284 119.049 81.0876 119.049 81.1625C119.049 81.2357 118.988 81.2966 118.914 81.2966C118.841 81.2966 118.78 81.2357 118.78 81.1625C118.78 81.0876 118.841 81.0284 118.914 81.0284ZM119.78 81.0405C119.854 81.0405 119.915 81.0998 119.915 81.1747C119.915 81.2496 119.854 81.3088 119.78 81.3088C119.707 81.3088 119.646 81.2496 119.646 81.1747C119.646 81.0998 119.707 81.0405 119.78 81.0405Z" fill="#231F20"/>
</g>
<mask id="mask46_2001_41" style="mask-type:luminance" maskUnits="userSpaceOnUse" x="10" y="-59" width="164" height="213">
<path fill-rule="evenodd" clip-rule="evenodd" d="M10.007 153.556H173.993V-58.5563H10.007V153.556Z" fill="white"/>
</mask>
<g mask="url(#mask46_2001_41)">
<path d="M68.5864 84.5781C69.189 84.5781 69.6828 84.3892 70.078 84.0017C70.483 83.6141 70.6806 83.1172 70.6806 82.5309C70.6806 81.6464 70.1965 81.0005 69.2976 80.8116C69.8508 80.5831 70.1768 80.0862 70.1768 79.4203C70.1768 78.9136 69.999 78.4862 69.6434 78.1583C69.2878 77.8205 68.8531 77.6514 68.3295 77.6514H65.1291V84.5781H68.5864ZM67.0059 79.1818H67.9147C68.2407 79.1818 68.4975 79.4402 68.4975 79.7881C68.4975 80.1557 68.2604 80.4141 67.9147 80.4141H67.0059V79.1818ZM67.0059 81.706H68.1616C68.5864 81.706 68.8728 81.9843 68.8728 82.352C68.8728 82.7396 68.5765 83.0278 68.1715 83.0278H67.0059V81.706Z" fill="#231F20"/>
</g>
<mask id="mask47_2001_41" style="mask-type:luminance" maskUnits="userSpaceOnUse" x="10" y="-59" width="164" height="213">
<path fill-rule="evenodd" clip-rule="evenodd" d="M10.007 153.556H173.993V-58.5563H10.007V153.556Z" fill="white"/>
</mask>
<g mask="url(#mask47_2001_41)">
<path d="M73.7984 84.5781V82.7349L75.7493 79.3771H74.2361L73.1014 81.3993L71.9665 79.3771H70.4534L72.4041 82.7349V84.5781H73.7984Z" fill="#231F20"/>
</g>
<defs>
<clipPath id="clip0_2001_41">
<rect width="57.1513" height="48" fill="white" transform="translate(45 92)"/>
</clipPath>
</defs>
</svg>
