<svg width="612" height="178" viewBox="0 0 612 178" fill="none" xmlns="http://www.w3.org/2000/svg">
<path d="M68.0251 119.334C110.8 112.77 152.218 101.005 194.875 93.8695C255.638 83.6982 318.915 83.0837 379.582 93.6322C438.538 103.858 499.669 128.8 557.924 141.472C609.586 152.714 665.99 157.343 716 143.297V85H-169V101.638C-93.4316 125.274 -11.4603 131.394 68.0251 119.334Z" fill="#F8842D"/>
<rect x="-30" y="-41" width="672" height="127" fill="#F8842D"/>
<path d="M66.7999 164.12C72.3582 161.332 77.7402 156.336 83.2832 153.305C91.1789 148.986 99.4014 148.725 107.285 153.204C114.946 157.547 122.889 168.139 130.459 173.521C137.172 178.295 144.502 180.261 151 174.296V149.538H36V156.604C45.8196 166.642 56.4713 169.241 66.7999 164.12Z" fill="#00B0F0"/>
<rect x="36" y="-7" width="115" height="156.92" fill="#00B0F0"/>
<mask id="mask0_2002_1077" style="mask-type:luminance" maskUnits="userSpaceOnUse" x="12" y="-62" width="164" height="213">
<path fill-rule="evenodd" clip-rule="evenodd" d="M12 150.113H175.986V-62H12V150.113Z" fill="white"/>
</mask>
<g mask="url(#mask0_2002_1077)">
<path fill-rule="evenodd" clip-rule="evenodd" d="M93.5107 25.3318L119.582 14.8459C121.415 14.1088 123.514 15.0142 124.247 16.8582L133.298 39.636C134.031 41.48 133.131 43.5917 131.298 44.3288L105.227 54.8148C103.394 55.5519 101.295 54.6465 100.562 52.8024L91.5105 30.0247C90.7778 28.1807 91.6778 26.069 93.5107 25.3318Z" fill="#231F20"/>
</g>
<mask id="mask1_2002_1077" style="mask-type:luminance" maskUnits="userSpaceOnUse" x="12" y="-62" width="164" height="213">
<path fill-rule="evenodd" clip-rule="evenodd" d="M12 150.113H175.986V-62H12V150.113Z" fill="white"/>
</mask>
<g mask="url(#mask1_2002_1077)">
<path fill-rule="evenodd" clip-rule="evenodd" d="M94.0985 26.8109C93.0771 27.2217 92.5724 28.4059 92.9807 29.4334L102.032 52.2112C102.441 53.2387 103.618 53.7465 104.639 53.3357L130.71 42.8499C131.732 42.4391 132.236 41.2549 131.828 40.2273L122.777 17.4495C122.368 16.422 121.191 15.9142 120.17 16.325L94.0985 26.8109Z" fill="#FF9966"/>
</g>
<mask id="mask2_2002_1077" style="mask-type:luminance" maskUnits="userSpaceOnUse" x="12" y="-62" width="164" height="213">
<path fill-rule="evenodd" clip-rule="evenodd" d="M12 150.113H175.986V-62H12V150.113Z" fill="white"/>
</mask>
<g mask="url(#mask2_2002_1077)">
<path fill-rule="evenodd" clip-rule="evenodd" d="M97.6973 30.9672C97.6662 30.8905 97.6302 30.8109 97.6064 30.7505C97.3762 30.1635 97.2997 29.6291 97.4083 28.9999C97.5677 28.0759 98.0836 27.1573 98.893 26.6623C99.7241 26.1541 100.907 26.0704 101.84 26.2914C102.757 26.5084 103.366 27.0184 103.78 27.861C104.11 28.531 104.25 29.2286 104.499 29.9212C104.525 29.9926 104.557 30.0819 104.599 30.1462C104.715 30.3275 105.273 30.5365 105.458 30.6068C106.739 31.0944 108.115 31.4638 109.429 31.8671C110.031 32.052 110.757 32.1979 111.061 32.8175C111.18 33.0594 111.287 33.3123 111.399 33.558C111.534 33.8565 111.673 34.1535 111.812 34.4504C111.918 34.675 111.976 34.8808 111.932 35.1353C111.855 35.5808 111.552 35.7766 111.207 35.9893C110.753 36.2692 110.271 36.5547 109.838 36.8627C109.644 37.0001 109.507 37.1171 109.265 37.1808C108.921 37.2713 108.639 37.1749 108.316 37.0773C107.444 36.8137 106.568 36.5571 105.694 36.2994C105.241 36.1659 104.786 36.0294 104.328 35.9156C104.072 35.8519 103.732 35.7679 103.468 35.7643C103.428 35.7638 103.372 35.763 103.336 35.7836C103.214 35.8524 103.026 36.0451 102.916 36.1402C102.314 36.6594 101.613 37.0851 100.855 37.3273C99.8695 37.6424 98.7364 37.6645 97.8138 37.1438C96.8038 36.5737 96.1358 35.4152 96.1685 34.2477C96.1966 33.2454 96.7305 32.2748 97.3026 31.4827C97.4185 31.3222 97.5387 31.1664 97.6616 31.0113C97.6726 30.9973 97.6847 30.9826 97.6973 30.9672Z" fill="black"/>
</g>
<mask id="mask3_2002_1077" style="mask-type:luminance" maskUnits="userSpaceOnUse" x="12" y="-62" width="164" height="213">
<path fill-rule="evenodd" clip-rule="evenodd" d="M12 150.113H175.986V-62H12V150.113Z" fill="white"/>
</mask>
<g mask="url(#mask3_2002_1077)">
<path fill-rule="evenodd" clip-rule="evenodd" d="M110.607 33.9224C110.462 33.6034 110.354 33.3542 110.281 33.206C110.208 33.0578 110.17 33.0107 109.174 32.7051C108.179 32.3995 106.225 31.8353 105.15 31.4264C104.074 31.0173 103.876 30.7632 103.681 30.2195C103.485 29.6758 103.291 28.8422 103 28.2494C102.708 27.6567 102.319 27.3049 101.641 27.1442C100.962 26.9835 99.9944 27.0142 99.3454 27.411C98.6964 27.8078 98.3663 28.5709 98.2664 29.1498C98.1666 29.7288 98.2967 30.1235 98.4166 30.4289C98.5364 30.7344 98.6458 30.9506 98.6076 31.1362C98.5694 31.3217 98.3837 31.4764 98.0072 31.9978C97.6307 32.5191 97.0634 33.4069 97.0391 34.2724C97.0149 35.1379 97.5336 35.981 98.2399 36.3797C98.9463 36.7783 99.8405 36.7325 100.592 36.4923C101.343 36.2522 101.952 35.818 102.349 35.4751C102.747 35.1323 102.933 34.8809 103.479 34.8884C104.026 34.8958 104.933 35.162 105.939 35.4587C106.945 35.7553 108.051 36.0823 108.567 36.2382C109.083 36.3941 109.009 36.3786 109.335 36.1468C109.662 35.915 110.389 35.4666 110.752 35.2424C111.116 35.0183 111.116 35.0183 111.025 34.824C110.934 34.6298 110.752 34.2412 110.607 33.9224Z" fill="#B9E8FA"/>
</g>
<mask id="mask4_2002_1077" style="mask-type:luminance" maskUnits="userSpaceOnUse" x="12" y="-62" width="164" height="213">
<path fill-rule="evenodd" clip-rule="evenodd" d="M12 150.113H175.986V-62H12V150.113Z" fill="white"/>
</mask>
<g mask="url(#mask4_2002_1077)">
<path fill-rule="evenodd" clip-rule="evenodd" d="M115.508 36.2169C115.345 35.9798 115.183 35.7427 115.021 35.5055C114.972 35.434 114.922 35.3617 114.878 35.2869C114.71 34.9999 114.691 34.6584 114.887 34.3722C115.082 34.0881 115.368 34.0036 115.686 34.0264C116.17 34.0614 116.68 34.1902 117.149 34.3106C118.292 34.6039 119.431 34.9442 120.565 35.2701C120.964 35.3848 121.741 35.6435 122.153 35.6442C122.409 35.6447 122.633 35.5044 122.842 35.3703C123.365 35.0341 123.85 34.6484 124.387 34.3261C124.91 34.0117 125.524 33.7265 126.131 33.6368C126.738 33.5474 127.267 33.6683 127.782 33.9993C128.267 34.3104 128.704 34.7765 129.031 35.2497C129.384 35.761 129.672 36.3753 129.712 37.004C129.758 37.7217 129.473 38.3486 128.964 38.8463C128.533 39.2686 128.027 39.5396 127.53 39.8671C127.557 39.9331 127.586 39.9985 127.607 40.0512C127.714 40.3234 127.805 40.5945 127.866 40.8814C128.001 41.5202 128.02 42.3705 127.783 42.9807C127.498 43.7135 126.911 44.0032 126.18 44.1403C125.567 44.2555 124.771 44.3045 124.158 44.1947C123.535 44.0832 123.076 43.8034 122.687 43.3107C122.398 42.9456 122.179 42.5195 122.006 42.0882C121.86 41.7229 121.746 41.3468 121.539 41.0092C121.272 40.5757 120.896 40.2925 120.45 40.0608C119.713 39.6782 118.723 39.3809 117.913 39.1942C117.25 39.0414 116.592 38.9773 115.935 38.8404C115.547 38.7595 115.134 38.6305 114.782 38.4418C114.53 38.3062 114.345 38.111 114.291 37.8139C114.237 37.5126 114.349 37.241 114.558 37.0319C114.629 36.961 114.708 36.8959 114.785 36.8311C115.026 36.6271 115.267 36.4221 115.508 36.2169Z" fill="black"/>
</g>
<mask id="mask5_2002_1077" style="mask-type:luminance" maskUnits="userSpaceOnUse" x="12" y="-62" width="164" height="213">
<path fill-rule="evenodd" clip-rule="evenodd" d="M12 150.113H175.986V-62H12V150.113Z" fill="white"/>
</mask>
<g mask="url(#mask5_2002_1077)">
<path fill-rule="evenodd" clip-rule="evenodd" d="M122.731 41.7937C122.578 41.4137 122.459 41.0117 122.203 40.5957C121.948 40.1796 121.556 39.7497 120.808 39.362C120.061 38.9742 118.959 38.6287 118.087 38.4276C117.215 38.2267 116.573 38.1703 116.094 38.0704C115.614 37.9705 115.298 37.8273 115.15 37.7481C115.003 37.6691 115.025 37.6545 115.287 37.4333C115.549 37.2122 116.051 36.7846 116.301 36.5708C116.552 36.3571 116.552 36.3571 116.375 36.0976C116.197 35.8382 115.843 35.3194 115.665 35.0599C115.488 34.8005 115.488 34.8005 115.63 34.8107C115.772 34.8209 116.056 34.8415 116.956 35.0724C117.855 35.3033 119.37 35.7445 120.351 36.0261C121.331 36.3078 121.777 36.4297 122.152 36.4305C122.527 36.4312 122.831 36.3105 123.263 36.033C123.695 35.7554 124.255 35.3208 124.787 35.0012C125.32 34.6816 125.823 34.477 126.245 34.4148C126.666 34.3526 127.005 34.433 127.362 34.6621C127.719 34.8911 128.093 35.2689 128.389 35.6982C128.685 36.1274 128.904 36.6082 128.932 37.0542C128.96 37.5002 128.799 37.9116 128.42 38.2824C128.04 38.6532 127.444 38.9835 127.093 39.2152C126.742 39.4469 126.638 39.58 126.699 39.8442C126.76 40.1084 126.987 40.5038 127.101 41.0451C127.216 41.5865 127.218 42.2738 127.055 42.6945C126.891 43.115 126.562 43.2688 126.037 43.3674C125.512 43.4659 124.791 43.5094 124.295 43.4205C123.799 43.3317 123.527 43.1107 123.298 42.8212C123.069 42.5317 122.883 42.1737 122.731 41.7937Z" fill="#B9E8FA"/>
</g>
<mask id="mask6_2002_1077" style="mask-type:luminance" maskUnits="userSpaceOnUse" x="12" y="-62" width="164" height="213">
<path fill-rule="evenodd" clip-rule="evenodd" d="M12 150.113H175.986V-62H12V150.113Z" fill="white"/>
</mask>
<g mask="url(#mask6_2002_1077)">
<path fill-rule="evenodd" clip-rule="evenodd" d="M112.743 40.0448C113.195 39.9069 113.677 40.1661 113.814 40.6209L115.007 44.5821C115.144 45.0369 114.887 45.5218 114.435 45.6596C113.983 45.7975 113.501 45.5382 113.364 45.0835L112.17 41.1223C112.033 40.6675 112.29 40.1827 112.743 40.0448Z" fill="#231F20"/>
</g>
<mask id="mask7_2002_1077" style="mask-type:luminance" maskUnits="userSpaceOnUse" x="12" y="-62" width="164" height="213">
<path fill-rule="evenodd" clip-rule="evenodd" d="M12 150.113H175.986V-62H12V150.113Z" fill="white"/>
</mask>
<g mask="url(#mask7_2002_1077)">
<path fill-rule="evenodd" clip-rule="evenodd" d="M110.029 39.2618C109.65 38.9784 109.109 39.0583 108.827 39.4398L106.373 42.7617C106.091 43.1431 106.17 43.6871 106.55 43.9706C106.929 44.2541 107.469 44.174 107.751 43.7926L110.206 40.4707C110.488 40.0892 110.408 39.5453 110.029 39.2618Z" fill="#231F20"/>
</g>
<mask id="mask8_2002_1077" style="mask-type:luminance" maskUnits="userSpaceOnUse" x="12" y="-62" width="164" height="213">
<path fill-rule="evenodd" clip-rule="evenodd" d="M12 150.113H175.986V-62H12V150.113Z" fill="white"/>
</mask>
<g mask="url(#mask8_2002_1077)">
<path fill-rule="evenodd" clip-rule="evenodd" d="M59.7821 20.7522H73.323V45.3944C73.323 48.8603 70.508 51.6924 67.0629 51.6924H66.0423C62.5971 51.6924 59.7821 48.8603 59.7821 45.3944V20.7522Z" fill="black"/>
</g>
<mask id="mask9_2002_1077" style="mask-type:luminance" maskUnits="userSpaceOnUse" x="12" y="-62" width="164" height="213">
<path fill-rule="evenodd" clip-rule="evenodd" d="M12 150.113H175.986V-62H12V150.113Z" fill="white"/>
</mask>
<g mask="url(#mask9_2002_1077)">
<path fill-rule="evenodd" clip-rule="evenodd" d="M72.2586 23.4098V45.3944C72.2586 48.2693 69.9205 50.6215 67.0629 50.6215H66.0423C63.1846 50.6215 60.8466 48.2693 60.8466 45.3944V23.4098H72.2586Z" fill="#B9E8FA"/>
</g>
<mask id="mask10_2002_1077" style="mask-type:luminance" maskUnits="userSpaceOnUse" x="12" y="-62" width="164" height="213">
<path fill-rule="evenodd" clip-rule="evenodd" d="M12 150.113H175.986V-62H12V150.113Z" fill="white"/>
</mask>
<g mask="url(#mask10_2002_1077)">
<path fill-rule="evenodd" clip-rule="evenodd" d="M72.2586 38.6538V45.3944C72.2586 48.2693 69.9205 50.6215 67.0629 50.6215H66.0423C63.1846 50.6215 60.8466 48.2693 60.8466 45.3944V37.0917C61.2672 36.8739 61.7011 36.7051 62.1299 36.5985C63.6454 36.2214 65.099 36.6185 66.2742 37.1475C67.4494 37.6764 68.3463 38.3372 69.9236 38.5742C70.6143 38.678 71.4355 38.7005 72.2586 38.6538Z" fill="#BE262C"/>
</g>
<mask id="mask11_2002_1077" style="mask-type:luminance" maskUnits="userSpaceOnUse" x="12" y="-62" width="164" height="213">
<path fill-rule="evenodd" clip-rule="evenodd" d="M12 150.113H175.986V-62H12V150.113Z" fill="white"/>
</mask>
<g mask="url(#mask11_2002_1077)">
<path fill-rule="evenodd" clip-rule="evenodd" d="M72.2586 38.6538V45.3943C72.2586 47.577 70.9107 49.4581 69.0111 50.2376V38.3739C69.2912 38.4559 69.5923 38.5243 69.9235 38.5742C70.6142 38.6779 71.4354 38.7005 72.2586 38.6538Z" fill="#981A1D"/>
</g>
<mask id="mask12_2002_1077" style="mask-type:luminance" maskUnits="userSpaceOnUse" x="12" y="-62" width="164" height="213">
<path fill-rule="evenodd" clip-rule="evenodd" d="M12 150.113H175.986V-62H12V150.113Z" fill="white"/>
</mask>
<g mask="url(#mask12_2002_1077)">
<path fill-rule="evenodd" clip-rule="evenodd" d="M72.2586 41.934V45.3944C72.2586 48.2693 69.9205 50.6215 67.0629 50.6215H66.0423C63.1846 50.6215 60.8466 48.2693 60.8466 45.3944V40.0837C61.2335 41.7598 61.4804 43.0261 61.8748 44.1005C62.3774 45.4696 63.1196 46.5274 64.2639 47.1031C65.4082 47.6787 66.9546 47.772 68.1298 47.3831C69.3051 46.9941 70.1091 46.123 70.7353 45.1494C71.2502 44.3492 71.6449 43.4796 72.2586 41.934Z" fill="#ED1C24"/>
</g>
<mask id="mask13_2002_1077" style="mask-type:luminance" maskUnits="userSpaceOnUse" x="12" y="-62" width="164" height="213">
<path fill-rule="evenodd" clip-rule="evenodd" d="M12 150.113H175.986V-62H12V150.113Z" fill="white"/>
</mask>
<g mask="url(#mask13_2002_1077)">
<path fill-rule="evenodd" clip-rule="evenodd" d="M62.2997 13.2635H71.2346C73.6382 13.2635 75.601 15.2382 75.601 17.6563V22.8077C75.601 24.0677 74.5801 25.0948 73.3276 25.0948H60.2067C58.9542 25.0948 57.9333 24.0677 57.9333 22.8077V17.6563C57.9333 15.2382 59.8961 13.2635 62.2997 13.2635Z" fill="black"/>
</g>
<mask id="mask14_2002_1077" style="mask-type:luminance" maskUnits="userSpaceOnUse" x="12" y="-62" width="164" height="213">
<path fill-rule="evenodd" clip-rule="evenodd" d="M12 150.113H175.986V-62H12V150.113Z" fill="white"/>
</mask>
<g mask="url(#mask14_2002_1077)">
<path fill-rule="evenodd" clip-rule="evenodd" d="M62.2997 14.3207H71.2346C73.0582 14.3207 74.5502 15.8217 74.5502 17.6563V22.8077C74.5502 23.4842 74.0001 24.0377 73.3276 24.0377H60.2067C59.5343 24.0377 58.9841 23.4842 58.9841 22.8077V17.6563C58.9841 15.8217 60.4761 14.3207 62.2997 14.3207Z" fill="#937BAB"/>
</g>
<mask id="mask15_2002_1077" style="mask-type:luminance" maskUnits="userSpaceOnUse" x="12" y="-62" width="164" height="213">
<path fill-rule="evenodd" clip-rule="evenodd" d="M12 150.113H175.986V-62H12V150.113Z" fill="white"/>
</mask>
<g mask="url(#mask15_2002_1077)">
<path fill-rule="evenodd" clip-rule="evenodd" d="M70.8146 36.5446C70.5834 36.438 70.2555 36.3003 69.8772 36.2401C69.4989 36.1799 69.0703 36.197 68.6415 36.2691C68.2128 36.3412 67.784 36.4683 67.452 36.601C67.1199 36.7338 66.8846 36.8722 66.7669 36.9414C66.6492 37.0107 66.6492 37.0107 67.2787 37.2538C67.9082 37.4969 69.1672 37.9831 70.0673 38.1721C70.9674 38.3611 71.5087 38.2528 71.7912 38.0801C72.0739 37.9074 72.0979 37.6703 71.9754 37.4465C71.8528 37.2229 71.5838 37.0126 71.382 36.8697C71.1803 36.7267 71.0458 36.6512 70.8146 36.5446Z" fill="#BE262C" stroke="#BE262C" stroke-width="0.288" stroke-miterlimit="22.9256"/>
</g>
<mask id="mask16_2002_1077" style="mask-type:luminance" maskUnits="userSpaceOnUse" x="12" y="-62" width="164" height="213">
<path fill-rule="evenodd" clip-rule="evenodd" d="M12 150.113H175.986V-62H12V150.113Z" fill="white"/>
</mask>
<g mask="url(#mask16_2002_1077)">
<path fill-rule="evenodd" clip-rule="evenodd" d="M95.8913 15.3369H80.2569C79.0118 15.3369 77.993 16.3618 77.993 17.6146V18.6697C77.993 19.9225 79.0118 20.9474 80.2569 20.9474H81.1032C81.1974 22.9405 81.2712 24.9351 81.3722 26.9278C81.3849 27.1778 81.4101 27.4679 81.3836 27.7168C81.3504 28.0291 81.187 28.3639 81.0483 28.6397C80.6177 29.4962 80.0968 30.3495 79.6127 31.1773C76.9453 35.7394 74.2653 40.3 71.553 44.835C70.9836 45.7872 70.4116 46.7387 69.8272 47.6817C69.672 47.9321 69.4849 48.2059 69.355 48.4698C69.3387 48.5031 69.323 48.5365 69.3079 48.5704C69.0663 49.1106 68.8556 49.8327 68.8736 50.4271C68.9002 51.3126 69.3955 51.9499 70.1548 52.3557C70.7126 52.6538 71.3443 52.7247 71.965 52.7772C73.6724 52.9215 75.4809 52.9089 77.194 52.9151C80.7913 52.9283 84.3923 52.8914 87.9895 52.853C91.4863 52.8158 94.9832 52.7695 98.4799 52.7157C100.3 52.6877 102.171 52.6895 103.988 52.5764C104.686 52.5329 105.542 52.4803 106.134 52.0658C107.087 51.3988 107.094 50.2622 106.766 49.2509C106.591 48.7108 106.316 48.198 106.046 47.7016C105.392 46.5028 104.698 45.3172 104.019 44.1325C101.487 39.7162 98.9541 35.3 96.4421 30.8726C96.0003 30.094 95.5305 29.2962 95.1364 28.4926C94.9828 28.1793 94.827 27.8394 94.7728 27.4913C94.7245 27.1807 94.7343 26.829 94.7343 26.5147C94.7343 24.6643 94.7217 22.7992 94.7627 20.9474H95.8913C97.1364 20.9474 98.1552 19.9225 98.1552 18.6697V17.6146C98.1552 16.3618 97.1364 15.3369 95.8913 15.3369Z" fill="black"/>
</g>
<mask id="mask17_2002_1077" style="mask-type:luminance" maskUnits="userSpaceOnUse" x="12" y="-62" width="164" height="213">
<path fill-rule="evenodd" clip-rule="evenodd" d="M12 150.113H175.986V-62H12V150.113Z" fill="white"/>
</mask>
<g mask="url(#mask17_2002_1077)">
<path d="M82.1398 20.8366C82.2255 22.645 82.3398 25.4646 82.4114 26.8744C82.4829 28.2842 82.5115 28.2842 80.5096 31.7081C78.5076 35.1319 74.4752 41.9796 72.4446 45.3747C70.4141 48.7698 70.3855 48.7122 70.2568 49C70.1282 49.2877 69.8994 49.9207 69.9136 50.3954C69.9279 50.8702 70.1853 51.1866 70.6429 51.4312C71.1005 51.6758 71.7583 51.8484 77.1977 51.8683C82.6373 51.8882 92.8585 51.7553 98.4639 51.669C104.069 51.5827 105.059 51.5429 105.539 51.2065C106.02 50.8702 105.991 50.2371 105.777 49.5754C105.562 48.9136 105.162 48.2231 103.117 44.6554C101.072 41.0877 97.383 34.6428 95.5384 31.3916C93.6938 28.1404 93.6938 28.0828 93.6938 26.5147C93.6938 24.9467 93.6938 21.8681 93.7367 20.3576C93.7795 18.8471 93.8653 18.9046 91.9063 18.6787C89.9473 18.4528 85.9434 17.9435 83.97 18.0873C81.9968 18.2312 82.0539 19.0282 82.1398 20.8366Z" stroke="#231F20" stroke-width="0.755867" stroke-miterlimit="22.9256"/>
</g>
<mask id="mask18_2002_1077" style="mask-type:luminance" maskUnits="userSpaceOnUse" x="12" y="-62" width="164" height="213">
<path fill-rule="evenodd" clip-rule="evenodd" d="M12 150.113H175.986V-62H12V150.113Z" fill="white"/>
</mask>
<g mask="url(#mask18_2002_1077)">
<path fill-rule="evenodd" clip-rule="evenodd" d="M82.1445 20.9372C82.2297 22.7481 82.3412 25.4904 82.4114 26.8744C82.4829 28.2842 82.5115 28.2842 80.5096 31.7081C79.8389 32.8551 78.9402 34.3865 77.9654 36.0435C78.1982 35.95 78.4656 35.8373 78.7194 35.7179C79.182 35.5002 79.5998 35.26 80.1892 35.0949C80.7786 34.9298 81.5396 34.8397 82.4573 34.8322C83.3749 34.8247 84.4492 34.8997 85.3818 35.2075C86.3144 35.5152 87.1052 36.0556 87.5155 36.4008C87.9259 36.7462 87.9557 36.8963 88.0303 36.9038C88.1049 36.9112 88.2243 36.7761 88.4257 36.596C88.6272 36.4159 88.9107 36.1907 89.3807 35.898C89.8507 35.6053 90.5073 35.245 91.3652 35.0123C92.2232 34.7797 93.2826 34.6746 94.2152 34.7271C95.1478 34.7797 95.9535 34.9898 97.3114 35.6202C97.5847 35.7472 97.8803 35.8911 98.189 36.0434C97.1696 34.2587 96.2259 32.6033 95.5384 31.3916C93.6937 28.1404 93.6937 28.0828 93.6937 26.5147C93.6937 25.1273 93.6937 22.5572 93.7235 20.9372H82.1445Z" fill="#B9E8FA" stroke="#231F20" stroke-width="0.755867" stroke-miterlimit="22.9256"/>
</g>
<mask id="mask19_2002_1077" style="mask-type:luminance" maskUnits="userSpaceOnUse" x="12" y="-62" width="164" height="213">
<path fill-rule="evenodd" clip-rule="evenodd" d="M12 150.113H175.986V-62H12V150.113Z" fill="white"/>
</mask>
<g mask="url(#mask19_2002_1077)">
<path fill-rule="evenodd" clip-rule="evenodd" d="M99.2118 37.8331C98.0577 37.2537 97.0524 36.8391 96.1694 36.5512C94.8791 36.1307 93.8496 35.9806 92.9618 36.018C92.074 36.0556 91.3279 36.2808 90.4102 36.8362C89.4926 37.3916 88.4034 38.2773 87.329 38.9753C86.2547 39.6734 85.1953 40.1838 83.9121 40.3789C82.6288 40.5741 81.1218 40.454 79.943 40.1462C78.7642 39.8385 77.9137 39.3431 76.9363 38.5025C76.8454 38.4241 76.7532 38.3429 76.6605 38.2593C75.0918 40.9202 73.4986 43.6125 72.4446 45.3747C70.4141 48.7698 70.3855 48.7122 70.2568 49C70.1281 49.2877 69.8994 49.9207 69.9136 50.3954C69.9279 50.8702 70.1853 51.1867 70.6429 51.4312C71.1005 51.6758 71.7583 51.8484 77.1977 51.8683C82.6373 51.8882 92.8585 51.7553 98.4639 51.669C104.069 51.5827 105.059 51.5429 105.539 51.2065C106.02 50.8702 105.991 50.2371 105.777 49.5754C105.562 48.9136 105.162 48.2231 103.117 44.6554C102.085 42.8542 100.633 40.3198 99.2118 37.8331Z" fill="#F4BC65" stroke="#231F20" stroke-width="0.755867" stroke-miterlimit="22.9256"/>
</g>
<mask id="mask20_2002_1077" style="mask-type:luminance" maskUnits="userSpaceOnUse" x="12" y="-62" width="164" height="213">
<path fill-rule="evenodd" clip-rule="evenodd" d="M12 150.113H175.986V-62H12V150.113Z" fill="white"/>
</mask>
<g mask="url(#mask20_2002_1077)">
<path fill-rule="evenodd" clip-rule="evenodd" d="M84.9939 36.4609C84.5835 36.2958 84.0016 36.0856 83.3301 36.0181C82.6587 35.9505 81.8977 36.0255 81.1367 36.1982C80.3757 36.3709 79.6147 36.6411 79.0253 36.9112C78.4359 37.1815 78.0181 37.4517 77.8092 37.5868C77.6004 37.7219 77.6004 37.7219 77.7868 37.8494C77.9734 37.9771 78.3464 38.2323 79.2267 38.54C80.1071 38.8477 81.4948 39.208 82.6214 39.2831C83.7479 39.3581 84.6133 39.148 85.2997 38.8853C85.9861 38.6226 86.4934 38.3073 86.7993 38.1347C87.1052 37.9621 87.2096 37.932 87.0232 37.7444C86.8366 37.5568 86.3592 37.2115 86.001 36.9788C85.643 36.7461 85.4042 36.6261 84.9939 36.4609Z" fill="#ED9EA1" stroke="#231F20" stroke-width="0.755867" stroke-miterlimit="22.9256"/>
</g>
<mask id="mask21_2002_1077" style="mask-type:luminance" maskUnits="userSpaceOnUse" x="12" y="-62" width="164" height="213">
<path fill-rule="evenodd" clip-rule="evenodd" d="M12 150.113H175.986V-62H12V150.113Z" fill="white"/>
</mask>
<g mask="url(#mask21_2002_1077)">
<path fill-rule="evenodd" clip-rule="evenodd" d="M91.1414 23.6712C90.3906 23.6712 89.7761 24.2893 89.7761 25.0447V28.2873C89.7761 29.0427 90.3905 29.6608 91.1414 29.6608C91.8923 29.6608 92.5067 29.0427 92.5067 28.2873V25.0447C92.5067 24.2893 91.8923 23.6712 91.1414 23.6712Z" fill="white" stroke="white" stroke-width="0.755867" stroke-miterlimit="22.9256"/>
</g>
<mask id="mask22_2002_1077" style="mask-type:luminance" maskUnits="userSpaceOnUse" x="12" y="-62" width="164" height="213">
<path fill-rule="evenodd" clip-rule="evenodd" d="M12 150.113H175.986V-62H12V150.113Z" fill="white"/>
</mask>
<g mask="url(#mask22_2002_1077)">
<path fill-rule="evenodd" clip-rule="evenodd" d="M95.8912 16.459H80.2569C79.6251 16.459 79.1082 16.979 79.1082 17.6146V18.6696C79.1082 19.3053 79.6251 19.8253 80.2569 19.8253H95.8912C96.523 19.8253 97.0398 19.3053 97.0398 18.6696V17.6146C97.0398 16.979 96.523 16.459 95.8912 16.459Z" fill="white"/>
</g>
<mask id="mask23_2002_1077" style="mask-type:luminance" maskUnits="userSpaceOnUse" x="12" y="-62" width="164" height="213">
<path fill-rule="evenodd" clip-rule="evenodd" d="M12 150.113H175.986V-62H12V150.113Z" fill="white"/>
</mask>
<g mask="url(#mask23_2002_1077)">
<path fill-rule="evenodd" clip-rule="evenodd" d="M87.5602 17.4341H80.566C80.2834 17.4341 80.0521 17.6667 80.0521 17.951V18.4231C80.0521 18.7074 80.2834 18.94 80.566 18.94H87.5602C87.8429 18.94 88.0741 18.7074 88.0741 18.4231V17.951C88.0741 17.6667 87.8429 17.4341 87.5602 17.4341Z" fill="#B9E8FA" stroke="#B9E8FA" stroke-width="0.755867" stroke-miterlimit="22.9256"/>
</g>
<mask id="mask24_2002_1077" style="mask-type:luminance" maskUnits="userSpaceOnUse" x="12" y="-62" width="164" height="213">
<path fill-rule="evenodd" clip-rule="evenodd" d="M12 150.113H175.986V-62H12V150.113Z" fill="white"/>
</mask>
<g mask="url(#mask24_2002_1077)">
<path fill-rule="evenodd" clip-rule="evenodd" d="M90.2757 46.5464C89.273 46.5464 88.4602 47.1203 88.4602 47.8282C88.4602 48.536 89.273 49.1099 90.2757 49.1099C91.2783 49.1099 92.0911 48.536 92.0911 47.8282C92.0911 47.1203 91.2783 46.5464 90.2757 46.5464Z" fill="#8456B3" stroke="#8456B3" stroke-width="0.288" stroke-miterlimit="22.9256"/>
</g>
<mask id="mask25_2002_1077" style="mask-type:luminance" maskUnits="userSpaceOnUse" x="12" y="-62" width="164" height="213">
<path fill-rule="evenodd" clip-rule="evenodd" d="M12 150.113H175.986V-62H12V150.113Z" fill="white"/>
</mask>
<g mask="url(#mask25_2002_1077)">
<path fill-rule="evenodd" clip-rule="evenodd" d="M126.778 52.405V52.2617C126.778 51.0467 127.763 50.0557 128.97 50.0557H129.058V45.8456C129.058 44.6306 130.043 43.6397 131.25 43.6397H137.364C138.571 43.6397 139.556 44.6306 139.556 45.8456V50.0557H140.8C142.008 50.0557 142.993 51.0467 142.993 52.2617V57.614C142.993 58.829 142.008 59.8199 140.8 59.8199H139.556V69.0166C139.556 70.2316 138.571 71.2226 137.364 71.2226H131.25C130.043 71.2226 129.058 70.2316 129.058 69.0166V64.2579C128.742 64.4366 128.378 64.5385 127.991 64.5405V68.0526C127.991 68.8713 127.582 69.5739 126.873 69.9753C124.681 71.2157 122.102 71.5883 119.619 71.5883C116.542 71.5883 113.681 70.7463 111.357 68.6725C111.345 68.6622 111.336 68.6534 111.324 68.6429C109.073 66.5523 108.048 63.8303 108.042 60.7682L102.525 71.3076C102.136 72.0517 101.419 72.4867 100.583 72.4858C99.7471 72.4851 99.0308 72.0484 98.6429 71.3035L89.3324 53.4214C89.3093 53.4586 89.2849 53.4953 89.2595 53.5318L84.5713 60.2297L89.9104 67.7325C90.401 68.4219 90.463 69.271 90.0778 70.025C89.6926 70.7791 88.9703 71.2226 88.1276 71.2226H81.4526C80.7279 71.2226 80.1046 70.903 79.6787 70.3133L78.3794 68.5144L77.0803 70.3133C76.6543 70.903 76.0309 71.2226 75.3063 71.2226H68.6314C67.7888 71.2226 67.0664 70.7791 66.6812 70.025C66.345 69.3668 66.3494 68.6362 66.6822 68.0027C63.8879 70.4254 60.2176 71.2226 56.5702 71.2226H47.1856C45.9779 71.2226 44.9929 70.2316 44.9929 69.0166V45.8456C44.9929 44.6306 45.9779 43.6397 47.1856 43.6397H56.5372C60.5052 43.6397 64.3797 44.6096 67.2469 47.5164C68.027 48.3074 68.6775 49.157 69.208 50.0572C69.236 50.0562 69.2641 50.0556 69.2923 50.0556H75.9341C76.6698 50.0556 77.3027 50.3858 77.7265 50.9909L78.3794 51.923L79.0323 50.9909C79.4561 50.3858 80.089 50.0556 80.8247 50.0556H87.4666C87.5051 50.0556 87.5434 50.0567 87.5813 50.0585L85.9208 46.8691C85.5546 46.1657 85.5785 45.383 85.9872 44.7036C86.3957 44.0241 87.0738 43.6396 87.8631 43.6396H94.6372C95.4842 43.6396 96.2099 44.088 96.5929 44.8479L100.596 52.7906L104.648 44.8392C105.033 44.084 105.756 43.6396 106.599 43.6396H113.373C114.164 43.6396 114.842 44.025 115.251 44.7056C115.659 45.3861 115.682 46.1699 115.314 46.8733L112.974 51.3438C114.858 50.1752 117.02 49.6568 119.321 49.6568C122.162 49.6568 124.705 50.5066 126.778 52.405ZM71.0547 58.611C70.9566 60.2237 70.6418 61.7664 70.071 63.2041L72.1876 60.2297L71.0547 58.611ZM55.6568 54.0355V61.0928H56.1737C56.9395 61.0928 59.1611 60.9805 59.6765 60.2546C59.693 60.2314 59.7074 60.212 59.7246 60.1894C60.355 59.3674 60.3916 58.4939 60.3916 57.481C60.3916 56.556 60.3669 55.6636 59.7637 54.9219C59.129 54.1415 57.0283 54.0355 56.1407 54.0355H55.6568Z" fill="black"/>
</g>
<mask id="mask26_2002_1077" style="mask-type:luminance" maskUnits="userSpaceOnUse" x="12" y="-62" width="164" height="213">
<path fill-rule="evenodd" clip-rule="evenodd" d="M12 150.113H175.986V-62H12V150.113Z" fill="white"/>
</mask>
<g mask="url(#mask26_2002_1077)">
<path d="M56.5703 69.0166C60.5687 69.0166 63.6418 67.9861 65.7236 65.8918C67.8384 63.7973 68.8958 61.0049 68.8958 57.481C68.8958 54.0236 67.8384 51.2312 65.6905 49.0703C63.5757 46.9095 60.5356 45.8456 56.5373 45.8456H47.1857V69.0166H56.5703ZM53.4641 51.8295H56.1408C58.8173 51.8295 60.5687 52.428 61.4608 53.525C62.353 54.6221 62.5844 55.7856 62.5844 57.481C62.5844 59.2097 62.353 60.3733 61.4608 61.5368C60.6347 62.7003 58.8173 63.2988 56.1737 63.2988H53.4641V51.8295ZM75.3064 69.0166L78.3795 64.7615L81.4526 69.0166H88.1276L81.8822 60.2402L87.4667 52.2617H80.8248L78.3795 55.7524L75.9342 52.2617H69.2924L74.8768 60.2402L68.6315 69.0166H75.3064Z" fill="#937BAB"/>
</g>
<mask id="mask27_2002_1077" style="mask-type:luminance" maskUnits="userSpaceOnUse" x="12" y="-62" width="164" height="213">
<path fill-rule="evenodd" clip-rule="evenodd" d="M12 150.113H175.986V-62H12V150.113Z" fill="white"/>
</mask>
<g mask="url(#mask27_2002_1077)">
<path d="M113.373 45.8456H106.599L100.585 57.6472L94.6373 45.8456H87.8632L100.585 70.28L113.373 45.8456ZM110.234 60.7389C110.234 63.3319 111.093 65.4263 112.812 67.022C114.563 68.5845 116.81 69.3824 119.619 69.3824C122.163 69.3824 124.212 68.9502 125.798 68.0526V63.199C124.113 63.9304 122.196 64.296 119.982 64.296C117.834 64.296 116.38 63.5314 116.347 62.3346H127.979C128.045 61.7362 128.078 61.1046 128.078 60.473C128.078 58.0461 127.252 55.985 125.633 54.3561C124.014 52.6939 121.932 51.8628 119.321 51.8628C116.678 51.8628 114.497 52.6606 112.779 54.2563C111.093 55.8521 110.234 57.9465 110.234 60.5727V60.7389ZM116.347 58.6113C116.446 57.5142 117.735 56.5502 119.321 56.5502C120.808 56.5502 122.031 57.5475 122.031 58.6113H116.347ZM137.364 69.0166V57.614H140.8V52.2617H137.364V45.8456H131.25V52.2617H128.97V57.614H131.25V69.0166H137.364Z" fill="#ED9EA1"/>
</g>
<mask id="mask28_2002_1077" style="mask-type:luminance" maskUnits="userSpaceOnUse" x="12" y="-62" width="164" height="213">
<path fill-rule="evenodd" clip-rule="evenodd" d="M12 150.113H175.986V-62H12V150.113Z" fill="white"/>
</mask>
<g mask="url(#mask28_2002_1077)">
<path fill-rule="evenodd" clip-rule="evenodd" d="M115.962 19.2576L120.965 17.3391L121.09 17.6703L116.088 19.5887L115.962 19.2576Z" fill="#B9E8FA" stroke="#B9E8FA" stroke-width="0.288" stroke-miterlimit="22.9256"/>
</g>
<mask id="mask29_2002_1077" style="mask-type:luminance" maskUnits="userSpaceOnUse" x="12" y="-62" width="164" height="213">
<path fill-rule="evenodd" clip-rule="evenodd" d="M12 150.113H175.986V-62H12V150.113Z" fill="white"/>
</mask>
<g mask="url(#mask29_2002_1077)">
<path fill-rule="evenodd" clip-rule="evenodd" d="M116.272 20.0743L121.274 18.1559L121.4 18.487L116.397 20.4055L116.272 20.0743Z" fill="#B9E8FA" stroke="#B9E8FA" stroke-width="0.288" stroke-miterlimit="22.9256"/>
</g>
<mask id="mask30_2002_1077" style="mask-type:luminance" maskUnits="userSpaceOnUse" x="12" y="-62" width="164" height="213">
<path fill-rule="evenodd" clip-rule="evenodd" d="M12 150.113H175.986V-62H12V150.113Z" fill="white"/>
</mask>
<g mask="url(#mask30_2002_1077)">
<path fill-rule="evenodd" clip-rule="evenodd" d="M116.602 20.9462L121.605 19.0278L121.73 19.3589L116.727 21.2773L116.602 20.9462Z" fill="#B9E8FA" stroke="#B9E8FA" stroke-width="0.288" stroke-miterlimit="22.9256"/>
</g>
<mask id="mask31_2002_1077" style="mask-type:luminance" maskUnits="userSpaceOnUse" x="12" y="-62" width="164" height="213">
<path fill-rule="evenodd" clip-rule="evenodd" d="M12 150.113H175.986V-62H12V150.113Z" fill="white"/>
</mask>
<g mask="url(#mask31_2002_1077)">
<path fill-rule="evenodd" clip-rule="evenodd" d="M112.336 12.2834C114.407 11.7194 118.022 10.1543 120.424 9.37166C122.827 8.58906 124.016 8.58906 125.309 9.57884C126.602 10.5685 127.997 12.5481 129.004 14.2744C130.011 16.0007 130.628 17.4738 131.075 18.2104C131.521 18.9469 131.795 18.9469 132.058 18.8319C132.321 18.7168 132.573 18.4866 131.841 16.7948C131.109 15.103 129.393 11.9496 127.997 9.99313C126.602 8.03664 125.526 7.27704 124.691 6.8857C123.856 6.49445 123.261 6.4715 122.346 6.7131C121.431 6.95481 120.195 7.46121 118.434 8.11719C116.672 8.77322 114.384 9.57884 112.76 10.2463C111.135 10.9138 110.174 11.4432 109.957 11.9266C109.74 12.41 110.266 12.8473 112.336 12.2834Z" fill="#8456B3"/>
</g>
<mask id="mask32_2002_1077" style="mask-type:luminance" maskUnits="userSpaceOnUse" x="12" y="-62" width="164" height="213">
<path fill-rule="evenodd" clip-rule="evenodd" d="M12 150.113H175.986V-62H12V150.113Z" fill="white"/>
</mask>
<g mask="url(#mask32_2002_1077)">
<path fill-rule="evenodd" clip-rule="evenodd" d="M114.022 15.3973C115.591 14.9702 118.329 13.7846 120.148 13.1919C121.968 12.5992 122.869 12.5992 123.848 13.3488C124.827 14.0985 125.884 15.5978 126.647 16.9053C127.409 18.2129 127.877 19.3287 128.215 19.8865C128.553 20.4444 128.761 20.4444 128.96 20.3573C129.159 20.27 129.35 20.0958 128.796 18.8143C128.241 17.533 126.941 15.1445 125.884 13.6627C124.827 12.1807 124.013 11.6054 123.38 11.3091C122.748 11.0127 122.297 10.9952 121.604 11.1783C120.911 11.3613 119.975 11.7449 118.641 12.2418C117.306 12.7386 115.573 13.3488 114.343 13.8544C113.113 14.36 112.385 14.7609 112.22 15.1271C112.056 15.4932 112.454 15.8244 114.022 15.3973Z" fill="#8456B3"/>
</g>
<mask id="mask33_2002_1077" style="mask-type:luminance" maskUnits="userSpaceOnUse" x="12" y="-62" width="164" height="213">
<path fill-rule="evenodd" clip-rule="evenodd" d="M12 150.113H175.986V-62H12V150.113Z" fill="white"/>
</mask>
<g mask="url(#mask33_2002_1077)">
<path fill-rule="evenodd" clip-rule="evenodd" d="M107.138 21.5665C107.447 22.1579 107.82 22.7991 108.267 23.442C109.411 25.0876 111.036 26.7449 112.739 27.8018C114.442 28.8588 116.225 29.3153 118.112 29.4764C120 29.6375 121.993 29.5032 123.744 29.1414C124.929 28.8967 126.003 28.5477 127.027 28.1445L122.777 17.4495C122.368 16.422 121.191 15.9142 120.17 16.325L107.138 21.5665Z" fill="#937BAB"/>
</g>
<mask id="mask34_2002_1077" style="mask-type:luminance" maskUnits="userSpaceOnUse" x="12" y="-62" width="164" height="213">
<path fill-rule="evenodd" clip-rule="evenodd" d="M12 150.113H175.986V-62H12V150.113Z" fill="white"/>
</mask>
<g mask="url(#mask34_2002_1077)">
<path fill-rule="evenodd" clip-rule="evenodd" d="M115.646 30.9921C115.986 31.3218 116.533 31.3116 116.86 30.9694L119.715 27.9886C120.043 27.6464 120.033 27.0966 119.693 26.767C119.352 26.4372 118.806 26.4474 118.478 26.7896L115.623 29.7703C115.296 30.1126 115.306 30.6623 115.646 30.9921Z" fill="#231F20"/>
</g>
<mask id="mask35_2002_1077" style="mask-type:luminance" maskUnits="userSpaceOnUse" x="12" y="-62" width="164" height="213">
<path fill-rule="evenodd" clip-rule="evenodd" d="M12 150.113H175.986V-62H12V150.113Z" fill="white"/>
</mask>
<g mask="url(#mask35_2002_1077)">
<path fill-rule="evenodd" clip-rule="evenodd" d="M112.875 30.4469C112.41 30.5258 111.964 30.207 111.886 29.7384L111.203 25.6565C111.124 25.1879 111.441 24.74 111.907 24.6611C112.373 24.5822 112.818 24.901 112.897 25.3697L113.58 29.4514C113.658 29.9201 113.341 30.368 112.875 30.4469Z" fill="#231F20"/>
</g>
<mask id="mask36_2002_1077" style="mask-type:luminance" maskUnits="userSpaceOnUse" x="12" y="-62" width="164" height="213">
<path fill-rule="evenodd" clip-rule="evenodd" d="M12 150.113H175.986V-62H12V150.113Z" fill="white"/>
</mask>
<g mask="url(#mask36_2002_1077)">
<path fill-rule="evenodd" clip-rule="evenodd" d="M62.1759 15.8647C62.5345 15.8647 62.828 16.1598 62.828 16.5207V22.3396C62.828 22.7003 62.5345 22.9955 62.1759 22.9955C61.8172 22.9955 61.5237 22.7003 61.5237 22.3396V16.5207C61.5237 16.1598 61.8172 15.8647 62.1759 15.8647Z" fill="#231F20" stroke="#231F20" stroke-width="0.288" stroke-miterlimit="22.9256"/>
</g>
<mask id="mask37_2002_1077" style="mask-type:luminance" maskUnits="userSpaceOnUse" x="12" y="-62" width="164" height="213">
<path fill-rule="evenodd" clip-rule="evenodd" d="M12 150.113H175.986V-62H12V150.113Z" fill="white"/>
</mask>
<g mask="url(#mask37_2002_1077)">
<path fill-rule="evenodd" clip-rule="evenodd" d="M72.6088 15.8647C72.9675 15.8647 73.2609 16.1598 73.2609 16.5207V22.3396C73.2609 22.7003 72.9675 22.9955 72.6088 22.9955C72.2502 22.9955 71.9568 22.7003 71.9568 22.3396V16.5207C71.9568 16.1598 72.2502 15.8647 72.6088 15.8647Z" fill="#231F20" stroke="#231F20" stroke-width="0.288" stroke-miterlimit="22.9256"/>
</g>
<mask id="mask38_2002_1077" style="mask-type:luminance" maskUnits="userSpaceOnUse" x="12" y="-62" width="164" height="213">
<path fill-rule="evenodd" clip-rule="evenodd" d="M12 150.113H175.986V-62H12V150.113Z" fill="white"/>
</mask>
<g mask="url(#mask38_2002_1077)">
<path fill-rule="evenodd" clip-rule="evenodd" d="M67.0074 15.8647C67.366 15.8647 67.6596 16.1598 67.6596 16.5207V22.3396C67.6596 22.7003 67.366 22.9955 67.0075 22.9955C66.6489 22.9955 66.3553 22.7003 66.3553 22.3396V16.5207C66.3553 16.1598 66.6488 15.8647 67.0074 15.8647Z" fill="#231F20" stroke="#231F20" stroke-width="0.288" stroke-miterlimit="22.9256"/>
</g>
<mask id="mask39_2002_1077" style="mask-type:luminance" maskUnits="userSpaceOnUse" x="12" y="-62" width="164" height="213">
<path fill-rule="evenodd" clip-rule="evenodd" d="M12 150.113H175.986V-62H12V150.113Z" fill="white"/>
</mask>
<g mask="url(#mask39_2002_1077)">
<path fill-rule="evenodd" clip-rule="evenodd" d="M84.6797 73.4336C85.7879 73.4336 86.9359 73.7994 87.4743 74.679C87.7878 75.1912 87.2077 75.5675 86.6796 75.7887C85.8242 76.1458 86.1463 76.0378 85.5715 75.6964C85.31 75.5431 85.0052 75.4542 84.6797 75.4542C83.7083 75.4542 82.9205 76.2469 82.9205 77.2241C82.9205 78.2031 83.7083 79.1856 84.6797 79.1856C85.3775 79.1856 86.2121 78.7501 86.2641 77.9993C86.316 77.2537 86.9255 77.6544 87.767 77.5987C88.1722 77.5708 88.451 77.6195 88.3886 78.0916C88.1514 79.8493 86.6883 81.3578 84.6624 81.2359C78.9137 80.8893 80.1241 73.4336 84.6797 73.4336Z" fill="#231F20"/>
</g>
<mask id="mask40_2002_1077" style="mask-type:luminance" maskUnits="userSpaceOnUse" x="12" y="-62" width="164" height="213">
<path fill-rule="evenodd" clip-rule="evenodd" d="M12 150.113H175.986V-62H12V150.113Z" fill="white"/>
</mask>
<g mask="url(#mask40_2002_1077)">
<path fill-rule="evenodd" clip-rule="evenodd" d="M99.763 73.35H100.693C100.98 73.35 101.214 73.5868 101.214 73.876V80.8439C101.214 81.1331 100.98 81.3683 100.693 81.3683H99.763C99.4998 81.3892 99.2314 81.3457 98.9354 80.9206C98.099 79.7674 97.2626 78.6142 96.4264 77.4627C96.2255 77.3965 96.061 77.4331 95.9935 77.7433V80.8439C95.9935 81.1331 95.7597 81.3683 95.4723 81.3683H94.5424C94.255 81.3683 94.0212 81.1331 94.0212 80.8439V73.876C94.0212 73.5868 94.255 73.35 94.5424 73.35H95.396C95.6229 73.329 95.9173 73.3012 96.2999 73.8377C97.093 74.9125 97.8877 75.9891 98.6808 77.0656C99.0444 77.4471 99.228 77.2555 99.2401 76.5221V76.3357V73.876C99.2401 73.5868 99.4755 73.35 99.763 73.35Z" fill="#231F20"/>
</g>
<mask id="mask41_2002_1077" style="mask-type:luminance" maskUnits="userSpaceOnUse" x="12" y="-62" width="164" height="213">
<path fill-rule="evenodd" clip-rule="evenodd" d="M12 150.113H175.986V-62H12V150.113Z" fill="white"/>
</mask>
<g mask="url(#mask41_2002_1077)">
<path fill-rule="evenodd" clip-rule="evenodd" d="M90.8682 75.7835H91.4656H91.6197C91.7876 75.7835 91.9573 75.9246 92.0092 76.0918L93.4914 80.7795C93.5434 80.9467 93.4343 81.0548 93.2698 81.0879L92.366 81.2673C92.2014 81.2987 92.0231 81.128 91.9763 80.9589L91.753 80.1402H90.0422L89.7323 80.9102C89.6665 81.0704 89.4725 81.208 89.315 81.1453L88.451 80.797C88.2934 80.7342 88.1982 80.6071 88.2692 80.4485L90.2622 76.036C90.3332 75.8793 90.5115 75.8044 90.6794 75.8009L90.7799 75.7993C90.8076 75.7888 90.837 75.7835 90.8682 75.7835ZM91.0483 78.0132C91.353 78.0132 91.6023 78.2624 91.6023 78.5707C91.6023 78.8773 91.353 79.1281 91.0483 79.1281C90.7418 79.1281 90.4941 78.8773 90.4941 78.5707C90.4941 78.2624 90.7418 78.0132 91.0483 78.0132ZM90.9911 77.468C91.0638 77.468 91.1244 77.529 91.1244 77.6039C91.1244 77.6771 91.0638 77.738 90.9911 77.738C90.9166 77.738 90.8561 77.6771 90.8561 77.6039C90.8561 77.529 90.9166 77.468 90.9911 77.468ZM90.5825 77.5847C90.6569 77.5847 90.7175 77.644 90.7175 77.7189C90.7175 77.792 90.6569 77.853 90.5825 77.853C90.5097 77.853 90.4491 77.792 90.4491 77.7189C90.4491 77.644 90.5097 77.5847 90.5825 77.5847ZM91.4483 77.5969C91.5227 77.5969 91.5833 77.6561 91.5833 77.731C91.5833 77.8059 91.5227 77.8652 91.4483 77.8652C91.3755 77.8652 91.3149 77.8059 91.3149 77.731C91.3149 77.6561 91.3755 77.5969 91.4483 77.5969Z" fill="#231F20"/>
</g>
<mask id="mask42_2002_1077" style="mask-type:luminance" maskUnits="userSpaceOnUse" x="12" y="-62" width="164" height="213">
<path fill-rule="evenodd" clip-rule="evenodd" d="M12 150.113H175.986V-62H12V150.113Z" fill="white"/>
</mask>
<g mask="url(#mask42_2002_1077)">
<path fill-rule="evenodd" clip-rule="evenodd" d="M102.466 75.7486H103.332C103.498 75.7486 103.633 75.8862 103.633 76.0518V81.0652C103.633 81.2325 103.498 81.3683 103.332 81.3683H102.466C102.3 81.3683 102.165 81.2325 102.165 81.0652V76.0518C102.165 75.8862 102.3 75.7486 102.466 75.7486Z" fill="#231F20"/>
</g>
<mask id="mask43_2002_1077" style="mask-type:luminance" maskUnits="userSpaceOnUse" x="12" y="-62" width="164" height="213">
<path fill-rule="evenodd" clip-rule="evenodd" d="M12 150.113H175.986V-62H12V150.113Z" fill="white"/>
</mask>
<g mask="url(#mask43_2002_1077)">
<path fill-rule="evenodd" clip-rule="evenodd" d="M109.731 74.3969H110.561C110.817 74.3969 111.027 74.6076 111.027 74.8654V81.0844C111.027 81.3422 110.817 81.553 110.561 81.553H109.731C109.498 81.5703 109.257 81.5321 108.992 81.1523C108.248 80.1246 107.501 79.095 106.755 78.0655C106.575 78.0081 106.428 78.0411 106.369 78.3181V81.0844C106.369 81.3422 106.158 81.553 105.901 81.553H105.072C104.816 81.553 104.606 81.3422 104.606 81.0844V74.8654C104.606 74.6076 104.816 74.3969 105.072 74.3969H105.834C106.036 74.376 106.3 74.3533 106.641 74.8306C107.349 75.7905 108.057 76.7521 108.765 77.7119C109.091 78.0533 109.254 77.8808 109.266 77.2259V77.0604V74.8654C109.266 74.6076 109.475 74.3969 109.731 74.3969Z" fill="#231F20"/>
</g>
<mask id="mask44_2002_1077" style="mask-type:luminance" maskUnits="userSpaceOnUse" x="12" y="-62" width="164" height="213">
<path fill-rule="evenodd" clip-rule="evenodd" d="M12 150.113H175.986V-62H12V150.113Z" fill="white"/>
</mask>
<g mask="url(#mask44_2002_1077)">
<path fill-rule="evenodd" clip-rule="evenodd" d="M116.898 74.3969H117.728C117.984 74.3969 118.195 74.6076 118.195 74.8654V81.0844C118.195 81.3422 117.984 81.553 117.728 81.553H116.898C116.664 81.5703 116.425 81.5321 116.161 81.1523C115.414 80.1246 114.668 79.095 113.922 78.0655C113.742 78.0081 113.595 78.0411 113.536 78.3181V81.0844C113.536 81.3422 113.326 81.553 113.07 81.553H112.24C111.984 81.553 111.775 81.3422 111.775 81.0844V74.8654C111.775 74.6076 111.984 74.3969 112.24 74.3969H113.001C113.203 74.376 113.466 74.3533 113.807 74.8306C114.516 75.7905 115.226 76.7521 115.934 77.7119C116.258 78.0533 116.42 77.8808 116.432 77.2259V77.0604V74.8654C116.432 74.6076 116.642 74.3969 116.898 74.3969Z" fill="#231F20"/>
</g>
<mask id="mask45_2002_1077" style="mask-type:luminance" maskUnits="userSpaceOnUse" x="12" y="-62" width="164" height="213">
<path fill-rule="evenodd" clip-rule="evenodd" d="M12 150.113H175.986V-62H12V150.113Z" fill="white"/>
</mask>
<g mask="url(#mask45_2002_1077)">
<path fill-rule="evenodd" clip-rule="evenodd" d="M121.192 75.7835H121.788H121.944C122.112 75.7835 122.28 75.9246 122.333 76.0918L123.816 80.7795C123.868 80.9467 123.759 81.0548 123.594 81.0879L122.69 81.2673C122.526 81.2987 122.346 81.128 122.301 80.9589L122.076 80.1402H120.366L120.057 80.9102C119.991 81.0704 119.797 81.208 119.639 81.1453L118.775 80.797C118.618 80.7342 118.522 80.6071 118.593 80.4485L120.586 76.036C120.657 75.8793 120.836 75.8044 121.004 75.8009L121.104 75.7993C121.13 75.7888 121.161 75.7835 121.192 75.7835ZM121.372 78.0132C121.677 78.0132 121.927 78.2624 121.927 78.5707C121.927 78.8773 121.677 79.1281 121.372 79.1281C121.066 79.1281 120.818 78.8773 120.818 78.5707C120.818 78.2624 121.066 78.0132 121.372 78.0132ZM121.315 77.468C121.388 77.468 121.449 77.529 121.449 77.6039C121.449 77.6771 121.388 77.738 121.315 77.738C121.241 77.738 121.18 77.6771 121.18 77.6039C121.18 77.529 121.241 77.468 121.315 77.468ZM120.907 77.5847C120.981 77.5847 121.042 77.644 121.042 77.7189C121.042 77.792 120.981 77.853 120.907 77.853C120.834 77.853 120.773 77.792 120.773 77.7189C120.773 77.644 120.834 77.5847 120.907 77.5847ZM121.772 77.5969C121.847 77.5969 121.907 77.6561 121.907 77.731C121.907 77.8059 121.847 77.8652 121.772 77.8652C121.7 77.8652 121.639 77.8059 121.639 77.731C121.639 77.6561 121.7 77.5969 121.772 77.5969Z" fill="#231F20"/>
</g>
<mask id="mask46_2002_1077" style="mask-type:luminance" maskUnits="userSpaceOnUse" x="12" y="-62" width="164" height="213">
<path fill-rule="evenodd" clip-rule="evenodd" d="M12 150.113H175.986V-62H12V150.113Z" fill="white"/>
</mask>
<g mask="url(#mask46_2002_1077)">
<path d="M70.5794 81.1344C71.182 81.1344 71.6758 80.9456 72.0709 80.558C72.476 80.1704 72.6735 79.6736 72.6735 79.0872C72.6735 78.2028 72.1895 77.5568 71.2906 77.368C71.8437 77.1394 72.1697 76.6425 72.1697 75.9767C72.1697 75.4699 71.992 75.0425 71.6363 74.7146C71.2808 74.3768 70.8461 74.2078 70.3225 74.2078H67.1221V81.1344H70.5794ZM68.9989 75.7382H69.9076C70.2336 75.7382 70.4905 75.9966 70.4905 76.3444C70.4905 76.7121 70.2534 76.9705 69.9076 76.9705H68.9989V75.7382ZM68.9989 78.2624H70.1546C70.5794 78.2624 70.8658 78.5407 70.8658 78.9083C70.8658 79.296 70.5695 79.5841 70.1645 79.5841H68.9989V78.2624Z" fill="#231F20"/>
</g>
<mask id="mask47_2002_1077" style="mask-type:luminance" maskUnits="userSpaceOnUse" x="12" y="-62" width="164" height="213">
<path fill-rule="evenodd" clip-rule="evenodd" d="M12 150.113H175.986V-62H12V150.113Z" fill="white"/>
</mask>
<g mask="url(#mask47_2002_1077)">
<path d="M75.7914 81.1344V79.2913L77.7422 75.9334H76.2291L75.0943 77.9556L73.9595 75.9334H72.4464L74.3971 79.2913V81.1344H75.7914Z" fill="#231F20"/>
</g>
</svg>
