<svg width="612" height="178" viewBox="0 0 612 178" fill="none" xmlns="http://www.w3.org/2000/svg">
<path d="M68.0251 119.334C110.8 112.77 152.218 101.005 194.875 93.8695C255.638 83.6982 318.915 83.0837 379.582 93.6322C438.538 103.858 499.669 128.8 557.924 141.472C609.586 152.714 665.99 157.343 716 143.297V85H-169V101.638C-93.4316 125.274 -11.4603 131.394 68.0251 119.334Z" fill="#F8842D"/>
<rect x="-30" y="-41" width="672" height="127" fill="#F8842D"/>
<path d="M66.7999 164.12C72.3582 161.332 77.7402 156.336 83.2832 153.305C91.1789 148.986 99.4014 148.725 107.285 153.204C114.946 157.547 122.889 168.139 130.459 173.521C137.172 178.295 144.502 180.261 151 174.296V149.538H36V156.604C45.8196 166.642 56.4713 169.241 66.7999 164.12Z" fill="#00B0F0"/>
<rect x="36" y="-7" width="115" height="156.92" fill="#00B0F0"/>
<path fill-rule="evenodd" clip-rule="evenodd" d="M85.6633 51.9653L85.5351 51.9224L85.6283 51.665C85.5973 51.6416 85.5662 51.6182 85.5351 51.5988C85.508 51.5754 85.4808 51.552 85.4497 51.5286C85.376 51.474 85.3061 51.4155 85.2323 51.357C85.209 51.3375 85.1857 51.318 85.1624 51.2985C85.1158 51.2634 85.0731 51.2283 85.0304 51.1893C85.0071 51.1698 84.9838 51.1503 84.9605 51.1308C84.8829 51.0646 84.8091 51.0022 84.7315 50.932C84.716 50.9164 84.6965 50.9008 84.6771 50.8852C84.6344 50.8462 84.5878 50.8033 84.5451 50.7643C84.5296 50.7487 84.5102 50.7331 84.4947 50.7175C84.417 50.6434 84.3394 50.5694 84.2617 50.4914C84.2462 50.4797 84.2306 50.4641 84.2151 50.4485C84.1724 50.4017 84.1258 50.3588 84.0831 50.3159C84.0753 50.3081 84.0715 50.3003 84.0637 50.2964C83.9783 50.2106 83.8968 50.1209 83.8152 50.0313C83.7997 50.0196 83.788 50.004 83.7725 49.9884C83.6405 49.848 83.5124 49.6998 83.3882 49.5517C83.3765 49.54 83.3649 49.5283 83.3571 49.5127C83.229 49.3645 83.1047 49.2085 82.9844 49.0526C82.9766 49.0409 82.9689 49.0331 82.9611 49.0214C82.8407 48.8615 82.7204 48.6977 82.6078 48.534C82.6 48.5262 82.5961 48.5184 82.5923 48.5106C82.5185 48.4053 82.4447 48.2961 82.3748 48.1908C82.371 48.183 82.3671 48.1791 82.3632 48.1713C82.3282 48.1167 82.2894 48.0622 82.2545 48.0037L82.2234 47.9569L82.2195 47.9491C80.8723 45.7811 80.1657 43.2934 80.1657 40.7355C80.1657 40.3846 80.1813 40.0297 80.2045 39.6788C79.6144 39.2148 79.1252 38.6143 78.6749 38.0216C78.4613 37.7448 78.2556 37.464 78.0459 37.1833C77.9916 37.117 77.9139 37.0078 77.8479 36.9415C77.7353 36.8909 77.5645 36.848 77.4519 36.809C77.118 36.6959 76.8113 36.5516 76.524 36.3411C75.6854 35.725 75.2971 34.7151 75.0719 33.7286C74.9167 33.0462 74.8235 32.3366 74.7342 31.6425C74.6294 30.8353 74.5323 30.0321 74.4119 29.2289C74.3848 29.0651 74.3576 28.8974 74.3304 28.7298C74.21 27.9889 74.0703 27.252 73.9499 26.5072C73.849 25.8833 73.7442 25.2166 73.7364 24.581C73.7209 23.2007 74.2877 22.2531 75.7087 22.0465C76.9122 21.871 78.2711 22.2219 79.4009 22.6041C80.7559 23.0681 82.1186 23.6881 83.3687 24.3899C83.9317 24.7058 84.483 25.045 85.011 25.4193C86.2301 26.281 87.193 27.2442 87.7093 28.5192C89.5768 27.5873 91.6345 27.1038 93.7388 27.1038C96.0527 27.1038 98.3006 27.6887 100.304 28.7999C100.778 27.4079 101.772 26.359 103.103 25.4193C103.631 25.045 104.183 24.7058 104.746 24.3899C105.996 23.6881 107.358 23.0681 108.713 22.6041C109.843 22.2219 111.202 21.871 112.406 22.0465C113.827 22.2531 114.397 23.2007 114.378 24.581C114.37 25.2166 114.265 25.8833 114.164 26.5072C114.044 27.252 113.908 27.9889 113.784 28.7298C113.757 28.8974 113.729 29.0651 113.706 29.2289C113.582 30.0321 113.485 30.8353 113.38 31.6425C113.291 32.3366 113.198 33.0462 113.042 33.7286C112.821 34.7151 112.429 35.725 111.59 36.3411C111.303 36.5516 110.996 36.6959 110.662 36.809C110.55 36.848 110.379 36.8909 110.266 36.9415C110.2 37.0078 110.123 37.117 110.072 37.1833C109.859 37.464 109.653 37.7448 109.439 38.0216C108.857 38.7898 108.166 39.6125 107.296 40.0843C107.308 40.3027 107.312 40.5171 107.312 40.7355C107.312 43.3987 106.559 45.9995 105.087 48.2181C104.784 48.6743 104.458 49.1149 104.105 49.5361L104.097 49.5439C103.969 49.6998 103.833 49.8519 103.693 50.004L103.682 50.0157C103.546 50.1638 103.402 50.312 103.259 50.4524L103.251 50.4563C103.161 50.546 103.072 50.6356 102.979 50.7214C102.971 50.7292 102.96 50.737 102.952 50.7448C102.812 50.8774 102.668 51.0061 102.521 51.1308C102.505 51.1425 102.49 51.1542 102.474 51.1698C102.331 51.2907 102.187 51.4077 102.036 51.5247C102.016 51.5403 101.997 51.5559 101.977 51.5715C101.958 51.5832 101.942 51.5949 101.927 51.6105L101.923 51.626V51.6572C101.923 51.6728 101.919 51.6845 101.919 51.7001V51.704C101.915 51.7391 101.915 51.7781 101.907 51.8171C101.884 52.0355 101.838 52.2538 101.764 52.4605C101.546 53.0649 101.112 53.4782 100.653 53.9032C99.908 54.5895 99.1237 55.2016 98.2152 55.654C98.0444 55.7358 97.8736 55.8138 97.695 55.8879C97.6134 56.7262 97.101 57.4398 96.5264 58.0286C95.9168 58.6525 95.2024 59.1945 94.5153 59.7209L93.8281 60.2511L93.137 59.7209C92.4498 59.1945 91.7354 58.6525 91.1298 58.0286C90.5008 57.3852 89.9495 56.5976 89.9456 55.6618C89.5457 55.4902 89.1497 55.303 88.7731 55.1003C87.8724 54.6129 86.9095 53.9227 86.2961 53.0922C86.0981 52.827 85.9273 52.5307 85.8108 52.2148L85.6322 52.1914L85.6633 51.9653Z" fill="black"/>
<path fill-rule="evenodd" clip-rule="evenodd" d="M129.558 66.9734L132.346 60.8087C132.722 59.9704 133.584 59.5103 134.477 59.4908L134.555 59.4869C134.679 59.4635 134.807 59.4518 134.932 59.4518H136.617C137.595 59.4518 138.484 60.1615 138.775 61.0856L142.099 71.5784C142.254 72.0658 142.219 72.5883 141.967 73.0406C141.675 73.567 141.155 73.8907 140.577 74.0037L138.55 74.4054C137.447 74.6237 136.399 73.7893 136.116 72.7482L135.887 71.9099H133.988L133.631 72.7872C133.215 73.8166 132.02 74.4911 130.948 74.0622L129.426 73.454C129.104 74.3937 128.211 75.0721 127.163 75.0721H125.35C124.131 75.1501 123.253 74.6081 122.554 73.6138C121.405 72.0346 120.26 70.4554 119.111 68.8763V72.6702C119.111 73.992 118.035 75.0721 116.719 75.0721H114.859C114.094 75.0721 113.415 74.7134 112.976 74.1519C112.538 74.7134 111.858 75.0721 111.093 75.0721H109.28C108.057 75.1501 107.184 74.6081 106.481 73.6138C105.336 72.0346 104.186 70.4554 103.041 68.8763V72.6702C103.041 73.9959 101.966 75.0721 100.646 75.0721H98.7859C97.827 75.0721 96.9961 74.4989 96.6157 73.6801C96.2624 74.265 95.6179 74.6627 94.8841 74.6627H92.9429C92.1275 74.6627 91.4209 74.1714 91.1026 73.4734C90.6561 74.187 89.8641 74.6627 88.9672 74.6627H86.929C85.6128 74.7446 84.6849 74.1636 83.9317 73.0913C82.5457 71.1885 81.1635 69.2857 79.7814 67.379V72.1321C79.7814 73.5241 78.6477 74.6627 77.2617 74.6627H75.1768C74.4081 74.6627 73.717 74.3118 73.2511 73.762C73.0453 73.8751 72.8201 73.957 72.5833 74.0037L70.5567 74.4054C69.454 74.6237 68.4058 73.7893 68.1224 72.7482L67.8933 71.9099H65.9948L65.6376 72.7872C65.2261 73.8166 64.0264 74.4911 62.9548 74.0622L61.0175 73.2863C60.4662 73.064 60.0042 72.6468 59.81 72.0697C59.7945 72.0229 59.779 71.9761 59.7673 71.9294C59.0685 72.5844 58.2687 73.1303 57.3952 73.5358C55.9975 74.187 54.4756 74.4522 52.942 74.3586C50.6824 74.226 48.4422 73.6099 46.6097 72.2335C45.0684 71.0754 43.9774 69.4962 43.4222 67.6519C42.5254 64.6807 43.0961 61.3429 44.7656 58.7539C46.6253 55.8645 49.6264 54.1879 53.0624 54.1879C55.8422 54.1879 58.9443 55.1237 60.4778 57.6231C60.8195 58.1846 60.9593 58.8279 60.8195 59.4752C60.5322 60.7931 59.2199 61.5847 58.0668 62.0643C57.698 62.2203 57.3214 62.3879 56.9448 62.5166C56.5138 62.6648 56.0907 62.7272 55.6442 62.5868C55.3219 62.4854 55.1123 62.3216 54.8599 62.115C54.7046 61.9902 54.5532 61.881 54.3785 61.7797C53.9786 61.5418 53.5282 61.4209 53.0624 61.4209C51.6297 61.4209 50.465 62.5868 50.465 64.0295C50.465 64.4701 50.5737 64.9107 50.7523 65.3124C51.1561 66.2131 52.0219 67.067 53.0624 67.067C53.404 67.067 53.7573 66.9968 54.0757 66.8759C54.592 66.6849 55.2288 66.2794 55.2715 65.6672C55.3219 64.9107 55.5859 64.2011 56.2382 63.7644C56.8749 63.3315 57.5932 63.351 58.3192 63.4251C58.8472 63.4797 59.3636 63.5499 59.8955 63.5148C60.6797 63.4641 61.4795 63.5148 62.089 64.0802C62.3065 64.2791 62.4618 64.5091 62.5666 64.7548L64.3525 60.8087C64.7291 59.9704 65.591 59.5103 66.484 59.4908L66.5616 59.4869C66.6859 59.4635 66.814 59.4518 66.9382 59.4518H68.6232C69.6016 59.4518 70.4907 60.1615 70.7818 61.0856L72.6571 67.0124V56.5352C72.6571 55.1393 73.7907 54.0046 75.1768 54.0046H77.0287C77.5334 53.9617 77.9683 53.989 78.4536 54.1762C79.1835 54.4608 79.7503 55.0262 80.2045 55.6462C81.5828 57.5334 82.9727 59.405 84.3627 61.2806V56.5352C84.3627 55.1393 85.4924 54.0046 86.8824 54.0046H88.9672C90.3533 54.0046 91.4831 55.1393 91.4831 56.5352V59.9977C91.8519 59.6156 92.3721 59.3738 92.9429 59.3738H94.8841C95.482 59.3738 96.0255 59.639 96.3944 60.0562V58.75C96.3944 57.4242 97.4698 56.348 98.7859 56.348H100.432C100.902 56.3051 101.31 56.3324 101.764 56.5079C102.443 56.773 102.967 57.2916 103.391 57.8726C104.532 59.4362 105.689 60.9881 106.842 62.5439V58.75C106.842 57.4242 107.914 56.348 109.234 56.348H111.093C111.858 56.348 112.538 56.7068 112.976 57.2682C113.415 56.7068 114.094 56.348 114.859 56.348H116.505C116.975 56.3051 117.383 56.3324 117.837 56.5079C118.513 56.773 119.037 57.2916 119.46 57.8726C120.605 59.4362 121.758 60.9881 122.911 62.5439V58.75C122.911 57.4242 123.987 56.348 125.303 56.348H127.163C128.483 56.348 129.558 57.4242 129.558 58.75V66.9734Z" fill="black"/>
<path fill-rule="evenodd" clip-rule="evenodd" d="M53.0623 55.5448C55.5471 55.5448 58.1212 56.3636 59.3286 58.3327C60.0313 59.4791 58.7307 60.3214 57.5466 60.8166C55.6286 61.6159 56.3508 61.3741 55.0618 60.6099C54.4756 60.2668 53.7922 60.0679 53.0623 60.0679C50.8843 60.0679 49.1178 61.842 49.1178 64.0295C49.1178 66.2209 50.8843 68.4201 53.0623 68.4201C54.627 68.4201 56.4983 67.4452 56.6148 65.7647C56.7313 64.0958 58.0979 64.9926 59.9847 64.8679C60.8932 64.8055 61.5183 64.9146 61.3785 65.9713C60.8467 69.9057 57.566 73.2824 53.0235 73.0094C40.1338 72.2335 42.8476 55.5448 53.0623 55.5448Z" fill="#937BAB"/>
<path fill-rule="evenodd" clip-rule="evenodd" d="M86.8824 55.3576H88.9672C89.6117 55.3576 90.1359 55.8879 90.1359 56.5352V72.1321C90.1359 72.7794 89.6117 73.3058 88.9672 73.3058H86.8824C86.2922 73.3526 85.6905 73.2551 85.0266 72.3037C83.1513 69.7224 81.2761 67.1411 79.4009 64.5637C78.9505 64.4155 78.5817 64.4974 78.4303 65.1915V72.1321C78.4303 72.7794 77.9061 73.3058 77.2617 73.3058H75.1768C74.5323 73.3058 74.0082 72.7794 74.0082 72.1321V56.5352C74.0082 55.8879 74.5323 55.3576 75.1768 55.3576H77.0908C77.5994 55.3108 78.2595 55.2484 79.1175 56.4494C80.8956 58.8552 82.6777 61.265 84.4558 63.6747C85.2712 64.5286 85.6827 64.0997 85.7099 62.4581V56.5352C85.7099 55.8879 86.2379 55.3576 86.8824 55.3576Z" fill="#ED9EA1"/>
<path fill-rule="evenodd" clip-rule="evenodd" d="M66.9382 60.8048H68.6232C68.9998 60.8048 69.3803 61.1207 69.4968 61.495L72.8201 71.9878C72.9366 72.3622 72.692 72.6039 72.3232 72.678L70.2966 73.0796C69.9277 73.1498 69.5278 72.7677 69.423 72.3895L68.9222 70.5568H65.0863L64.3913 72.2803C64.2438 72.639 63.809 72.947 63.4557 72.8067L61.5183 72.0268C61.165 71.8865 60.9515 71.6018 61.1107 71.247L65.5794 61.3702C65.7386 61.0193 66.1384 60.8516 66.515 60.8438L66.7402 60.8399C66.8023 60.8165 66.8683 60.8048 66.9382 60.8048ZM67.342 65.7959C68.0253 65.7959 68.5844 66.3534 68.5844 67.0436C68.5844 67.7299 68.0253 68.2914 67.342 68.2914C66.6548 68.2914 66.0996 67.7299 66.0996 67.0436C66.0996 66.3534 66.6548 65.7959 67.342 65.7959ZM67.2139 64.5754C67.3769 64.5754 67.5128 64.7119 67.5128 64.8795C67.5128 65.0433 67.3769 65.1798 67.2139 65.1798C67.0469 65.1798 66.9111 65.0433 66.9111 64.8795C66.9111 64.7119 67.0469 64.5754 67.2139 64.5754ZM66.2976 64.8366C66.4646 64.8366 66.6005 64.9692 66.6005 65.1369C66.6005 65.3007 66.4646 65.4371 66.2976 65.4371C66.1346 65.4371 65.9987 65.3007 65.9987 65.1369C65.9987 64.9692 66.1346 64.8366 66.2976 64.8366ZM68.2389 64.8639C68.4058 64.8639 68.5417 64.9965 68.5417 65.1642C68.5417 65.3318 68.4058 65.4644 68.2389 65.4644C68.0758 65.4644 67.9399 65.3318 67.9399 65.1642C67.9399 64.9965 68.0758 64.8639 68.2389 64.8639Z" fill="#937BAB"/>
<path fill-rule="evenodd" clip-rule="evenodd" d="M92.9429 60.7269H94.8841C95.2568 60.7269 95.5596 61.0349 95.5596 61.4054V72.6273C95.5596 73.0017 95.2568 73.3058 94.8841 73.3058H92.9429C92.5701 73.3058 92.2673 73.0017 92.2673 72.6273V61.4054C92.2673 61.0349 92.5701 60.7269 92.9429 60.7269Z" fill="#ED9EA1"/>
<path fill-rule="evenodd" clip-rule="evenodd" d="M109.234 57.701H111.093C111.668 57.701 112.138 58.1729 112.138 58.7499V72.6702C112.138 73.2473 111.668 73.7191 111.093 73.7191H109.234C108.709 73.7581 108.17 73.6723 107.576 72.8223C105.906 70.5217 104.233 68.2173 102.56 65.9128C102.156 65.7842 101.826 65.8582 101.694 66.4782V72.6702C101.694 73.2473 101.22 73.7191 100.646 73.7191H98.7859C98.2113 73.7191 97.7416 73.2473 97.7416 72.6702V58.7499C97.7416 58.1729 98.2113 57.701 98.7859 57.701H100.494C100.948 57.6543 101.539 57.6036 102.303 58.672C103.891 60.8204 105.479 62.9728 107.067 65.1213C107.797 65.8855 108.162 65.4995 108.189 64.0334V58.7499C108.189 58.1729 108.659 57.701 109.234 57.701Z" fill="#ED9EA1"/>
<path fill-rule="evenodd" clip-rule="evenodd" d="M125.303 57.701H127.163C127.737 57.701 128.211 58.1729 128.211 58.7499V72.6702C128.211 73.2473 127.737 73.7191 127.163 73.7191H125.303C124.779 73.7581 124.243 73.6723 123.649 72.8223C121.976 70.5217 120.302 68.2173 118.629 65.9128C118.225 65.7842 117.895 65.8582 117.763 66.4782V72.6702C117.763 73.2473 117.294 73.7191 116.719 73.7191H114.859C114.285 73.7191 113.815 73.2473 113.815 72.6702V58.7499C113.815 58.1729 114.285 57.701 114.859 57.701H116.564C117.018 57.6543 117.608 57.6036 118.373 58.672C119.961 60.8204 121.553 62.9728 123.141 65.1213C123.867 65.8855 124.232 65.4995 124.259 64.0334V58.7499C124.259 58.1729 124.728 57.701 125.303 57.701Z" fill="#ED9EA1"/>
<path fill-rule="evenodd" clip-rule="evenodd" d="M134.932 60.8048H136.617C136.993 60.8048 137.37 61.1207 137.49 61.495L140.813 71.9878C140.93 72.3622 140.685 72.6039 140.316 72.678L138.29 73.0796C137.921 73.1498 137.517 72.7677 137.416 72.3895L136.912 70.5568H133.08L132.385 72.2803C132.237 72.639 131.802 72.947 131.449 72.8067L129.512 72.0268C129.158 71.8865 128.945 71.6018 129.104 71.247L133.573 61.3702C133.732 61.0193 134.132 60.8516 134.508 60.8438L134.734 60.8399C134.792 60.8165 134.862 60.8048 134.932 60.8048ZM135.335 65.7959C136.019 65.7959 136.578 66.3534 136.578 67.0436C136.578 67.7299 136.019 68.2914 135.335 68.2914C134.648 68.2914 134.093 67.7299 134.093 67.0436C134.093 66.3534 134.648 65.7959 135.335 65.7959ZM135.207 64.5754C135.37 64.5754 135.506 64.7119 135.506 64.8795C135.506 65.0433 135.37 65.1798 135.207 65.1798C135.04 65.1798 134.904 65.0433 134.904 64.8795C134.904 64.7119 135.04 64.5754 135.207 64.5754ZM134.291 64.8366C134.458 64.8366 134.594 64.9692 134.594 65.1369C134.594 65.3007 134.458 65.4371 134.291 65.4371C134.128 65.4371 133.992 65.3007 133.992 65.1369C133.992 64.9692 134.128 64.8366 134.291 64.8366ZM136.232 64.8639C136.399 64.8639 136.535 64.9965 136.535 65.1642C136.535 65.3318 136.399 65.4644 136.232 65.4644C136.069 65.4644 135.933 65.3318 135.933 65.1642C135.933 64.9965 136.069 64.8639 136.232 64.8639Z" fill="#ED9EA1"/>
<path fill-rule="evenodd" clip-rule="evenodd" d="M60.571 79.9501C60.3808 79.9462 59.9187 79.9384 59.6741 79.9813C59.6353 80.6597 59.6664 81.3577 59.6897 82.0518C60.2216 82.0206 59.9653 82.0206 60.5322 82.0635C60.637 82.0635 60.7224 82.1648 60.7224 82.2935C60.7224 82.4222 60.637 82.5236 60.5322 82.5236C59.9614 82.4807 60.2332 82.4885 59.7246 82.5002C59.7207 82.5002 59.713 82.5041 59.7052 82.5041C59.7207 82.9057 59.7285 83.3073 59.7169 83.705C59.7052 84.1301 59.6703 84.5824 59.7518 85.0074C60.1672 84.9684 59.9498 84.9879 60.571 84.9411C60.6991 84.9411 60.8001 85.0425 60.8001 85.1712C60.8001 85.2998 60.6991 85.4012 60.571 85.4012L59.6314 85.4831C59.0801 85.4753 59.2471 83.9468 59.2548 83.6856C59.282 82.7848 59.2238 81.9114 59.2044 81.0107C59.1733 79.4432 59.0335 79.4822 60.571 79.4861C60.6991 79.4861 60.8001 79.5875 60.8001 79.7161C60.8001 79.8448 60.6991 79.9501 60.571 79.9501Z" fill="#373435"/>
<path fill-rule="evenodd" clip-rule="evenodd" d="M67.1207 79.9501C66.9266 79.9462 66.4646 79.9384 66.22 79.9813C66.185 80.6597 66.2161 81.3577 66.2394 82.0518C66.7713 82.0206 66.5151 82.0206 67.0819 82.0635C67.1867 82.0635 67.2721 82.1648 67.2721 82.2935C67.2721 82.4222 67.1867 82.5236 67.0819 82.5236C66.5112 82.4807 66.7791 82.4885 66.2743 82.5002C66.2666 82.5002 66.2627 82.5041 66.2549 82.5041C66.2666 82.9057 66.2743 83.3073 66.2627 83.705C66.251 84.1301 66.22 84.5824 66.2976 85.0074C66.7169 84.9684 66.4995 84.9879 67.1207 84.9411C67.245 84.9411 67.3498 85.0425 67.3498 85.1712C67.3498 85.2998 67.245 85.4012 67.1207 85.4012L66.1812 85.4831C65.6299 85.4753 65.7968 83.9468 65.8046 83.6856C65.8279 82.7848 65.7696 81.9114 65.7541 81.0107C65.723 79.4432 65.5833 79.4822 67.1207 79.4861C67.245 79.4861 67.3498 79.5875 67.3498 79.7161C67.3498 79.8448 67.245 79.9501 67.1207 79.9501Z" fill="#373435"/>
<path fill-rule="evenodd" clip-rule="evenodd" d="M103.744 79.9501C103.55 79.9462 103.092 79.9384 102.847 79.9813C102.808 80.6597 102.839 81.3577 102.863 82.0518C103.394 82.0206 103.138 82.0206 103.705 82.0635C103.81 82.0635 103.895 82.1648 103.895 82.2935C103.895 82.4222 103.81 82.5236 103.705 82.5236C103.134 82.4807 103.402 82.4885 102.897 82.5002C102.89 82.5002 102.886 82.5041 102.878 82.5041C102.894 82.9057 102.897 83.3073 102.89 83.705C102.878 84.1301 102.843 84.5824 102.925 85.0074C103.34 84.9684 103.123 84.9879 103.744 84.9411C103.868 84.9411 103.973 85.0425 103.973 85.1712C103.973 85.2998 103.868 85.4012 103.744 85.4012L102.804 85.4831C102.253 85.4753 102.42 83.9468 102.428 83.6856C102.455 82.7848 102.397 81.9114 102.377 81.0107C102.346 79.4432 102.206 79.4822 103.744 79.4861C103.868 79.4861 103.973 79.5875 103.973 79.7161C103.973 79.8448 103.868 79.9501 103.744 79.9501Z" fill="#373435"/>
<path fill-rule="evenodd" clip-rule="evenodd" d="M113.931 79.9501C113.741 79.9462 113.279 79.9384 113.035 79.9813C113 80.6597 113.027 81.3577 113.054 82.0518C113.582 82.0206 113.326 82.0206 113.896 82.0635C113.997 82.0635 114.083 82.1648 114.083 82.2935C114.083 82.4222 113.997 82.5236 113.896 82.5236C113.322 82.4807 113.594 82.4885 113.085 82.5002C113.081 82.5002 113.073 82.5041 113.069 82.5041C113.081 82.9057 113.089 83.3073 113.077 83.705C113.066 84.1301 113.031 84.5824 113.112 85.0074C113.528 84.9684 113.31 84.9879 113.931 84.9411C114.06 84.9411 114.16 85.0425 114.16 85.1712C114.16 85.2998 114.06 85.4012 113.931 85.4012L112.996 85.4831C112.441 85.4753 112.611 83.9468 112.615 83.6856C112.642 82.7848 112.584 81.9114 112.565 81.0107C112.534 79.4432 112.398 79.4822 113.931 79.4861C114.06 79.4861 114.16 79.5875 114.16 79.7161C114.16 79.8448 114.06 79.9501 113.931 79.9501Z" fill="#373435"/>
<path fill-rule="evenodd" clip-rule="evenodd" d="M79.8823 85.2219C79.9561 84.4303 81.113 79.5875 81.6178 79.3145C81.9633 79.1274 82.0332 79.7474 82.0642 79.8955C82.4098 81.4864 82.5495 83.6895 82.6388 85.3311C82.6272 85.4597 82.5146 85.5533 82.3865 85.5416C82.2622 85.5299 82.1691 85.4168 82.1807 85.2882C82.1458 84.8865 82.1186 84.4849 82.0914 84.0833H80.5656C80.4491 84.598 80.3637 85.0152 80.3443 85.2219C80.3443 85.3506 80.2395 85.4519 80.1152 85.4519C79.9871 85.4519 79.8823 85.3506 79.8823 85.2219ZM82.0604 83.6193C81.9788 82.469 81.8818 81.3187 81.6488 80.1919C81.3615 80.9795 80.9577 82.4495 80.6743 83.6193H82.0604Z" fill="#373435"/>
<path fill-rule="evenodd" clip-rule="evenodd" d="M90.66 85.2219C90.7338 84.4303 91.8907 79.5875 92.3955 79.3145C92.741 79.1274 92.807 79.7474 92.8419 79.8955C93.1875 81.4864 93.3234 83.6895 93.4127 85.3311C93.401 85.4597 93.2923 85.5533 93.1642 85.5416C93.0361 85.5299 92.9429 85.4168 92.9545 85.2882C92.9235 84.8865 92.8963 84.4849 92.8691 84.0833H91.3433C91.223 84.598 91.1414 85.0152 91.122 85.2219C91.122 85.3506 91.0172 85.4519 90.8891 85.4519C90.7609 85.4519 90.66 85.3506 90.66 85.2219ZM92.8342 83.6193C92.7565 82.469 92.6595 81.3187 92.4265 80.1919C92.1392 80.9795 91.7354 82.4495 91.452 83.6193H92.8342Z" fill="#373435"/>
<path fill-rule="evenodd" clip-rule="evenodd" d="M126.041 85.2219C126.115 84.4303 127.271 79.5875 127.776 79.3145C128.122 79.1274 128.192 79.7474 128.223 79.8955C128.568 81.4864 128.704 83.6895 128.797 85.3311C128.786 85.4597 128.673 85.5533 128.545 85.5416C128.417 85.5299 128.324 85.4168 128.335 85.2882C128.304 84.8865 128.277 84.4849 128.25 84.0833H126.724C126.608 84.598 126.522 85.0152 126.503 85.2219C126.503 85.3506 126.398 85.4519 126.27 85.4519C126.146 85.4519 126.041 85.3506 126.041 85.2219ZM128.215 83.6193C128.137 82.469 128.04 81.3187 127.807 80.1919C127.52 80.9795 127.116 82.4495 126.833 83.6193H128.215Z" fill="#373435"/>
<path fill-rule="evenodd" clip-rule="evenodd" d="M62.3142 79.3457C62.9083 79.3496 63.4945 79.3652 64.0846 79.373C64.2128 79.373 64.3176 79.4744 64.3176 79.603C64.3176 79.7317 64.2128 79.8331 64.0846 79.8331C63.8827 79.8331 63.677 79.8292 63.4712 79.8253C63.4518 81.6462 63.4673 83.4711 63.4673 85.2881C63.4673 85.4168 63.3664 85.5221 63.2383 85.5221C63.1101 85.5221 63.0092 85.4168 63.0092 85.2881C63.0053 83.4672 62.9898 81.6384 63.0092 79.8175C62.7801 79.8136 62.5472 79.8097 62.3142 79.8058C62.19 79.8058 62.0852 79.7044 62.0852 79.5757C62.0852 79.4471 62.19 79.3457 62.3142 79.3457Z" fill="#373435"/>
<path fill-rule="evenodd" clip-rule="evenodd" d="M72.6454 79.3457C73.2394 79.3496 73.1695 79.3652 73.7636 79.373C73.8878 79.373 73.9926 79.4744 73.9926 79.603C73.9926 79.7317 73.8878 79.8331 73.7636 79.8331C73.5578 79.8331 73.6587 79.8292 73.4568 79.8253C73.453 79.993 73.453 80.1645 73.4491 80.3322C73.4491 81.038 73.4452 81.7437 73.4452 82.4495C73.4452 83.1591 73.4491 83.8649 73.4491 84.5707C73.453 84.7383 73.453 84.906 73.4568 85.0776C73.6587 85.0737 73.5578 85.0698 73.7636 85.0659C73.8878 85.0659 73.9926 85.1711 73.9926 85.2998C73.9926 85.4285 73.8878 85.5299 73.7636 85.5299C73.1695 85.5338 73.2394 85.5533 72.6454 85.5572C72.5212 85.5572 72.4164 85.4558 72.4164 85.3271C72.4164 85.1984 72.5212 85.0971 72.6454 85.0971C72.8784 85.0932 72.7658 85.0893 72.991 85.0854C72.991 84.9138 72.991 84.7422 72.991 84.5746C72.9832 83.8649 72.9832 83.1591 72.9832 82.4495C72.9832 81.7437 72.9832 81.038 72.991 80.3283C72.991 80.1606 72.991 79.9891 72.991 79.8175C72.7658 79.8136 72.8784 79.8097 72.6454 79.8058C72.5212 79.8058 72.4164 79.7044 72.4164 79.5757C72.4164 79.4471 72.5212 79.3457 72.6454 79.3457Z" fill="#373435"/>
<path fill-rule="evenodd" clip-rule="evenodd" d="M87.8452 79.3457C88.4353 79.3496 88.3693 79.3652 88.9595 79.373C89.0876 79.373 89.1885 79.4744 89.1885 79.603C89.1885 79.7317 89.0876 79.8331 88.9595 79.8331C88.7537 79.8331 88.8585 79.8292 88.6528 79.8253C88.6528 79.993 88.6489 80.1645 88.6489 80.3322C88.645 81.038 88.645 81.7437 88.6411 82.4495C88.645 83.1591 88.645 83.8649 88.6489 84.5707C88.6489 84.7383 88.6528 84.906 88.6528 85.0776C88.8585 85.0737 88.7537 85.0698 88.9595 85.0659C89.0876 85.0659 89.1885 85.1711 89.1885 85.2998C89.1885 85.4285 89.0876 85.5299 88.9595 85.5299C88.3693 85.5338 88.4353 85.5533 87.8452 85.5572C87.7171 85.5572 87.6161 85.4558 87.6161 85.3271C87.6161 85.1984 87.7171 85.0971 87.8452 85.0971C88.0743 85.0932 87.9617 85.0893 88.1869 85.0854C88.1869 84.9138 88.1869 84.7422 88.1869 84.5746C88.183 83.8649 88.183 83.1591 88.183 82.4495C88.183 81.7437 88.183 81.038 88.1869 80.3283C88.1869 80.1606 88.1869 79.9891 88.1869 79.8175C87.9617 79.8136 88.0743 79.8097 87.8452 79.8058C87.7171 79.8058 87.6161 79.7044 87.6161 79.5757C87.6161 79.4471 87.7171 79.3457 87.8452 79.3457Z" fill="#373435"/>
<path fill-rule="evenodd" clip-rule="evenodd" d="M109.206 79.3457C109.797 79.3496 110.387 79.3652 110.977 79.373C111.105 79.373 111.206 79.4744 111.206 79.603C111.206 79.7317 111.105 79.8331 110.977 79.8331C110.771 79.8331 110.565 79.8292 110.363 79.8253C110.344 81.6462 110.36 83.4711 110.36 85.2881C110.36 85.4168 110.255 85.5221 110.127 85.5221C110.002 85.5221 109.898 85.4168 109.898 85.2881C109.898 83.4672 109.882 81.6384 109.901 79.8175C109.672 79.8136 109.439 79.8097 109.206 79.8058C109.078 79.8058 108.977 79.7044 108.977 79.5757C108.977 79.4471 109.078 79.3457 109.206 79.3457Z" fill="#373435"/>
<path fill-rule="evenodd" clip-rule="evenodd" d="M119.188 79.3457C119.778 79.3496 119.712 79.3652 120.302 79.373C120.431 79.373 120.532 79.4744 120.532 79.603C120.532 79.7317 120.431 79.8331 120.302 79.8331C120.097 79.8331 120.198 79.8292 119.996 79.8253C119.992 79.993 119.992 80.1645 119.992 80.3322C119.988 81.038 119.984 81.7437 119.984 82.4495C119.984 83.1591 119.988 83.8649 119.992 84.5707C119.992 84.7383 119.992 84.906 119.996 85.0776C120.198 85.0737 120.097 85.0698 120.302 85.0659C120.431 85.0659 120.532 85.1711 120.532 85.2998C120.532 85.4285 120.431 85.5299 120.302 85.5299C119.712 85.5338 119.778 85.5533 119.188 85.5572C119.06 85.5572 118.955 85.4558 118.955 85.3271C118.955 85.1984 119.06 85.0971 119.188 85.0971C119.417 85.0932 119.305 85.0893 119.53 85.0854C119.53 84.9138 119.53 84.7422 119.53 84.5746C119.526 83.8649 119.522 83.1591 119.526 82.4495C119.522 81.7437 119.526 81.038 119.53 80.3283C119.53 80.1606 119.53 79.9891 119.53 79.8175C119.305 79.8136 119.417 79.8097 119.188 79.8058C119.06 79.8058 118.955 79.7044 118.955 79.5757C118.955 79.4471 119.06 79.3457 119.188 79.3457Z" fill="#373435"/>
<path fill-rule="evenodd" clip-rule="evenodd" d="M115.76 79.3457C116.35 79.3496 116.94 79.3652 117.53 79.373C117.659 79.373 117.759 79.4744 117.759 79.603C117.759 79.7317 117.659 79.8331 117.53 79.8331C117.325 79.8331 117.119 79.8292 116.917 79.8253C116.894 81.6462 116.909 83.4711 116.913 85.2881C116.913 85.4168 116.808 85.5221 116.68 85.5221C116.556 85.5221 116.451 85.4168 116.451 85.2881C116.451 83.4672 116.436 81.6384 116.455 79.8175C116.222 79.8136 115.993 79.8097 115.76 79.8058C115.632 79.8058 115.531 79.7044 115.531 79.5757C115.531 79.4471 115.632 79.3457 115.76 79.3457Z" fill="#373435"/>
<path fill-rule="evenodd" clip-rule="evenodd" d="M55.2793 79.4705C55.3763 80.418 56.0635 83.2215 56.5644 84.637C56.8128 83.2215 56.9604 81.6151 57.1234 80.223C57.205 79.5563 57.1506 79.8409 57.2671 79.334C57.3408 79.2365 57.4845 79.2248 57.5893 79.3067C57.6903 79.3847 57.7136 79.5329 57.6359 79.6304C57.667 79.8955 57.4767 81.2212 57.434 81.5761C57.3098 82.625 57.139 84.4771 56.8866 85.4402C56.8284 85.6742 56.5527 85.6937 56.4052 85.4402C55.9276 84.6214 54.9221 80.4999 54.8173 79.4705C54.8095 79.3418 54.9065 79.2365 55.0347 79.2365C55.1628 79.2365 55.2715 79.3418 55.2793 79.4705Z" fill="#373435"/>
<path fill-rule="evenodd" clip-rule="evenodd" d="M69.423 79.681C69.423 80.3946 69.4307 81.0848 69.4113 81.7866C70.9721 81.1082 70.1063 79.7902 69.423 79.681ZM69.8306 82.0908C69.9277 82.3286 69.9937 82.5821 70.0713 82.8277C70.3276 83.6154 70.7236 84.4849 71.0458 85.2803C71.1002 85.409 71.0381 85.5143 70.91 85.5143C70.7818 85.5143 70.6382 85.409 70.5877 85.2803C70.2577 84.4654 69.8578 83.592 69.5977 82.7809C69.5589 82.6678 69.4735 82.4261 69.423 82.2779C69.4113 82.2818 69.4036 82.2857 69.3919 82.2896C69.3842 82.4651 69.3725 82.6483 69.3609 82.8277C69.3026 83.6154 69.357 84.4849 69.3609 85.2803C69.3609 85.409 69.2599 85.5143 69.1318 85.5143C69.0037 85.5143 68.9027 85.409 68.9027 85.2803C68.895 84.4654 68.8445 83.592 68.9027 82.7809C68.9804 81.6969 68.9649 80.6597 68.961 79.5758C68.9532 79.5602 68.9454 79.5485 68.9416 79.5329C68.9027 79.4081 68.9726 79.2794 69.093 79.2404C70.3315 78.9597 71.702 81.0575 69.8306 82.0908Z" fill="#373435"/>
<path fill-rule="evenodd" clip-rule="evenodd" d="M84.6733 79.681C84.6771 80.3946 84.681 81.0848 84.6655 81.7866C86.2262 81.1082 85.3604 79.7902 84.6733 79.681ZM85.0809 82.0908C85.178 82.3286 85.244 82.5821 85.3255 82.8277C85.5817 83.6154 85.9778 84.4849 86.3 85.2803C86.3505 85.409 86.2883 85.5143 86.1602 85.5143C86.036 85.5143 85.8885 85.409 85.838 85.2803C85.508 84.4654 85.112 83.592 84.848 82.7809C84.813 82.6678 84.7237 82.4261 84.6733 82.2779C84.6655 82.2818 84.6538 82.2857 84.6461 82.2896C84.6383 82.4651 84.6267 82.6483 84.615 82.8277C84.5568 83.6154 84.6073 84.4849 84.615 85.2803C84.615 85.409 84.5102 85.5143 84.3821 85.5143C84.2578 85.5143 84.153 85.409 84.153 85.2803C84.1452 84.4654 84.0948 83.592 84.153 82.7809C84.2345 81.6969 84.2151 80.6597 84.2112 79.5758C84.2035 79.5602 84.1996 79.5485 84.1918 79.5329C84.1569 79.4081 84.2229 79.2794 84.3432 79.2404C85.5817 78.9597 86.9561 81.0575 85.0809 82.0908Z" fill="#373435"/>
<path fill-rule="evenodd" clip-rule="evenodd" d="M75.6893 85.2803C75.6815 84.5083 75.3787 79.759 75.5728 79.4705C75.697 79.2833 75.9222 79.373 76.0115 79.5914C76.6909 81.2251 77.3354 83.05 78.0576 84.6759C78.1663 83.3229 78.0731 80.5506 78.0692 79.5524C78.0692 79.4237 78.1701 79.3184 78.2983 79.3184C78.4264 79.3184 78.5273 79.4237 78.5273 79.5524C78.5351 80.9483 78.5739 82.3481 78.5467 83.7479C78.5429 83.9741 78.6477 85.8925 78.0304 85.565C77.8052 85.448 77.1102 83.5803 76.9782 83.241C76.6599 82.4417 76.3105 81.4825 75.9571 80.6168C75.961 82.1414 76.1357 83.7791 76.1474 85.2803C76.1474 85.409 76.0464 85.5143 75.9183 85.5143C75.7902 85.5143 75.6893 85.409 75.6893 85.2803Z" fill="#373435"/>
<path fill-rule="evenodd" clip-rule="evenodd" d="M114.522 78.0434C114.141 78.406 113.862 78.6204 113.434 78.9168C113.33 78.987 113.186 78.9597 113.116 78.8505C113.046 78.7452 113.077 78.601 113.182 78.5308C113.57 78.2578 113.838 78.0551 114.184 77.7275C114.273 77.6339 114.417 77.63 114.51 77.7158C114.603 77.8055 114.607 77.9498 114.522 78.0434Z" fill="#373435"/>
<path fill-rule="evenodd" clip-rule="evenodd" d="M107.122 79.6537C105.856 79.7551 105.654 80.2971 106.287 81.3967C106.974 82.5899 108.333 83.358 107.215 84.8592C106.795 85.4246 106.322 85.6391 105.654 85.6819C105.526 85.6819 105.425 85.5767 105.425 85.4519C105.425 85.3232 105.526 85.2179 105.654 85.2179C106.166 85.1867 106.524 85.0191 106.846 84.5863C107.894 83.1786 106.058 82.5431 105.576 80.9366C105.204 79.6927 106.023 79.2794 107.106 79.1936C107.234 79.1897 107.343 79.2872 107.347 79.4159C107.351 79.5446 107.25 79.6498 107.122 79.6537Z" fill="#373435"/>
<path fill-rule="evenodd" clip-rule="evenodd" d="M124.29 79.9618C122.95 79.5952 122.772 79.8838 122.581 81.3031C122.492 81.9972 122.341 84.6954 123.082 84.9918C123.397 85.1127 124.235 85.0737 124.449 84.828C124.484 84.711 124.604 84.6409 124.725 84.6681C124.849 84.6993 124.923 84.8241 124.895 84.945C124.662 85.6079 123.249 85.643 122.756 85.3427C121.735 84.7266 122.003 81.1588 122.352 80.1684C122.721 79.1429 123.56 79.2833 124.433 79.5212C124.554 79.5602 124.62 79.6888 124.581 79.8136C124.542 79.9345 124.414 80.0008 124.29 79.9618Z" fill="#373435"/>
<path fill-rule="evenodd" clip-rule="evenodd" d="M100.269 77.5131C99.5197 80.5545 99.0694 83.709 98.3162 86.7387C98.2347 87.0701 98.157 87.3352 98.0444 87.6589C97.9939 87.7759 97.8581 87.8304 97.7416 87.7798C97.6251 87.733 97.5708 87.5965 97.6212 87.4795C97.7261 87.1832 97.7959 86.9297 97.8697 86.6256C98.6229 83.5959 99.0733 80.4375 99.8265 77.3961C99.8575 77.2713 99.9818 77.1972 100.106 77.2323C100.23 77.2635 100.304 77.3883 100.269 77.5131Z" fill="#937BAB"/>
<path fill-rule="evenodd" clip-rule="evenodd" d="M98.7355 77.5131C97.9862 80.5545 97.5358 83.709 96.7826 86.7387C96.7011 87.0701 96.6234 87.3352 96.507 87.6589C96.4604 87.7759 96.3245 87.8304 96.208 87.7798C96.0877 87.733 96.0333 87.5965 96.0838 87.4795C96.1886 87.1832 96.2585 86.9297 96.3361 86.6256C97.0893 83.5959 97.5397 80.4375 98.289 77.3961C98.3201 77.2713 98.4482 77.1972 98.5686 77.2323C98.6928 77.2635 98.7666 77.3883 98.7355 77.5131Z" fill="#937BAB"/>
<path fill-rule="evenodd" clip-rule="evenodd" d="M75.7203 51.4896C75.7397 51.6924 75.7553 51.899 75.7592 52.1018C75.7747 52.1096 75.7941 52.1174 75.8096 52.1252C76.2561 52.3162 76.5745 52.7257 76.5318 53.2365C76.4929 53.7161 76.1513 54.0631 75.7087 54.1879C75.6505 54.2074 75.5922 54.2191 75.534 54.2308C75.4059 54.7611 75.2234 55.2796 74.9904 55.7748C75.7669 56.3402 76.26 57.2527 76.26 58.2665C76.26 59.9626 74.8895 61.3391 73.2045 61.3391C72.1252 61.3391 71.1623 60.7737 70.6149 59.908C69.6676 60.2863 68.6504 60.4812 67.6215 60.4812C66.484 60.4812 65.3697 60.2434 64.3409 59.7872C63.8129 60.7152 62.819 61.3391 61.6814 61.3391C59.9925 61.3391 58.622 59.9626 58.622 58.2665C58.622 57.1279 59.2432 56.1258 60.1672 55.5994C59.9809 55.1705 59.8295 54.7221 59.7169 54.2697C59.6586 54.2659 59.6043 54.2658 59.5461 54.2619C59.3752 54.2542 59.1966 54.2386 59.0297 54.1879C58.5871 54.0631 58.2454 53.7161 58.2066 53.2365C58.1639 52.7257 58.4861 52.3162 58.9287 52.1252C59.0918 52.055 59.2859 52.0043 59.4878 51.9692C59.4917 51.7781 59.5072 51.5871 59.5305 51.3999C58.2843 50.9008 57.4107 49.6765 57.4107 48.2571C57.4107 46.3933 58.9171 44.8804 60.7768 44.8804C61.5649 44.8804 62.3104 45.1572 62.9005 45.6407C64.2749 44.6581 65.9172 44.1278 67.6215 44.1278C69.3881 44.1278 71.0847 44.6971 72.4824 45.7421C73.088 45.1962 73.8839 44.8804 74.7303 44.8804C76.5861 44.8804 78.0925 46.3933 78.0925 48.2571C78.0925 49.7778 77.0947 51.0646 75.7203 51.4896Z" fill="black"/>
<path fill-rule="evenodd" clip-rule="evenodd" d="M67.6487 45.1066C71.5894 45.1066 74.7846 48.3157 74.7846 52.2734C74.7846 56.2311 71.5894 59.4402 67.6487 59.4402C63.708 59.4402 60.5166 56.2311 60.5166 52.2734C60.5166 48.3157 63.708 45.1066 67.6487 45.1066Z" fill="#BDAA99"/>
<path fill-rule="evenodd" clip-rule="evenodd" d="M71.667 50.3783C72.4979 50.3783 73.1696 51.0529 73.1696 51.8873C73.1696 52.7217 72.4979 53.3963 71.667 53.3963C70.8401 53.3963 70.1645 52.7217 70.1645 51.8873C70.1645 51.0529 70.8401 50.3783 71.667 50.3783Z" fill="black"/>
<path fill-rule="evenodd" clip-rule="evenodd" d="M71.8379 50.9632C72.098 50.9632 72.3077 51.1738 72.3077 51.435C72.3077 51.6962 72.098 51.9068 71.8379 51.9068C71.5778 51.9068 71.3681 51.6962 71.3681 51.435C71.3681 51.1738 71.5778 50.9632 71.8379 50.9632Z" fill="#FAF1E8"/>
<path fill-rule="evenodd" clip-rule="evenodd" d="M63.3819 50.3783C62.5511 50.3783 61.8794 51.0529 61.8794 51.8873C61.8794 52.7217 62.5511 53.3963 63.3819 53.3963C64.2127 53.3963 64.8844 52.7217 64.8844 51.8873C64.8844 51.0529 64.2127 50.3783 63.3819 50.3783Z" fill="black"/>
<path fill-rule="evenodd" clip-rule="evenodd" d="M63.2111 50.9632C62.9549 50.9632 62.7413 51.1738 62.7413 51.435C62.7413 51.6962 62.9549 51.9068 63.2111 51.9068C63.4712 51.9068 63.6809 51.6962 63.6809 51.435C63.6809 51.1738 63.4712 50.9632 63.2111 50.9632Z" fill="#FAF1E8"/>
<path fill-rule="evenodd" clip-rule="evenodd" d="M66.5228 52.6671C66.5927 52.5307 66.9693 52.402 67.3614 52.3708C67.7574 52.3396 68.1728 52.402 68.433 52.5151C68.697 52.6321 68.8096 52.7958 68.6931 53.0103C68.5766 53.2247 68.2311 53.4899 67.9748 53.6225C67.7147 53.755 67.5439 53.755 67.3847 53.6459C67.2216 53.5367 67.0702 53.3144 66.8761 53.1351C66.6859 52.9518 66.4529 52.8036 66.5228 52.6671Z" fill="black"/>
<path fill-rule="evenodd" clip-rule="evenodd" d="M67.8467 53.7668C67.9321 53.9734 68.0797 54.223 68.301 54.3633C68.5223 54.5076 68.8212 54.5388 69.058 54.5037C69.2988 54.4686 69.4773 54.3672 69.6249 54.2581C69.7763 54.1489 69.8928 54.0319 69.9976 53.9149C70.0985 53.7979 70.1878 53.681 70.25 53.6537C70.3082 53.6264 70.3315 53.6888 70.2383 53.8525C70.149 54.0163 69.9355 54.2775 69.7064 54.4413C69.4773 54.609 69.2327 54.6792 69.0076 54.7026C68.7824 54.726 68.5766 54.7026 68.3786 54.6285C68.1806 54.5505 67.9943 54.4179 67.87 54.2035C67.7458 53.9929 67.6837 53.7083 67.6681 53.5328C67.6526 53.3612 67.6837 53.3027 67.7108 53.3534C67.738 53.4041 67.7613 53.564 67.8467 53.7668Z" fill="black"/>
<path fill-rule="evenodd" clip-rule="evenodd" d="M67.4779 53.7668C67.3925 53.9734 67.2488 54.223 67.0236 54.3633C66.8023 54.5076 66.5073 54.5388 66.2666 54.5037C66.0259 54.4686 65.8473 54.3672 65.6997 54.2581C65.5483 54.1489 65.4318 54.0319 65.3309 53.9149C65.2261 53.7979 65.1368 53.681 65.0785 53.6537C65.0203 53.6264 64.9931 53.6888 65.0863 53.8525C65.1795 54.0163 65.3891 54.2775 65.6182 54.4413C65.8473 54.609 66.0919 54.6792 66.317 54.7026C66.5422 54.726 66.7519 54.7026 66.946 54.6285C67.144 54.5505 67.3304 54.4179 67.4546 54.2035C67.5788 53.9929 67.6409 53.7083 67.6565 53.5328C67.6759 53.3612 67.6409 53.3027 67.6138 53.3534C67.5866 53.4041 67.5633 53.564 67.4779 53.7668Z" fill="black"/>
<path fill-rule="evenodd" clip-rule="evenodd" d="M61.7124 56.1765C62.8461 56.1765 63.7624 57.0967 63.7624 58.2353C63.7624 59.3739 62.8461 60.298 61.7124 60.298C60.5788 60.298 59.6586 59.3739 59.6586 58.2353C59.6586 57.0967 60.5788 56.1765 61.7124 56.1765Z" fill="#AB9989"/>
<path fill-rule="evenodd" clip-rule="evenodd" d="M73.2316 56.1765C74.3653 56.1765 75.2855 57.0967 75.2855 58.2353C75.2855 59.3739 74.3653 60.298 73.2316 60.298C72.098 60.298 71.1817 59.3739 71.1817 58.2353C71.1817 57.0967 72.098 56.1765 73.2316 56.1765Z" fill="#AB9989"/>
<path fill-rule="evenodd" clip-rule="evenodd" d="M69.3065 53.1312C70.048 53.1936 71.8223 53.4509 72.8046 53.6381C73.7868 53.8291 73.9732 53.9461 73.9421 54.0436C73.9111 54.1411 73.6626 54.219 73.2549 54.184C72.8473 54.1489 72.2843 54.0007 71.5738 53.8408C70.8634 53.681 70.0053 53.5055 69.4307 53.3534C68.8561 53.2014 68.5649 53.0688 69.3065 53.1312Z" fill="black"/>
<path fill-rule="evenodd" clip-rule="evenodd" d="M69.3919 52.8075C70.1645 52.7724 72.2649 52.7763 73.5345 52.8153C74.8041 52.8582 75.2428 52.9362 75.4408 53.022C75.6427 53.1078 75.6077 53.2052 75.1768 53.2247C74.7497 53.2403 73.9266 53.1857 72.956 53.1351C71.9815 53.0844 70.8556 53.0415 70.017 52.983C69.1745 52.9245 68.6154 52.8465 69.3919 52.8075Z" fill="black"/>
<path fill-rule="evenodd" clip-rule="evenodd" d="M65.494 53.1312C64.7524 53.1936 62.9743 53.4509 61.9959 53.6381C61.0136 53.8291 60.8234 53.9461 60.8545 54.0436C60.8855 54.1411 61.1379 54.219 61.5455 54.184C61.9532 54.1489 62.5161 54.0007 63.2266 53.8408C63.9371 53.681 64.7913 53.5055 65.3659 53.3534C65.9405 53.2014 66.2355 53.0688 65.494 53.1312Z" fill="black"/>
<path fill-rule="evenodd" clip-rule="evenodd" d="M65.4085 52.8075C64.6359 52.7724 62.5316 52.7763 61.2621 52.8153C59.9925 52.8582 59.5577 52.9362 59.3558 53.022C59.1578 53.1078 59.1927 53.2052 59.6198 53.2247C60.0508 53.2403 60.87 53.1857 61.8444 53.1351C62.8151 53.0844 63.941 53.0415 64.7835 52.983C65.6221 52.9245 66.1811 52.8465 65.4085 52.8075Z" fill="black"/>
<path fill-rule="evenodd" clip-rule="evenodd" d="M74.7575 45.8591C76.062 45.8591 77.118 46.9197 77.118 48.2298C77.118 49.5361 76.062 50.5967 74.7575 50.5967C73.4568 50.5967 72.4008 49.5361 72.4008 48.2298C72.4008 46.9197 73.4568 45.8591 74.7575 45.8591Z" fill="#BDAA99"/>
<path fill-rule="evenodd" clip-rule="evenodd" d="M74.7575 46.7014C75.5961 46.7014 76.2794 47.3876 76.2794 48.2299C76.2794 49.0721 75.5961 49.7545 74.7575 49.7545C73.9188 49.7545 73.2394 49.0721 73.2394 48.2299C73.2394 47.3876 73.9188 46.7014 74.7575 46.7014Z" fill="#D9BDB6"/>
<path fill-rule="evenodd" clip-rule="evenodd" d="M60.8039 45.8591C59.5033 45.8591 58.4473 46.9197 58.4473 48.2298C58.4473 49.5361 59.5033 50.5967 60.8039 50.5967C62.1085 50.5967 63.1645 49.5361 63.1645 48.2298C63.1645 46.9197 62.1085 45.8591 60.8039 45.8591Z" fill="#BDAA99"/>
<path fill-rule="evenodd" clip-rule="evenodd" d="M60.804 46.7014C59.9654 46.7014 59.2859 47.3876 59.2859 48.2299C59.2859 49.0721 59.9654 49.7545 60.804 49.7545C61.6465 49.7545 62.3259 49.0721 62.3259 48.2299C62.3259 47.3876 61.6465 46.7014 60.804 46.7014Z" fill="#D9BDB6"/>
<path fill-rule="evenodd" clip-rule="evenodd" d="M66.6936 54.8469C66.6432 55.0145 66.6548 55.3304 66.8217 55.4902C66.9926 55.6501 67.3226 55.6618 67.4818 55.3421C67.6448 55.0223 67.6371 54.3712 67.6021 54.1294C67.5711 53.8838 67.5128 54.0436 67.4002 54.1957C67.2838 54.3439 67.1168 54.4881 66.9809 54.57C66.845 54.6519 66.7402 54.6792 66.6936 54.8469Z" fill="white"/>
<path fill-rule="evenodd" clip-rule="evenodd" d="M68.5533 54.8469C68.5999 55.0145 68.5922 55.3304 68.4213 55.4902C68.2544 55.6501 67.9244 55.6618 67.7613 55.3421C67.6021 55.0223 67.6099 54.3712 67.641 54.1294C67.6759 53.8838 67.7341 54.0436 67.8467 54.1957C67.9593 54.3439 68.1301 54.4881 68.266 54.57C68.4019 54.6519 68.5067 54.6792 68.5533 54.8469Z" fill="white"/>
<path fill-rule="evenodd" clip-rule="evenodd" d="M87.0454 31.4865C87.3327 28.874 86.1214 27.4937 84.4558 26.32C82.7941 25.1425 80.6743 24.1755 79.133 23.653C77.5956 23.1266 76.6327 23.0447 75.9727 23.1422C75.3088 23.2396 74.9516 23.5126 74.9671 24.5381C74.9788 25.5597 75.367 27.326 75.6271 29.0261C75.8873 30.7262 76.027 32.356 76.2716 33.4478C76.5201 34.5396 76.8773 35.0894 77.2927 35.3935C77.7043 35.6977 78.1702 35.7523 78.473 35.9043C78.7758 36.0564 78.9156 36.306 79.6727 37.3003C80.4259 38.2946 81.8041 40.0375 83.3843 38.9847C84.9683 37.9358 86.7542 34.0951 87.0454 31.4865Z" fill="#F4BC65"/>
<path fill-rule="evenodd" clip-rule="evenodd" d="M86.0476 31.4397C86.2883 29.2601 85.2789 28.1098 83.889 27.1272C82.4991 26.1485 80.7326 25.3413 79.4475 24.9046C78.1624 24.4679 77.3587 24.3977 76.8074 24.4796C76.26 24.5576 75.961 24.7915 75.9727 25.6416C75.9843 26.4955 76.3027 27.9694 76.5201 29.3887C76.7414 30.8042 76.854 32.165 77.0598 33.0774C77.2694 33.9859 77.5645 34.446 77.91 34.6995C78.2556 34.9529 78.6438 34.9997 78.8962 35.1284C79.1485 35.2532 79.265 35.4598 79.8939 36.2904C80.5268 37.1209 81.676 38.5714 82.9921 37.698C84.3122 36.8207 85.8069 33.6155 86.0476 31.4397Z" fill="black"/>
<path fill-rule="evenodd" clip-rule="evenodd" d="M101.267 31.4865C100.976 28.874 102.187 27.4937 103.853 26.32C105.518 25.1425 107.634 24.1755 109.175 23.653C110.717 23.1266 111.68 23.0447 112.34 23.1422C113 23.2396 113.357 23.5126 113.341 24.5381C113.33 25.5597 112.945 27.326 112.681 29.0261C112.421 30.7262 112.285 32.356 112.037 33.4478C111.788 34.5396 111.431 35.0894 111.02 35.3935C110.604 35.6977 110.138 35.7523 109.835 35.9043C109.533 36.0564 109.397 36.306 108.64 37.3003C107.882 38.2946 106.508 40.0375 104.924 38.9847C103.344 37.9358 101.554 34.0951 101.267 31.4865Z" fill="#F4BC65"/>
<path fill-rule="evenodd" clip-rule="evenodd" d="M102.265 31.4397C102.024 29.2601 103.033 28.1098 104.419 27.1272C105.809 26.1485 107.576 25.3413 108.861 24.9046C110.146 24.4679 110.95 24.3977 111.501 24.4796C112.052 24.5576 112.351 24.7915 112.34 25.6416C112.328 26.4955 112.006 27.9694 111.788 29.3887C111.571 30.8042 111.454 32.165 111.249 33.0774C111.043 33.9859 110.744 34.446 110.398 34.6995C110.057 34.9529 109.665 34.9997 109.412 35.1284C109.16 35.2532 109.043 35.4598 108.414 36.2904C107.782 37.1209 106.636 38.5714 105.316 37.698C103.996 36.8207 102.505 33.6155 102.265 31.4397Z" fill="black"/>
<path fill-rule="evenodd" clip-rule="evenodd" d="M93.8358 28.2112C100.708 28.2112 106.279 33.8027 106.279 40.7043C106.279 47.606 100.708 53.2014 93.8358 53.2014C86.9639 53.2014 81.3965 47.606 81.3965 40.7043C81.3965 33.8027 86.9639 28.2112 93.8358 28.2112Z" fill="#F4BC65"/>
<path fill-rule="evenodd" clip-rule="evenodd" d="M104.241 47.5592C102.016 50.9554 98.1881 53.2014 93.8358 53.2014C89.4021 53.2014 85.508 50.8696 83.3066 47.3603C83.0737 46.8846 83.2717 46.5025 83.7026 46.2295C84.4519 45.7499 85.9117 45.6174 86.5834 45.3756C87.2589 45.13 87.1502 44.7751 86.4087 44.4203C85.6671 44.0655 84.2966 43.7106 83.4503 42.8762C82.6039 42.0457 82.2816 40.7355 82.2273 39.7373C82.1729 38.7352 82.3826 38.0489 82.7204 37.5498C83.062 37.0507 83.524 36.7427 84.0093 36.5049C84.4946 36.2631 85.0032 36.0993 85.6128 36.1422C86.2184 36.1851 86.9251 36.4425 87.7326 36.7232C88.5401 37.0079 89.4448 37.3198 90.1747 37.3198C90.9046 37.3198 91.4559 37.0079 91.7781 36.3411C92.0965 35.6743 92.1858 34.6566 92.0188 33.713C91.8558 32.7694 91.4365 31.9038 91.2268 31.3384C91.0172 30.773 91.0172 30.5039 91.1686 30.4961C91.3239 30.4844 91.6345 30.7262 91.9761 31.0498C92.3178 31.3696 92.6944 31.7712 92.9273 31.8921C93.1603 32.0129 93.2457 31.8609 93.3156 31.198C93.3854 30.5351 93.4359 29.3654 93.5912 29.1899C93.63 29.1431 93.6805 29.1665 93.7349 29.2406C93.7853 29.1665 93.8358 29.1431 93.8746 29.1899C94.0299 29.3654 94.0804 30.5351 94.1503 31.198C94.2202 31.8609 94.3095 32.0129 94.5385 31.8921C94.7715 31.7712 95.1481 31.3696 95.4897 31.0498C95.8314 30.7262 96.142 30.4844 96.2973 30.4961C96.4526 30.5039 96.4526 30.773 96.2429 31.3384C96.0294 31.9038 95.6101 32.7694 95.447 33.713C95.2801 34.6566 95.3694 35.6743 95.6877 36.3411C96.01 37.0079 96.5613 37.3198 97.2912 37.3198C98.0211 37.3198 98.9257 37.0079 99.7333 36.7232C100.541 36.4425 101.247 36.1851 101.853 36.1422C102.463 36.0993 102.971 36.2631 103.457 36.5049C103.942 36.7427 104.404 37.0507 104.745 37.5498C105.083 38.0489 105.293 38.7352 105.239 39.7373C105.184 40.7355 104.862 42.0457 104.016 42.8762C103.169 43.7106 101.799 44.0655 101.057 44.4203C100.319 44.7751 100.207 45.13 100.882 45.3756C101.554 45.6174 103.014 45.7499 103.763 46.2295C104.249 46.5337 104.439 46.986 104.051 47.5514C104.117 47.5514 104.179 47.5514 104.241 47.5592Z" fill="#FAF1E8"/>
<path fill-rule="evenodd" clip-rule="evenodd" d="M97.6484 43.6638C97.7027 43.3207 97.8153 42.7943 98.122 42.3069C98.4287 41.8195 98.9257 41.3711 99.4537 41.102C99.9817 40.8369 100.541 40.7472 100.921 40.7199C101.302 40.6965 101.504 40.7316 101.574 40.8057C101.643 40.8798 101.581 40.9928 101.267 41.0981C100.952 41.2034 100.386 41.3009 99.9507 41.4334C99.5197 41.5621 99.2208 41.7298 99.0694 41.8585C98.9179 41.9832 98.9063 42.0729 99.0034 42.0768C99.1004 42.0807 99.3023 42.0027 99.5624 41.8975C99.8264 41.7922 100.149 41.6596 100.393 41.5816C100.638 41.5036 100.805 41.4763 100.921 41.4997C101.038 41.5192 101.108 41.5894 100.855 41.722C100.603 41.8507 100.024 42.0378 99.5896 42.4589C99.1587 42.8801 98.8713 43.5351 98.7549 44.1668C98.6345 44.7946 98.685 45.4068 99.0072 45.8396C99.3295 46.2724 99.9274 46.5336 100.486 46.6623C101.042 46.7871 101.558 46.7793 101.9 46.8105C102.241 46.8417 102.404 46.9119 102.303 47.021C102.202 47.1341 101.834 47.294 101.473 47.3525C101.108 47.4071 100.75 47.3642 100.486 47.3213C100.219 47.2745 100.044 47.2316 100.083 47.2823C100.121 47.3291 100.374 47.4695 100.7 47.5552C101.022 47.6449 101.414 47.68 101.659 47.7034C101.904 47.7229 102.001 47.7307 101.954 47.7931C101.904 47.8555 101.713 47.9686 101.469 48.0387C101.224 48.1089 100.925 48.1362 100.506 48.0387C100.087 47.9413 99.5469 47.7229 99.0965 47.3798C98.6462 47.0405 98.289 46.5726 98.056 46.0462C97.8231 45.5198 97.7183 44.935 97.6639 44.5567C97.6057 44.1785 97.5979 44.0108 97.6484 43.6638Z" fill="#827063"/>
<path fill-rule="evenodd" clip-rule="evenodd" d="M100.844 41.8234C102.288 41.8234 103.46 43.001 103.46 44.4554C103.46 45.9059 102.288 47.0835 100.844 47.0835C99.3955 47.0835 98.223 45.9059 98.223 44.4554C98.223 43.001 99.3955 41.8234 100.844 41.8234Z" fill="black"/>
<path fill-rule="evenodd" clip-rule="evenodd" d="M101.139 42.8411C101.589 42.8411 101.958 43.2115 101.958 43.6638C101.958 44.1201 101.589 44.4866 101.139 44.4866C100.684 44.4866 100.32 44.1201 100.32 43.6638C100.32 43.2115 100.684 42.8411 101.139 42.8411Z" fill="#FAF1E8"/>
<path fill-rule="evenodd" clip-rule="evenodd" d="M89.5845 43.6638C89.5341 43.3207 89.4215 42.7943 89.1148 42.3069C88.808 41.8195 88.3111 41.3711 87.7831 41.102C87.2551 40.8369 86.696 40.7472 86.3155 40.7199C85.935 40.6965 85.7332 40.7316 85.6633 40.8057C85.5934 40.8798 85.6555 40.9928 85.97 41.0981C86.2845 41.2034 86.8513 41.3009 87.2822 41.4334C87.7171 41.5621 88.0121 41.7298 88.1674 41.8585C88.3189 41.9832 88.3266 42.0729 88.2334 42.0768C88.1364 42.0807 87.9345 42.0027 87.6744 41.8975C87.4104 41.7922 87.0881 41.6596 86.8435 41.5816C86.5989 41.5036 86.432 41.4763 86.3155 41.4997C86.1952 41.5192 86.1253 41.5894 86.3815 41.722C86.6339 41.8507 87.2124 42.0378 87.6433 42.4589C88.0781 42.8801 88.3654 43.5351 88.4819 44.1668C88.6023 44.7946 88.5518 45.4068 88.2296 45.8396C87.9034 46.2724 87.3094 46.5336 86.7503 46.6623C86.1952 46.7871 85.6788 46.7793 85.3371 46.8105C84.9955 46.8417 84.8324 46.9119 84.9334 47.021C85.0343 47.1341 85.4031 47.294 85.7642 47.3525C86.1253 47.4071 86.4863 47.3642 86.7503 47.3213C87.0182 47.2745 87.193 47.2316 87.1541 47.2823C87.1153 47.3291 86.8591 47.4695 86.5368 47.5552C86.2146 47.6449 85.8224 47.68 85.5779 47.7034C85.3333 47.7229 85.2362 47.7307 85.2828 47.7931C85.3333 47.8555 85.5235 47.9686 85.7681 48.0387C86.0127 48.1089 86.3116 48.1362 86.7309 48.0387C87.1502 47.9413 87.6899 47.7229 88.1403 47.3798C88.5906 47.0405 88.9478 46.5726 89.1808 46.0462C89.4098 45.5198 89.5147 44.935 89.5729 44.5567C89.6311 44.1785 89.6389 44.0108 89.5845 43.6638Z" fill="#827063"/>
<path fill-rule="evenodd" clip-rule="evenodd" d="M86.3932 41.8234C84.945 41.8234 83.7725 43.001 83.7725 44.4554C83.7725 45.9059 84.945 47.0835 86.3932 47.0835C87.8413 47.0835 89.0138 45.9059 89.0138 44.4554C89.0138 43.001 87.8413 41.8234 86.3932 41.8234Z" fill="black"/>
<path fill-rule="evenodd" clip-rule="evenodd" d="M86.0981 42.8411C85.6477 42.8411 85.2789 43.2115 85.2789 43.6638C85.2789 44.1201 85.6477 44.4866 86.0981 44.4866C86.5485 44.4866 86.9173 44.1201 86.9173 43.6638C86.9173 43.2115 86.5485 42.8411 86.0981 42.8411Z" fill="#FAF1E8"/>
<path fill-rule="evenodd" clip-rule="evenodd" d="M99.0422 37.9787C99.38 37.8774 99.8342 37.5459 100.215 37.3822C100.595 37.2223 100.898 37.2301 101.139 37.234C101.379 37.2379 101.554 37.2379 101.632 37.117C101.713 36.9922 101.694 36.7466 101.48 36.5633C101.267 36.3801 100.855 36.2553 100.44 36.3255C100.021 36.3957 99.6013 36.6569 99.2363 36.9376C98.8753 37.2184 98.5724 37.5186 98.5297 37.7331C98.487 37.9475 98.7083 38.0801 99.0422 37.9787Z" fill="#F4BC65"/>
<path fill-rule="evenodd" clip-rule="evenodd" d="M87.1541 37.9787C86.8202 37.8774 86.366 37.5459 85.9855 37.3822C85.605 37.2223 85.2983 37.2301 85.0576 37.234C84.8169 37.2379 84.6422 37.2379 84.5645 37.117C84.4869 36.9922 84.5024 36.7466 84.7198 36.5633C84.9334 36.3801 85.341 36.2553 85.7603 36.3255C86.1758 36.3957 86.5989 36.6569 86.9639 36.9376C87.325 37.2184 87.6278 37.5186 87.6705 37.7331C87.7093 37.9475 87.4919 38.0801 87.1541 37.9787Z" fill="#F4BC65"/>
<path fill-rule="evenodd" clip-rule="evenodd" d="M93.665 47.5514C93.6068 47.7463 93.5524 48.1206 93.401 48.4209C93.2535 48.7172 93.0089 48.9395 92.9429 49.1773C92.873 49.4152 92.9817 49.6725 93.1913 49.8363C93.401 50.004 93.7116 50.0781 94.0105 50.0469C94.3056 50.0118 94.5851 49.8675 94.6822 49.6647C94.7754 49.462 94.69 49.2007 94.6278 48.9668C94.5657 48.7289 94.5347 48.5223 94.4104 48.2181C94.2862 47.914 94.0727 47.5163 93.964 47.3525C93.8552 47.1887 93.8552 47.255 93.8203 47.2979C93.7892 47.3408 93.7271 47.3564 93.665 47.5514Z" fill="#C44383"/>
<path fill-rule="evenodd" clip-rule="evenodd" d="M91.8713 45.8123C91.9956 45.5744 92.6478 45.3522 93.335 45.2937C94.0222 45.2391 94.7443 45.3522 95.2063 45.551C95.6645 45.7499 95.8586 46.0384 95.6528 46.4128C95.4509 46.7871 94.853 47.2472 94.4027 47.4811C93.9523 47.7112 93.6534 47.7112 93.3699 47.5201C93.0865 47.3291 92.8225 46.947 92.4886 46.6272C92.1547 46.3075 91.7471 46.054 91.8713 45.8123Z" fill="black"/>
<path fill-rule="evenodd" clip-rule="evenodd" d="M94.1775 47.7346C94.3289 48.0894 94.5813 48.5301 94.9695 48.7757C95.3578 49.0214 95.8741 49.0759 96.2934 49.0175C96.7088 48.9551 97.0233 48.7796 97.2834 48.5885C97.5436 48.3975 97.7455 48.1947 97.9279 47.9881C98.1065 47.7853 98.2657 47.5786 98.3667 47.5319C98.4676 47.4851 98.5142 47.5981 98.3511 47.8828C98.1919 48.1674 97.8192 48.6197 97.4232 48.9083C97.0233 49.1968 96.5963 49.3177 96.2041 49.3606C95.812 49.4035 95.4509 49.3645 95.1054 49.2319C94.7637 49.0954 94.4415 48.8654 94.2241 48.495C94.0028 48.1284 93.8941 47.6254 93.8669 47.3252C93.8397 47.0211 93.8941 46.9197 93.9407 47.0094C93.9911 47.0951 94.03 47.3759 94.1775 47.7346Z" fill="black"/>
<path fill-rule="evenodd" clip-rule="evenodd" d="M93.5369 47.7346C93.3894 48.0894 93.1331 48.5301 92.7449 48.7757C92.3605 49.0214 91.8403 49.0759 91.4248 49.0175C91.0094 48.9551 90.6911 48.7796 90.4348 48.5885C90.1747 48.3975 89.9689 48.1947 89.7903 47.9881C89.6078 47.7853 89.4526 47.5786 89.3516 47.5319C89.2468 47.4851 89.2002 47.5981 89.3633 47.8828C89.5263 48.1674 89.8952 48.6197 90.295 48.9083C90.6911 49.1968 91.1181 49.3177 91.5141 49.3606C91.9063 49.4035 92.2673 49.3645 92.609 49.2319C92.9506 49.0954 93.2768 48.8654 93.4942 48.495C93.7116 48.1284 93.8242 47.6254 93.8514 47.3252C93.8785 47.0211 93.8242 46.9197 93.7737 47.0094C93.7271 47.0951 93.6844 47.3759 93.5369 47.7346Z" fill="black"/>
<path fill-rule="evenodd" clip-rule="evenodd" d="M87.6161 51.4584C88.1636 51.7274 89.1148 52.1719 90.4076 52.4839C91.7005 52.7919 93.335 52.9713 94.787 52.8972C96.2391 52.8231 97.5086 52.4995 98.4521 52.1719C99.3955 51.8405 100.017 51.5052 100.37 51.3063C100.727 51.1074 100.82 51.0451 100.867 51.201C100.91 51.3609 100.906 51.7352 100.797 52.0433C100.684 52.3513 100.467 52.5892 99.9817 53.0337C99.5003 53.4821 98.751 54.1371 97.8115 54.6012C96.8719 55.0691 95.746 55.3459 94.919 55.4746C94.0882 55.6033 93.5524 55.5838 92.6361 55.3381C91.716 55.0886 90.4154 54.6129 89.4059 54.067C88.4004 53.5211 87.686 52.905 87.3017 52.3825C86.9134 51.8639 86.8513 51.4311 86.8901 51.2634C86.9289 51.0957 87.0726 51.1893 87.6161 51.4584Z" fill="#FF99CC"/>
<path fill-rule="evenodd" clip-rule="evenodd" d="M87.6161 51.4584C88.1636 51.7274 89.1148 52.1719 90.4076 52.4839C91.7005 52.7919 93.335 52.9713 94.787 52.8972C96.2391 52.8231 97.5086 52.4995 98.4521 52.1719C99.3955 51.8405 100.017 51.5052 100.37 51.3063C100.727 51.1074 100.82 51.0451 100.867 51.201C100.894 51.3024 100.902 51.4935 100.875 51.7001C99.8459 52.2811 98.3356 52.8816 97.1553 53.1701C94.3677 53.8525 89.5224 53.0103 86.9057 51.5715C86.8746 51.435 86.8746 51.3297 86.8901 51.2634C86.9289 51.0957 87.0726 51.1893 87.6161 51.4584Z" fill="#C44383"/>
<path d="M93.9251 55.3537C94.2668 54.8273 94.6123 54.5622 95.2995 54.5622C96.0566 54.5622 96.6739 55.0379 96.6739 55.6189C96.6739 56.6756 95.2995 57.7323 93.9251 58.789C92.5507 57.7323 91.1764 56.6756 91.1764 55.6189C91.1764 55.0379 91.7898 54.5622 92.5507 54.5622C93.2379 54.5622 93.5796 54.8273 93.9251 55.3537Z" fill="#C44383"/>
<path fill-rule="evenodd" clip-rule="evenodd" d="M102.47 53.0883C104.547 53.0883 106.232 54.7805 106.232 56.8666C106.232 58.9566 104.547 60.6489 102.47 60.6489C100.389 60.6489 98.7044 58.9566 98.7044 56.8666C98.7044 54.7805 100.389 53.0883 102.47 53.0883Z" fill="black"/>
<path fill-rule="evenodd" clip-rule="evenodd" d="M102.47 53.9266C104.085 53.9266 105.394 55.2445 105.394 56.8666C105.394 58.4887 104.085 59.8066 102.47 59.8066C100.851 59.8066 99.543 58.4887 99.543 56.8666C99.543 55.2445 100.851 53.9266 102.47 53.9266Z" fill="#F4BC65"/>
<path fill-rule="evenodd" clip-rule="evenodd" d="M116.203 37.1833C117.313 36.7934 118.482 36.5984 119.662 36.5984C120.881 36.5984 122.085 36.809 123.222 37.2223C123.917 36.3021 125.4 35.5378 126.445 35.335C127 35.2259 127.563 35.2571 128.048 35.5807C128.599 35.955 128.84 36.5711 128.976 37.195C129.116 37.8228 129.174 38.4973 129.22 39.1407C129.259 39.6671 129.283 40.1935 129.31 40.7199C129.341 41.3048 129.422 42.0339 129.116 42.5603C129.737 43.8549 130.09 45.2664 130.144 46.7091C130.144 46.7208 130.148 46.7286 130.148 46.7403C130.148 46.7559 130.148 46.7715 130.148 46.791C130.148 46.8066 130.148 46.8261 130.148 46.8456C130.152 46.8534 130.152 46.8612 130.152 46.8729C130.152 46.8963 130.152 46.9197 130.152 46.9431V46.9548C130.152 46.986 130.152 47.0133 130.152 47.0405V47.0444C130.152 47.0756 130.152 47.1029 130.156 47.1302V47.1419C130.152 47.5085 130.133 47.8789 130.098 48.2454C130.09 48.3156 130.082 48.3819 130.075 48.4482C130.071 48.4677 130.071 48.4833 130.067 48.4989C130.055 48.5768 130.047 48.6509 130.036 48.7289L130.032 48.7445C130.02 48.8303 130.005 48.9161 129.989 48.998C129.807 50.0274 129.473 51.0217 128.999 51.9497C130.102 52.5931 130.824 53.794 130.824 55.1392C130.824 57.1746 129.182 58.824 127.155 58.824C125.73 58.824 124.476 58.0052 123.87 56.7886C123.843 56.8003 123.816 56.812 123.789 56.8237C123.758 56.8393 123.723 56.8549 123.688 56.8666C123.657 56.8822 123.626 56.8939 123.591 56.9095C123.56 56.9212 123.525 56.9368 123.49 56.9485C123.459 56.9602 123.424 56.9758 123.393 56.9875C123.358 56.9992 123.323 57.0109 123.292 57.0226C123.257 57.0382 123.222 57.0499 123.187 57.0616C123.156 57.0733 123.121 57.085 123.09 57.0967C123.051 57.1123 123.009 57.124 122.97 57.1357C122.943 57.1474 122.915 57.1552 122.888 57.1668C122.818 57.1863 122.752 57.2097 122.686 57.2292C122.663 57.237 122.636 57.2409 122.613 57.2487C122.566 57.2643 122.523 57.276 122.481 57.2877C122.449 57.2955 122.418 57.3033 122.391 57.3111C122.349 57.3228 122.31 57.3345 122.267 57.3462C122.236 57.354 122.205 57.3579 122.178 57.3657C122.135 57.3774 122.096 57.3852 122.053 57.3969C122.022 57.4047 121.991 57.4125 121.96 57.4164C121.921 57.4281 121.879 57.4359 121.84 57.4437C121.809 57.4515 121.778 57.4593 121.747 57.4632C121.704 57.471 121.657 57.4827 121.615 57.4905C121.588 57.4944 121.56 57.5022 121.533 57.5061C121.475 57.5139 121.417 57.5256 121.362 57.5334C121.347 57.5373 121.331 57.5412 121.316 57.5412C121.242 57.5529 121.168 57.5646 121.098 57.5763C121.075 57.5763 121.052 57.5802 121.028 57.5841C120.978 57.588 120.928 57.5958 120.877 57.6036C120.85 57.6036 120.823 57.6075 120.792 57.6114C120.749 57.6153 120.702 57.6231 120.656 57.627C120.625 57.627 120.598 57.6309 120.566 57.6348C120.52 57.6387 120.477 57.6426 120.431 57.6426C120.4 57.6465 120.372 57.6504 120.341 57.6504C120.295 57.6543 120.248 57.6543 120.202 57.6581C120.174 57.6581 120.143 57.6621 120.116 57.6621C120.066 57.666 120.015 57.666 119.965 57.666C119.938 57.6698 119.914 57.6698 119.891 57.6698C119.813 57.6698 119.74 57.6737 119.662 57.6737C119.584 57.6737 119.507 57.6698 119.433 57.6698C119.406 57.6698 119.382 57.6698 119.359 57.666C119.309 57.666 119.258 57.666 119.204 57.6621C119.177 57.6621 119.146 57.6581 119.118 57.6581C119.072 57.6543 119.025 57.6543 118.979 57.6504C118.948 57.6465 118.916 57.6465 118.885 57.6426C118.843 57.6387 118.796 57.6387 118.753 57.6348C118.722 57.6309 118.691 57.627 118.656 57.6231C118.614 57.6192 118.571 57.6153 118.528 57.6114C118.497 57.6075 118.466 57.6036 118.435 57.5997C118.388 57.5958 118.346 57.588 118.299 57.5841C118.272 57.5802 118.241 57.5763 118.21 57.5724C118.163 57.5646 118.117 57.5568 118.07 57.5529C118.043 57.549 118.016 57.5451 117.989 57.5373C117.93 57.5295 117.872 57.5178 117.814 57.51C117.798 57.5061 117.783 57.5022 117.771 57.5022C117.697 57.4866 117.624 57.4749 117.554 57.4593C117.53 57.4554 117.507 57.4476 117.484 57.4437C117.433 57.4359 117.387 57.4242 117.34 57.4125C117.309 57.4047 117.282 57.4008 117.251 57.393C117.208 57.3813 117.165 57.3735 117.123 57.3618C117.096 57.354 117.065 57.3462 117.033 57.3384C116.991 57.3267 116.952 57.3189 116.913 57.3072C116.882 57.2994 116.851 57.2877 116.816 57.2799C116.777 57.2682 116.738 57.2565 116.7 57.2448C116.669 57.237 116.637 57.2292 116.606 57.2175C116.568 57.2058 116.529 57.1941 116.49 57.1824C116.459 57.1707 116.428 57.1629 116.397 57.1513C116.358 57.1396 116.319 57.124 116.28 57.1123C116.249 57.1006 116.222 57.0928 116.191 57.0811C116.148 57.0655 116.106 57.0499 116.063 57.0343C116.036 57.0265 116.012 57.0187 115.985 57.007C115.919 56.9836 115.853 56.9563 115.787 56.929C115.764 56.9212 115.737 56.9095 115.71 56.8978C115.671 56.8822 115.632 56.8666 115.589 56.851C115.558 56.8354 115.531 56.8237 115.5 56.8081C115.465 56.7925 115.43 56.7808 115.395 56.7652C115.36 56.7496 115.329 56.734 115.298 56.7184C115.263 56.7028 115.232 56.6872 115.197 56.6716C115.166 56.66 115.135 56.6444 115.1 56.6249C115.088 56.621 115.073 56.6132 115.061 56.6054C114.494 57.9155 113.198 58.824 111.691 58.824C109.665 58.824 108.022 57.1746 108.022 55.1392C108.022 53.6263 108.931 52.324 110.231 51.7547C110.224 51.7391 110.212 51.7196 110.204 51.7001C110.2 51.6962 110.2 51.6923 110.196 51.6845C110.173 51.6338 110.146 51.5792 110.123 51.5247C110.119 51.513 110.111 51.5052 110.107 51.4935C110.084 51.4428 110.061 51.3882 110.037 51.3375C110.033 51.3258 110.03 51.3141 110.022 51.3024C110.002 51.2478 109.979 51.1971 109.956 51.1425C109.952 51.1347 109.948 51.123 109.944 51.1113C109.921 51.0568 109.901 51.0022 109.878 50.9476C109.874 50.9398 109.874 50.9359 109.87 50.932C109.634 50.3042 109.451 49.6569 109.335 48.998C109.319 48.9161 109.304 48.8303 109.292 48.7445L109.288 48.7289C109.276 48.6548 109.269 48.5768 109.257 48.4989C109.257 48.4833 109.253 48.4677 109.253 48.4521C109.241 48.3819 109.234 48.3117 109.23 48.2454C109.191 47.8789 109.172 47.5124 109.172 47.1419V47.138C109.172 47.1068 109.172 47.0756 109.172 47.0444V47.0405C109.172 47.0133 109.172 46.986 109.172 46.9548V46.947C109.172 46.9236 109.171 46.8963 109.175 46.869V46.8495C109.175 46.83 109.175 46.8066 109.175 46.7871C109.175 46.7754 109.175 46.7598 109.175 46.7481C109.179 46.7325 109.179 46.7208 109.179 46.7052C109.237 45.2157 109.61 43.7613 110.274 42.4317C110.045 41.917 110.119 41.258 110.146 40.7199C110.173 40.1935 110.196 39.6671 110.235 39.1407C110.278 38.4973 110.336 37.8228 110.476 37.195C110.616 36.5711 110.856 35.955 111.408 35.5807C111.889 35.2571 112.456 35.2259 113.011 35.335C114.04 35.5378 115.5 36.2787 116.203 37.1833Z" fill="black"/>
<path fill-rule="evenodd" clip-rule="evenodd" d="M115.585 37.9436C115.158 37.1755 113.71 36.4151 112.809 36.2397C111.909 36.0642 111.551 36.4736 111.346 37.3977C111.14 38.318 111.086 39.7568 111.035 40.7706C110.981 41.7805 110.926 42.3732 111.559 42.2172C112.192 42.0612 113.512 41.1566 114.463 40.3183C115.418 39.4838 116.012 38.7118 115.585 37.9436Z" fill="#EB8857"/>
<path fill-rule="evenodd" clip-rule="evenodd" d="M115.127 38.2049C114.789 37.5966 113.64 36.9883 112.922 36.8479C112.204 36.7076 111.92 37.0351 111.757 37.7682C111.594 38.5012 111.555 39.6437 111.513 40.4508C111.47 41.2541 111.427 41.7259 111.928 41.6011C112.433 41.4763 113.481 40.7589 114.238 40.0921C114.999 39.4292 115.469 38.8132 115.127 38.2049Z" fill="#FF99CC"/>
<path fill-rule="evenodd" clip-rule="evenodd" d="M123.816 37.9436C124.243 37.1755 125.691 36.4151 126.592 36.2397C127.493 36.0642 127.85 36.4736 128.056 37.3977C128.262 38.318 128.312 39.7568 128.366 40.7706C128.421 41.7805 128.471 42.3732 127.838 42.2172C127.209 42.0612 125.889 41.1566 124.934 40.3183C123.979 39.4838 123.389 38.7118 123.816 37.9436Z" fill="#EB8857"/>
<path fill-rule="evenodd" clip-rule="evenodd" d="M124.27 38.2049C124.612 37.5966 125.761 36.9883 126.479 36.8479C127.194 36.7076 127.477 37.0351 127.64 37.7682C127.803 38.5012 127.846 39.6437 127.889 40.4508C127.931 41.2541 127.974 41.7259 127.469 41.6011C126.969 41.4763 125.92 40.7589 125.159 40.0921C124.402 39.4292 123.933 38.8132 124.27 38.2049Z" fill="#FF99CC"/>
<path fill-rule="evenodd" clip-rule="evenodd" d="M119.635 37.5186C124.923 37.5186 129.209 41.8234 129.209 47.1341C129.209 52.4449 124.923 56.7535 119.635 56.7535C114.347 56.7535 110.061 52.4449 110.061 47.1341C110.061 41.8234 114.347 37.5186 119.635 37.5186Z" fill="#FF9966"/>
<path fill-rule="evenodd" clip-rule="evenodd" d="M129.182 46.4089C129.201 46.6467 129.209 46.8924 129.209 47.1341C129.209 47.1419 129.209 47.1497 129.209 47.1575H128.195C127.99 47.1575 127.819 46.9899 127.819 46.7832C127.819 46.5766 127.99 46.4089 128.195 46.4089H129.182Z" fill="white"/>
<path fill-rule="evenodd" clip-rule="evenodd" d="M129.162 48.0895C129.139 48.339 129.104 48.5925 129.061 48.8381H127.306C127.101 48.8381 126.934 48.6705 126.934 48.4638C126.934 48.2571 127.101 48.0895 127.306 48.0895H129.162Z" fill="white"/>
<path fill-rule="evenodd" clip-rule="evenodd" d="M110.061 47.1575C110.061 47.1497 110.061 47.1419 110.061 47.1341C110.061 46.8924 110.068 46.6467 110.088 46.4089H110.744C110.946 46.4089 111.117 46.5765 111.117 46.7832C111.117 46.9899 110.946 47.1575 110.744 47.1575H110.061Z" fill="white"/>
<path fill-rule="evenodd" clip-rule="evenodd" d="M110.208 48.8381C110.165 48.5925 110.13 48.339 110.107 48.0895H111.629C111.835 48.0895 112.002 48.2571 112.002 48.4638C112.002 48.6705 111.835 48.8381 111.629 48.8381H110.208Z" fill="white"/>
<path fill-rule="evenodd" clip-rule="evenodd" d="M128.599 50.5226C127.237 54.1606 123.738 56.7535 119.635 56.7535C115.434 56.7535 111.866 54.0358 110.577 50.2574C112.588 48.4404 115.814 47.2667 119.448 47.2667C123.257 47.2667 126.615 48.5574 128.599 50.5226Z" fill="#D6B095"/>
<path fill-rule="evenodd" clip-rule="evenodd" d="M125.027 44.5919C126.142 44.5919 127.042 45.4965 127.042 46.6156C127.042 47.7346 126.142 48.6393 125.027 48.6393C123.913 48.6393 123.012 47.7346 123.012 46.6156C123.012 45.4965 123.913 44.5919 125.027 44.5919Z" fill="black"/>
<path fill-rule="evenodd" clip-rule="evenodd" d="M125.253 45.3756C125.602 45.3756 125.885 45.6603 125.885 46.0073C125.885 46.3582 125.602 46.6429 125.253 46.6429C124.907 46.6429 124.624 46.3582 124.624 46.0073C124.624 45.6603 124.907 45.3756 125.253 45.3756Z" fill="#FAF1E8"/>
<path fill-rule="evenodd" clip-rule="evenodd" d="M113.908 44.5919C112.794 44.5919 111.889 45.4965 111.889 46.6156C111.889 47.7346 112.794 48.6393 113.908 48.6393C115.018 48.6393 115.923 47.7346 115.923 46.6156C115.923 45.4965 115.018 44.5919 113.908 44.5919Z" fill="black"/>
<path fill-rule="evenodd" clip-rule="evenodd" d="M113.679 45.3756C113.33 45.3756 113.05 45.6603 113.05 46.0073C113.05 46.3582 113.33 46.6429 113.679 46.6429C114.028 46.6429 114.308 46.3582 114.308 46.0073C114.308 45.6603 114.028 45.3756 113.679 45.3756Z" fill="#FAF1E8"/>
<path fill-rule="evenodd" clip-rule="evenodd" d="M118.124 47.6644C118.218 47.4812 118.718 47.3057 119.25 47.2628C119.778 47.2199 120.334 47.3057 120.687 47.4617C121.04 47.6137 121.192 47.836 121.032 48.1245C120.877 48.4131 120.415 48.7679 120.07 48.9473C119.724 49.1228 119.495 49.1228 119.278 48.9746C119.06 48.8303 118.854 48.534 118.598 48.2883C118.338 48.0427 118.027 47.8477 118.124 47.6644Z" fill="black"/>
<path fill-rule="evenodd" clip-rule="evenodd" d="M119.899 49.1422C120.011 49.4152 120.209 49.7544 120.508 49.9416C120.803 50.1326 121.203 50.1755 121.525 50.1287C121.844 50.0819 122.088 49.9455 122.286 49.8012C122.488 49.653 122.644 49.4971 122.783 49.3372C122.923 49.1812 123.043 49.0214 123.121 48.9863C123.199 48.9512 123.234 49.037 123.109 49.2553C122.985 49.4737 122.702 49.8246 122.395 50.0469C122.088 50.2691 121.758 50.3627 121.456 50.3939C121.153 50.4251 120.877 50.3978 120.613 50.2925C120.349 50.1911 120.101 50.0118 119.934 49.7271C119.763 49.4464 119.677 49.0603 119.658 48.8264C119.635 48.5924 119.677 48.5145 119.716 48.5807C119.755 48.6509 119.786 48.8654 119.899 49.1422Z" fill="black"/>
<path fill-rule="evenodd" clip-rule="evenodd" d="M119.406 49.1422C119.289 49.4152 119.095 49.7544 118.796 49.9416C118.497 50.1326 118.101 50.1755 117.779 50.1287C117.457 50.0819 117.216 49.9455 117.014 49.8012C116.816 49.653 116.661 49.4971 116.521 49.3372C116.381 49.1812 116.261 49.0214 116.183 48.9863C116.102 48.9512 116.067 49.037 116.191 49.2553C116.319 49.4737 116.603 49.8246 116.909 50.0469C117.216 50.2691 117.542 50.3627 117.845 50.3939C118.148 50.4251 118.427 50.3978 118.691 50.2925C118.955 50.1911 119.204 50.0118 119.371 49.7271C119.538 49.4464 119.623 49.0603 119.646 48.8264C119.666 48.5924 119.623 48.5145 119.588 48.5807C119.549 48.6509 119.518 48.8654 119.406 49.1422Z" fill="black"/>
<path fill-rule="evenodd" clip-rule="evenodd" d="M111.664 52.3708C113.186 52.3708 114.421 53.6108 114.421 55.1393C114.421 56.6678 113.186 57.9038 111.664 57.9038C110.146 57.9038 108.911 56.6678 108.911 55.1393C108.911 53.6108 110.146 52.3708 111.664 52.3708Z" fill="#D6835A"/>
<path fill-rule="evenodd" clip-rule="evenodd" d="M127.128 52.3708C128.65 52.3708 129.88 53.6108 129.88 55.1393C129.88 56.6678 128.65 57.9038 127.128 57.9038C125.606 57.9038 124.371 56.6678 124.371 55.1393C124.371 53.6108 125.606 52.3708 127.128 52.3708Z" fill="#D6835A"/>
<path fill-rule="evenodd" clip-rule="evenodd" d="M117.69 43.1959H121.316C121.522 43.1959 121.689 43.3636 121.689 43.5702C121.689 43.7769 121.522 43.9446 121.316 43.9446H117.69C117.484 43.9446 117.317 43.7769 117.317 43.5702C117.317 43.3636 117.484 43.1959 117.69 43.1959Z" fill="white"/>
<path fill-rule="evenodd" clip-rule="evenodd" d="M117.69 41.6947H121.316C121.522 41.6947 121.689 41.8624 121.689 42.069C121.689 42.2757 121.522 42.4434 121.316 42.4434H117.69C117.484 42.4434 117.317 42.2757 117.317 42.069C117.317 41.8624 117.484 41.6947 117.69 41.6947Z" fill="white"/>
<path fill-rule="evenodd" clip-rule="evenodd" d="M117.69 40.1428H121.316C121.522 40.1428 121.689 40.3105 121.689 40.5171C121.689 40.7238 121.522 40.8915 121.316 40.8915H117.69C117.484 40.8915 117.317 40.7238 117.317 40.5171C117.317 40.3105 117.484 40.1428 117.69 40.1428Z" fill="white"/>
<path fill-rule="evenodd" clip-rule="evenodd" d="M126.833 49.5594C127.058 49.6452 127.601 49.9922 127.9 50.2457C128.203 50.4991 128.262 50.659 128.25 50.7916C128.242 50.9203 128.164 51.0255 128.04 50.9749C127.916 50.9281 127.741 50.7292 127.524 50.5147C127.306 50.3003 127.046 50.0663 126.872 49.8636C126.697 49.6569 126.608 49.4775 126.833 49.5594Z" fill="black"/>
<path fill-rule="evenodd" clip-rule="evenodd" d="M126.856 49.1305C127.093 49.0798 127.737 49.0837 128.126 49.1383C128.514 49.1968 128.646 49.3021 128.708 49.4191C128.77 49.5321 128.758 49.6608 128.626 49.6881C128.498 49.7115 128.246 49.6374 127.947 49.5672C127.652 49.5009 127.306 49.4464 127.05 49.3645C126.794 49.2826 126.623 49.1812 126.856 49.1305Z" fill="black"/>
<path fill-rule="evenodd" clip-rule="evenodd" d="M112.689 49.5594C112.46 49.6452 111.92 49.9922 111.617 50.2457C111.318 50.4991 111.26 50.659 111.272 50.7916C111.28 50.9203 111.357 51.0255 111.482 50.9749C111.606 50.9281 111.777 50.7292 111.994 50.5147C112.211 50.3003 112.475 50.0663 112.65 49.8636C112.825 49.6569 112.914 49.4775 112.689 49.5594Z" fill="black"/>
<path fill-rule="evenodd" clip-rule="evenodd" d="M112.662 49.1305C112.425 49.0798 111.784 49.0837 111.396 49.1383C111.008 49.1968 110.872 49.3021 110.814 49.4191C110.752 49.5321 110.763 49.6608 110.891 49.6881C111.023 49.7115 111.276 49.6374 111.571 49.5672C111.87 49.5009 112.215 49.4464 112.472 49.3645C112.728 49.2826 112.899 49.1812 112.662 49.1305Z" fill="black"/>
<path fill-rule="evenodd" clip-rule="evenodd" d="M121.028 50.5148C120.962 50.6278 120.893 50.8618 120.873 50.9983C120.85 51.1348 120.873 51.1737 120.962 51.1659C121.048 51.1581 121.195 51.1036 121.308 50.9632C121.421 50.8228 121.498 50.6006 121.568 50.4836C121.642 50.3627 121.708 50.351 121.689 50.351C121.669 50.3549 121.564 50.3744 121.471 50.3861C121.382 50.3978 121.304 50.4017 121.234 50.4017C121.16 50.4017 121.094 50.3978 121.028 50.5148Z" fill="white"/>
<path fill-rule="evenodd" clip-rule="evenodd" d="M118.206 50.5148C118.272 50.6278 118.342 50.8618 118.361 50.9983C118.385 51.1348 118.361 51.1737 118.272 51.1659C118.187 51.1581 118.039 51.1036 117.926 50.9632C117.814 50.8228 117.736 50.6006 117.666 50.4836C117.593 50.3627 117.527 50.351 117.546 50.351C117.565 50.3549 117.67 50.3744 117.763 50.3861C117.853 50.3978 117.93 50.4017 118 50.4017C118.074 50.4017 118.14 50.3978 118.206 50.5148Z" fill="white"/>
<path fill-rule="evenodd" clip-rule="evenodd" d="M82.402 51.2244C84.483 51.2244 86.168 52.9167 86.168 55.0067C86.168 57.0928 84.483 58.785 82.402 58.785C80.3249 58.785 78.6399 57.0928 78.6399 55.0067C78.6399 52.9167 80.3249 51.2244 82.402 51.2244Z" fill="black"/>
<path fill-rule="evenodd" clip-rule="evenodd" d="M82.402 52.0667C84.0171 52.0667 85.3294 53.3807 85.3294 55.0067C85.3294 56.6288 84.0171 57.9428 82.402 57.9428C80.7869 57.9428 79.4746 56.6288 79.4746 55.0067C79.4746 53.3807 80.7869 52.0667 82.402 52.0667Z" fill="#F4BC65"/>
<g clip-path="url(#clip0_41_28)">
<path d="M81.7478 119.312C80.4777 118.042 79.5519 116.617 79.2196 114.849C78.6854 112.071 79.362 109.638 81.2374 107.549C82.5193 106.125 84.1454 105.234 86.0326 104.997C88.003 104.748 89.9021 105.044 91.6469 106.125C93.8546 107.478 95.1365 109.484 95.4688 111.976C95.908 115.252 94.6261 118.374 91.6231 120.19C90.543 120.843 89.4036 121.27 88.1454 121.353C87.9792 121.365 87.7181 121.65 87.7062 121.816C87.6469 122.445 87.6825 123.074 87.6825 123.608C88.2166 123.953 88.7507 124.202 89.1424 124.57C89.6884 125.08 89.7952 125.816 89.7952 126.528C89.8071 129.223 89.8309 131.905 89.7834 134.599C89.7715 135.228 89.5222 135.846 89.3798 136.51C89.5816 136.51 89.819 136.51 90.0564 136.51C93.7596 136.51 97.451 136.51 101.154 136.51C101.309 136.51 101.499 136.463 101.617 136.522C101.819 136.629 101.961 136.807 102.139 136.961C101.973 137.092 101.807 137.246 101.617 137.329C101.487 137.389 101.309 137.341 101.142 137.341C82.7448 137.341 64.3472 137.341 45.9495 137.329C45.5816 137.329 44.9644 137.555 44.9881 136.914C45 136.356 45.5816 136.522 45.9495 136.522C48.4777 136.51 51.0178 136.522 53.546 136.522C53.7596 136.522 53.9733 136.522 54.1869 136.522C53.6172 135.917 53 135.407 52.5727 134.754C51.2552 132.76 51.3027 130.659 52.276 128.534C54.1988 124.32 56.0979 120.095 58.0208 115.869C59.1128 113.472 60.2166 111.086 61.3086 108.688C61.5341 108.202 61.7834 107.739 61.9495 107.24C62.1157 106.742 62.2582 106.22 62.27 105.709C62.3056 102.777 62.2819 99.8576 62.2819 96.9258C62.2819 96.7003 62.2819 96.4629 62.2819 96.2018C61.1662 96.2136 60.5015 95.6676 60.1573 94.73C59.6944 93.4837 60.6795 92.0356 62.0445 92.0237C65.2849 91.9881 68.5371 92 71.7774 92.0237C72.8932 92.0356 73.7952 93.0326 73.7952 94.1602C73.7952 95.2403 72.9525 96.0949 71.8249 96.178C71.7656 96.178 71.7062 96.2018 71.5757 96.2255C71.5638 96.4154 71.5401 96.6291 71.5401 96.8427C71.5401 99.905 71.5163 102.979 71.5638 106.042C71.5757 106.599 71.8487 107.169 72.086 107.691C73.3323 110.469 74.6142 113.234 75.8724 116C77.3442 119.24 78.7923 122.481 80.2522 125.721C80.8101 126.955 81.4273 128.166 81.9139 129.424C82.8398 131.834 81.9495 134.754 79.9317 136.142C79.8249 136.226 79.7181 136.309 79.4807 136.487C81.5341 136.487 83.4214 136.487 85.4036 136.487C84.7507 135.68 84.8338 134.777 84.8338 133.899C84.8457 131.501 84.8813 129.116 84.8219 126.718C84.7745 125.223 85.4036 124.214 86.8516 123.739C86.8516 123.086 86.8754 122.409 86.8279 121.745C86.816 121.602 86.5549 121.353 86.4006 121.341C84.632 121.199 83.1246 120.451 81.7478 119.312ZM86.5786 136.427C87.9317 136.89 88.9881 136.166 88.9881 134.766C88.9881 131.941 89 129.116 88.9881 126.303C88.9881 124.902 87.7537 124.154 86.4125 124.783C85.8902 125.116 85.6291 125.602 85.6291 126.22C85.6291 129.104 85.6291 131.988 85.6291 134.872C85.6291 135.537 85.9021 136.047 86.5786 136.427ZM63.457 95.4303C66.1039 95.4303 68.7507 95.4421 71.3857 95.4303C72.4184 95.4303 72.9881 94.9317 72.9881 94.089C72.9763 93.27 72.4303 92.7952 71.4214 92.7834C70.4955 92.7715 69.5697 92.7715 68.6439 92.7834C66.8516 92.7952 65.0593 92.8071 63.1484 92.8071C62.7685 92.8071 62.4006 92.7834 62.0208 92.819C61.3917 92.8783 60.9169 93.365 60.8576 93.9703C60.7982 94.6231 61.178 95.2166 61.819 95.3353C62.3175 95.4303 62.8398 95.3946 63.457 95.4303ZM61.7478 114.03C63.8843 114.599 65.7122 115.68 67.1602 117.365C68.7863 119.252 70.8041 120.285 73.3086 120.309C74.4481 120.32 75.5757 120.214 76.7033 119.739C76.5727 119.442 76.4659 119.181 76.3472 118.932C74.6024 115.086 72.8457 111.24 71.1246 107.383C70.9228 106.932 70.8041 106.398 70.8041 105.911C70.7804 102.932 70.7923 99.9406 70.7923 96.9614C70.7923 96.7122 70.7685 96.4629 70.7567 96.178C68.8101 96.178 66.911 96.178 64.9169 96.1662C64.5846 96.1662 64.2403 96.1662 63.908 96.1662C63.1128 96.1662 63.1128 96.1662 63.1128 96.997C63.1128 100 63.1246 103.003 63.1009 106.018C63.1009 106.421 63.0059 106.849 62.8398 107.217C61.9852 109.175 61.0831 111.11 60.2047 113.056C60.1217 113.246 60.0504 113.448 59.9436 113.709C60.549 113.792 61.1068 113.887 61.7478 114.03ZM57.8665 136.57C63.9911 136.57 70.1276 136.582 76.2522 136.57C76.6676 136.57 77.0831 136.534 77.4866 136.439C80.7626 135.656 82.4006 132.32 81.0237 129.211C79.8249 126.528 78.5786 123.858 77.3917 121.163C77.1424 120.593 76.9169 120.439 76.276 120.605C72.4421 121.59 69.1424 120.771 66.4955 117.674C65.1187 116.071 63.3501 115.062 61.1662 114.623C60.8813 114.564 60.5846 114.516 60.2997 114.457C59.7893 114.338 59.5044 114.481 59.2671 115.015C58.1751 117.531 57.0119 120.024 55.8843 122.516C54.8398 124.819 53.7596 127.098 52.7626 129.424C51.2552 132.938 53.9852 136.807 57.8665 136.57ZM81.546 108.368C78.911 111.656 79.3383 116.356 82.5193 118.932C85.724 121.531 90.4125 121.092 93.0475 117.947C95.6706 114.801 95.2908 110.136 92.181 107.454C89.0831 104.771 84.359 105.151 81.546 108.368Z" fill="#413879"/>
<path d="M60.1454 139.964C57.5697 139.964 55.0653 139.964 52.5489 139.964C52.3709 139.964 52.1691 140 52.0267 139.941C51.8961 139.881 51.7418 139.691 51.7537 139.585C51.7656 139.43 51.908 139.228 52.0386 139.169C52.2047 139.098 52.4303 139.145 52.6202 139.145C66.5786 139.145 80.549 139.145 94.5074 139.157C94.816 139.157 95.362 138.908 95.3857 139.537C95.4095 140.226 94.8398 139.964 94.5074 139.964C83.0771 139.964 71.635 139.964 60.1454 139.964Z" fill="#3F3679"/>
<path d="M97.0712 139.596C97.2136 139.407 97.3679 139.157 97.5222 139.157C98.911 139.122 100.288 139.122 101.677 139.157C101.843 139.157 101.997 139.418 102.151 139.549C101.985 139.691 101.819 139.941 101.653 139.941C100.264 139.976 98.8872 139.964 97.4985 139.941C97.3561 139.941 97.2136 139.751 97.0712 139.596Z" fill="#3F3679"/>
<path d="M46.8516 139.134C47.7775 139.134 48.6558 139.11 49.5223 139.157C49.7003 139.169 49.9852 139.371 50.0327 139.537C50.1276 139.917 49.819 139.976 49.5104 139.976C48.2048 139.976 46.8991 139.988 45.6054 139.953C45.3917 139.953 45.0356 139.727 45.0119 139.561C44.9525 139.169 45.2968 139.122 45.6172 139.134C46.0089 139.134 46.4006 139.134 46.8516 139.134Z" fill="#3F3679"/>
<path d="M61.2493 114.682C63.3502 115.074 65.1187 116.083 66.4956 117.685C69.1424 120.783 72.4421 121.602 76.276 120.617C76.9169 120.451 77.1424 120.605 77.3917 121.175C78.5786 123.869 79.8249 126.528 81.0237 129.223C82.4006 132.32 80.7626 135.668 77.4867 136.451C77.0831 136.546 76.6677 136.582 76.2522 136.582C70.1276 136.582 63.9911 136.582 57.7715 136.546C57.0119 136.047 56.2166 135.691 55.6825 135.098C53.997 133.223 53.8309 131.098 54.8754 128.819C56.3234 125.662 57.7596 122.493 59.184 119.323C59.8843 117.792 60.5608 116.237 61.2493 114.682Z" fill="#F8AF23"/>
<path d="M65.0119 96.178C66.911 96.178 68.7982 96.178 70.7448 96.178C70.7567 96.4629 70.7804 96.7122 70.7804 96.9614C70.7804 99.9407 70.7685 102.932 70.7923 105.911C70.7923 106.409 70.911 106.932 71.1128 107.383C72.8338 111.24 74.5905 115.086 76.3353 118.932C76.454 119.181 76.5608 119.43 76.6914 119.739C75.5757 120.214 74.4481 120.32 73.2967 120.309C70.7923 120.285 68.7626 119.24 67.1484 117.365C65.7003 115.68 63.8724 114.611 61.7003 113.97C62.6855 111.632 63.7181 109.365 64.7151 107.086C64.8813 106.706 64.9763 106.255 64.9763 105.84C65.0119 102.611 65.0119 99.3947 65.0119 96.178ZM70.543 117.745C70.7211 117.721 70.8991 117.721 71.0653 117.674C71.9792 117.46 72.5371 116.866 72.7626 115.964C72.9763 115.062 72.6439 114.315 71.9555 113.757C71.2552 113.187 70.4481 113.104 69.6172 113.484C68.7151 113.899 68.1929 114.884 68.3472 115.869C68.5015 116.843 69.273 117.543 70.543 117.745ZM65.7122 104.997C66.543 106.125 67.8843 106.374 68.9169 105.591C69.9139 104.843 70.0682 103.442 69.2611 102.433C68.5846 101.579 67.3145 101.401 66.3768 102.006C65.4036 102.623 65.1187 103.786 65.7122 104.997ZM67.3857 111.383C67.5994 110.457 67.2552 109.638 66.4955 109.282C65.7359 108.926 64.8576 109.139 64.3709 109.792C63.8605 110.469 63.8843 111.312 64.4303 111.976C65.1424 112.843 66.8041 112.807 67.3857 111.383Z" fill="#63BBE6"/>
<path d="M81.5816 108.332C84.3591 105.151 89.0831 104.772 92.1929 107.454C95.3027 110.137 95.6825 114.801 93.0594 117.947C90.4243 121.104 85.7359 121.543 82.5312 118.932C79.3502 116.356 78.911 111.656 81.5816 108.332ZM91.6944 117.567C91.9555 117.246 92.2404 116.938 92.4778 116.605C94.2226 114.065 93.7359 110.493 91.362 108.439C89.0594 106.433 85.3798 106.469 83.1484 108.522C80.5371 110.908 80.3828 114.825 82.7923 117.448C85.0831 119.929 89.095 120.012 91.6944 117.567Z" fill="#F06175"/>
<path d="M61.2018 114.659C60.5608 116.237 59.8843 117.792 59.184 119.335C57.7478 122.504 56.3234 125.674 54.8754 128.831C53.8308 131.098 53.997 133.234 55.6825 135.11C56.2166 135.703 57.0119 136.059 57.724 136.546C53.997 136.819 51.2552 132.95 52.7626 129.436C53.7596 127.11 54.8398 124.831 55.8843 122.528C57.0237 120.036 58.1751 117.543 59.2671 115.027C59.5044 114.493 59.7893 114.35 60.2997 114.469C60.5727 114.528 60.8694 114.576 61.2018 114.659Z" fill="#F27026"/>
<path d="M64.9525 96.1662C65 99.3947 65.0119 102.611 64.9881 105.828C64.9881 106.243 64.8932 106.694 64.727 107.074C63.73 109.353 62.7092 111.62 61.6766 113.935C61.1068 113.887 60.549 113.792 59.9199 113.685C60.0267 113.424 60.0979 113.234 60.181 113.033C61.0594 111.086 61.9614 109.151 62.816 107.193C62.9822 106.825 63.0772 106.398 63.0772 105.994C63.1009 102.991 63.089 99.9881 63.089 96.9733C63.089 96.1543 63.089 96.1424 63.8843 96.1424C64.2285 96.1543 64.5608 96.1543 64.9525 96.1662Z" fill="#6378E7"/>
<path d="M63.2552 92.8309C65.0475 92.819 66.8398 92.7953 68.6439 92.7834C69.5697 92.7834 70.4956 92.7715 71.4214 92.7834C72.4303 92.7953 72.9763 93.27 72.9881 94.089C73 94.9317 72.4184 95.4303 71.3858 95.4303C68.7389 95.4421 66.092 95.4303 63.3739 95.3947C62.5668 94.4807 62.5549 93.9585 63.2552 92.8309Z" fill="#63BBE6"/>
<path d="M86.4955 124.76C87.7537 124.142 88.9881 124.902 88.9881 126.303C89 129.128 89 131.953 88.9881 134.766C88.9881 136.166 87.9317 136.878 86.5549 136.368C86.9347 135.81 87.1009 135.252 87.089 134.611C87.0653 131.929 87.0653 129.246 87.089 126.564C87.1009 125.875 86.9585 125.27 86.4955 124.76Z" fill="#F38875"/>
<path d="M86.4481 124.772C86.9466 125.27 87.1009 125.875 87.089 126.564C87.0772 129.246 87.0653 131.929 87.089 134.611C87.089 135.252 86.9229 135.81 86.5074 136.344C85.8783 136.059 85.6053 135.537 85.6053 134.872C85.6053 131.988 85.6053 129.104 85.6053 126.22C85.6291 125.591 85.8902 125.116 86.4481 124.772Z" fill="#F36275"/>
<path d="M63.2077 92.819C62.5668 93.9585 62.5786 94.4688 63.3264 95.3828C62.8398 95.3947 62.3175 95.4303 61.819 95.3353C61.178 95.2166 60.7982 94.6231 60.8576 93.9703C60.9169 93.365 61.3798 92.8783 62.0208 92.819C62.3887 92.7953 62.7685 92.819 63.2077 92.819Z" fill="#6377E5"/>
<path d="M70.4956 117.745C69.2849 117.543 68.5015 116.855 68.3472 115.869C68.1929 114.884 68.7151 113.899 69.6172 113.484C70.4481 113.104 71.2552 113.187 71.9555 113.757C72.6439 114.315 72.9763 115.062 72.7626 115.964C72.549 116.855 71.9911 117.46 71.0653 117.674C70.8991 117.709 70.7211 117.721 70.4956 117.745ZM69.0475 115.466C69.0475 116.154 69.3798 116.653 69.997 116.902C70.5668 117.128 71.1246 117.045 71.5994 116.605C72.0979 116.154 72.2285 115.466 71.9436 114.872C71.6588 114.279 71.0772 113.935 70.46 113.994C69.6884 114.065 69.2374 114.504 69.0475 115.466Z" fill="#423B7C"/>
<path d="M65.6884 104.961C65.1187 103.798 65.4036 102.623 66.3769 102.006C67.3264 101.401 68.5846 101.591 69.2611 102.433C70.0683 103.442 69.914 104.831 68.9169 105.591C67.8962 106.374 66.543 106.125 65.6884 104.961ZM68.3116 105.139C68.9881 104.629 69.2137 104.059 69 103.418C68.8101 102.813 68.276 102.41 67.635 102.374C66.9941 102.338 66.4125 102.73 66.1751 103.371C65.9614 103.953 66.1157 104.463 66.5312 104.89C67.0178 105.377 67.5994 105.424 68.3116 105.139Z" fill="#413A7C"/>
<path d="M67.3739 111.43C66.8042 112.807 65.1424 112.843 64.4303 111.976C63.8843 111.312 63.8487 110.481 64.3709 109.792C64.8576 109.139 65.7478 108.938 66.4955 109.282C67.2552 109.638 67.5994 110.457 67.3739 111.43ZM66.7329 110.647C66.6736 110.516 66.638 110.386 66.5668 110.279C66.27 109.852 65.724 109.721 65.2611 109.958C64.8101 110.196 64.6083 110.754 64.7982 111.217C65 111.691 65.5104 111.964 66.0089 111.81C66.5193 111.656 66.7567 111.276 66.7329 110.647Z" fill="#413B7D"/>
<path d="M91.6706 117.591C89.095 120.012 85.095 119.929 82.7923 117.436C80.3828 114.813 80.5371 110.896 83.1484 108.51C85.3917 106.469 89.0593 106.433 91.362 108.427C93.7359 110.481 94.2226 114.053 92.4777 116.593C92.2404 116.938 91.9555 117.246 91.6706 117.591ZM87.2196 107.668C84.1335 107.751 81.7359 110.22 81.7953 113.234C81.8546 116.273 84.3234 118.671 87.4214 118.647C87.8724 118.588 88.3353 118.576 88.7626 118.469C91.4095 117.757 93.1543 115.11 92.7626 112.404C92.3709 109.662 90.0208 107.62 87.2196 107.668Z" fill="#473A77"/>
<path d="M69.0594 115.418C69.2493 114.516 69.7003 114.077 70.4718 114.006C71.089 113.947 71.6825 114.291 71.9555 114.884C72.2404 115.478 72.1098 116.166 71.6113 116.617C71.1484 117.045 70.5786 117.139 70.0089 116.914C69.3798 116.653 69.0594 116.154 69.0594 115.418Z" fill="#9C9C9D"/>
<path d="M68.2641 105.151C67.5994 105.424 67.0178 105.365 66.5311 104.878C66.1157 104.451 65.9614 103.941 66.1751 103.359C66.4124 102.718 66.9822 102.326 67.635 102.362C68.276 102.398 68.8101 102.801 69 103.407C69.2136 104.059 68.9762 104.629 68.2641 105.151Z" fill="#9C9C9D"/>
<path d="M66.7448 110.694C66.7567 111.276 66.5193 111.656 66.0089 111.81C65.5104 111.964 65 111.691 64.7982 111.217C64.6083 110.742 64.8101 110.184 65.2611 109.958C65.724 109.721 66.27 109.852 66.5668 110.279C66.638 110.386 66.6736 110.528 66.7448 110.694Z" fill="#9B9B9D"/>
<path d="M87.3146 118.623C84.3116 118.671 81.8546 116.273 81.7953 113.234C81.7359 110.22 84.1454 107.763 87.3027 107.703C88.3235 108.285 89.2611 108.831 89.7834 109.84C89.4273 110.053 89.0712 110.196 88.8101 110.433C87.8843 111.323 86.9941 112.237 86.0683 113.175C85.9021 113.033 85.7715 112.926 85.641 112.807C84.9881 112.237 84.1573 112.226 83.6232 112.783C83.0653 113.377 83.1009 114.148 83.73 114.789C84.1217 115.181 84.5371 115.549 84.9407 115.917C85.7597 116.677 86.46 116.665 87.2552 115.869C88.4659 114.671 89.6647 113.484 90.8754 112.344C90.9822 113.947 90.6736 115.383 89.724 116.653C89.095 117.519 88.2285 118.101 87.3146 118.623Z" fill="#F6AE24"/>
<path d="M87.3739 118.623C88.2404 118.101 89.095 117.519 89.7359 116.653C90.6855 115.383 90.9941 113.958 90.911 112.309C91.8487 111.347 91.2789 109.804 89.8309 109.804C89.273 108.819 88.3234 108.273 87.362 107.703C90.0208 107.608 92.3709 109.65 92.7745 112.392C93.1662 115.086 91.4214 117.745 88.7745 118.457C88.3353 118.576 87.8724 118.576 87.3739 118.623Z" fill="#F5D024"/>
<path d="M89.7953 109.84C91.2789 109.804 91.8487 111.347 90.911 112.261C89.6884 113.496 88.4778 114.683 87.2671 115.881C86.46 116.677 85.7715 116.688 84.9525 115.929C84.549 115.549 84.1335 115.193 83.7418 114.801C83.1128 114.16 83.0772 113.389 83.635 112.795C84.1573 112.237 85 112.249 85.6528 112.819C85.7834 112.938 85.914 113.045 86.0801 113.187C87.0059 112.261 87.8962 111.335 88.822 110.445C89.0831 110.196 89.4392 110.053 89.7953 109.84ZM89.5816 110.683C88.7389 111.513 87.8961 112.344 87.0534 113.187C86.1513 114.089 86.1513 114.089 85.1306 113.306C84.7864 113.045 84.4303 112.985 84.1217 113.318C83.8368 113.638 83.9199 113.982 84.2166 114.267C84.6439 114.683 85.0712 115.086 85.5104 115.49C85.8902 115.834 86.2819 115.846 86.6617 115.466C87.8843 114.231 89.1187 113.009 90.3531 111.774C90.6024 111.525 90.7686 111.229 90.5312 110.872C90.3175 110.54 90.0208 110.481 89.5816 110.683Z" fill="#433B79"/>
<path d="M89.6291 110.671C90.0208 110.493 90.3294 110.552 90.543 110.884C90.7804 111.24 90.6142 111.525 90.365 111.786C89.1424 113.021 87.908 114.243 86.6736 115.478C86.2938 115.858 85.9139 115.846 85.5223 115.501C85.0831 115.098 84.6558 114.694 84.2285 114.279C83.9318 113.994 83.8487 113.65 84.1335 113.329C84.4303 112.997 84.7982 113.056 85.1424 113.317C86.1632 114.101 86.1632 114.101 87.0653 113.199C87.908 112.356 88.7507 111.525 89.6291 110.671Z" fill="#62B8E4"/>
</g>
<defs>
<clipPath id="clip0_41_28">
<rect width="57.1513" height="48" fill="white" transform="translate(45 92)"/>
</clipPath>
</defs>
</svg>
